<?xml version="1.0" standalone="no"?>
<!DOCTYPE svg PUBLIC "-//W3C//DTD SVG 20010904//EN"
 "http://www.w3.org/TR/2001/REC-SVG-20010904/DTD/svg10.dtd">
<svg version="1.0" xmlns="http://www.w3.org/2000/svg"
 width="700.000000pt" height="700.000000pt" viewBox="0 0 700.000000 700.000000"
 preserveAspectRatio="xMidYMid meet">
<metadata>
Created by potrace 1.14, written by Peter Selinger 2001-2017
</metadata>
<g transform="translate(0.000000,700.000000) scale(0.100000,-0.100000)"
fill="#000000" stroke="none">
<path d="M3386 6891 c-59 -61 -108 -118 -108 -128 -1 -18 9 -184 17 -283 2
-30 7 -98 10 -150 8 -127 21 -319 30 -452 3 -42 7 -114 10 -160 7 -116 15
-234 20 -293 15 -177 17 -265 3 -266 -7 0 -25 -3 -40 -5 -16 -3 -28 -3 -28 -2
0 3 -61 490 -75 603 -3 22 -8 56 -11 75 -5 36 -9 70 -19 155 -4 28 -8 61 -10
75 -2 14 -7 50 -10 80 -3 30 -8 66 -10 80 -2 14 -7 50 -10 80 -3 30 -8 66 -10
80 -2 14 -6 43 -9 65 -3 22 -8 64 -11 92 -4 29 -11 56 -17 59 -10 6 -171 -145
-188 -177 -5 -9 -5 -30 0 -50 5 -19 11 -47 13 -64 3 -16 28 -144 56 -283 28
-139 53 -263 55 -275 2 -12 11 -56 19 -97 9 -41 18 -88 21 -105 3 -16 23 -117
44 -223 l39 -192 -26 -6 c-14 -3 -35 -9 -46 -12 -11 -3 -24 -7 -30 -8 -5 -1
-50 -15 -100 -32 -110 -37 -224 -89 -312 -143 -37 -22 -69 -36 -73 -32 -4 4
-166 247 -360 538 -194 292 -358 533 -364 537 -14 9 -265 8 -271 -2 -2 -4 41
-65 96 -136 56 -71 112 -142 124 -159 13 -16 52 -67 87 -112 35 -44 87 -112
115 -150 29 -37 145 -187 258 -332 113 -146 205 -268 205 -272 0 -4 -12 -17
-27 -29 l-27 -21 -41 43 c-22 24 -88 97 -145 163 -57 66 -107 122 -110 125 -3
3 -113 129 -245 280 -132 151 -242 277 -245 280 -3 3 -50 57 -105 120 -54 63
-120 136 -145 161 l-45 47 -155 -2 -155 -1 -1 -140 c0 -77 2 -150 5 -162 3
-12 58 -68 121 -124 141 -124 165 -145 215 -188 22 -19 72 -62 110 -96 39 -35
225 -199 415 -365 190 -166 346 -306 348 -310 2 -4 -8 -20 -21 -36 l-24 -28
-109 85 c-60 47 -138 107 -174 134 -36 28 -72 55 -80 62 -8 7 -91 71 -185 144
-93 72 -213 164 -265 204 -52 41 -149 116 -215 168 -66 51 -125 96 -131 100
-8 5 -11 -33 -10 -134 l1 -140 35 -29 c19 -16 40 -30 46 -30 6 0 19 -9 29 -20
10 -11 24 -20 31 -20 7 0 14 -3 16 -7 2 -5 211 -147 466 -317 254 -169 462
-309 462 -311 0 -1 -22 -40 -48 -86 -80 -140 -152 -321 -180 -454 -5 -22 -14
-39 -19 -38 -6 1 -26 5 -45 8 -18 3 -40 8 -48 10 -8 2 -31 7 -50 10 -19 3 -42
8 -50 10 -8 2 -26 6 -40 9 -14 2 -106 21 -205 40 -99 20 -191 38 -205 41 -28
5 -124 24 -155 31 -11 2 -31 6 -45 9 -14 3 -59 12 -100 20 -87 18 -112 23
-160 31 -56 11 -63 12 -113 23 -30 7 -54 8 -65 2 -28 -15 -193 -189 -185 -194
5 -3 35 -8 68 -11 57 -6 80 -9 163 -20 20 -3 127 -17 237 -30 110 -14 232 -30
270 -35 39 -5 97 -13 130 -17 33 -3 67 -7 75 -9 8 -1 44 -6 80 -10 36 -4 72
-9 80 -10 8 -2 44 -6 80 -10 36 -4 72 -8 80 -10 9 -2 43 -6 75 -10 118 -13
116 -12 113 -57 l-2 -39 -85 5 c-48 3 -124 8 -171 11 -47 3 -110 7 -140 10
-30 2 -102 7 -160 10 -58 3 -131 8 -164 11 -32 2 -99 6 -150 9 -50 3 -111 7
-136 10 -25 2 -99 7 -165 11 -66 3 -133 7 -150 9 -16 2 -91 7 -166 10 l-137 7
-106 -106 c-58 -58 -106 -110 -106 -115 0 -5 47 -57 105 -115 91 -91 115 -110
145 -108 47 2 244 15 270 17 19 2 89 6 155 10 66 4 141 8 165 10 73 7 242 18
450 30 69 4 141 8 160 10 64 7 264 18 325 19 l59 1 3 -37 c4 -41 8 -39 -112
-54 -27 -3 -61 -7 -75 -9 -14 -2 -45 -6 -70 -9 -86 -10 -135 -16 -170 -21 -19
-3 -55 -7 -80 -10 -25 -3 -97 -12 -160 -20 -63 -9 -131 -18 -150 -20 -19 -2
-71 -9 -115 -15 -44 -5 -101 -12 -128 -15 -26 -3 -60 -7 -75 -9 -30 -5 -131
-19 -147 -21 -99 -10 -154 -18 -163 -24 -8 -5 23 -42 87 -104 80 -79 103 -97
122 -93 13 2 96 19 184 36 88 18 171 34 185 36 14 3 32 7 40 9 8 2 29 7 45 9
17 3 86 17 155 31 69 14 141 28 160 31 19 3 43 7 52 10 19 6 45 11 113 24 28
6 59 12 70 14 11 2 71 14 133 26 66 14 116 19 121 14 4 -5 18 -47 30 -94 13
-47 34 -114 48 -150 38 -96 131 -280 154 -305 5 -5 9 -12 9 -16 0 -4 -237
-166 -527 -359 -291 -194 -535 -359 -544 -366 -13 -12 -16 -38 -16 -144 0 -72
3 -133 7 -135 6 -4 86 48 100 65 3 4 68 55 145 114 77 59 147 112 155 119 8 7
56 44 105 82 163 125 608 469 644 498 10 9 19 5 37 -18 13 -17 23 -33 21 -36
-3 -8 -171 -156 -576 -509 -35 -30 -73 -64 -85 -75 -40 -35 -88 -78 -211 -185
-66 -58 -129 -113 -140 -123 -11 -11 -59 -53 -107 -95 -49 -42 -89 -81 -89
-86 -1 -6 -2 -79 -3 -162 l-1 -152 155 0 154 -1 46 47 c25 26 72 78 105 116
33 38 69 79 80 92 26 28 50 56 165 189 52 60 104 119 115 131 11 11 31 34 45
50 106 123 452 518 485 553 l41 43 29 -25 c27 -22 28 -26 15 -45 -20 -29 -722
-936 -729 -942 -14 -12 -151 -197 -151 -203 0 -4 60 -7 134 -7 l134 0 24 28
c12 16 178 261 367 545 l344 517 45 -26 c152 -89 333 -163 498 -204 l42 -10
-44 -218 c-24 -119 -53 -262 -64 -317 -11 -55 -23 -111 -25 -125 -3 -14 -12
-59 -20 -100 -8 -41 -17 -86 -20 -100 -3 -14 -17 -83 -31 -155 -14 -71 -28
-141 -31 -155 -2 -14 -8 -43 -13 -64 -5 -23 -5 -47 0 -55 5 -9 49 -56 98 -105
99 -97 96 -97 107 -1 4 28 8 61 10 75 2 14 6 45 10 70 3 25 8 61 10 80 3 19 7
55 10 80 3 25 7 61 10 80 3 19 8 55 10 79 2 24 7 60 9 80 8 59 15 113 21 160
3 23 7 55 9 70 3 14 8 51 11 81 3 30 8 66 10 80 2 14 6 52 10 85 4 32 9 68 11
79 2 10 6 44 9 75 3 31 7 67 9 81 2 14 7 46 11 73 6 45 8 47 33 43 15 -2 33
-5 40 -5 12 -1 11 -90 -3 -271 -3 -30 -7 -91 -10 -135 -3 -44 -7 -114 -10
-155 -3 -41 -7 -113 -10 -160 -3 -47 -8 -110 -10 -140 -3 -30 -7 -95 -10 -145
-11 -183 -16 -261 -20 -310 -7 -79 -18 -268 -17 -289 1 -10 50 -69 111 -129
l110 -111 111 109 c77 78 110 117 111 135 2 25 -7 195 -16 305 -11 142 -16
205 -20 290 -5 81 -8 130 -20 290 -2 28 -6 97 -10 155 -3 58 -8 134 -10 170
-3 36 -7 103 -10 150 -3 47 -8 119 -11 161 l-5 77 36 6 c21 4 39 6 41 3 2 -2
13 -73 24 -158 28 -208 29 -217 35 -274 4 -27 8 -61 10 -75 2 -14 7 -52 11
-85 3 -33 8 -69 10 -80 2 -11 6 -42 9 -70 9 -81 13 -108 45 -360 17 -132 33
-258 37 -280 3 -22 5 -48 5 -58 0 -9 3 -17 7 -17 4 0 51 45 105 99 78 80 96
103 92 122 -2 13 -16 83 -31 154 -15 72 -29 141 -31 155 -3 14 -30 149 -60
300 -31 151 -58 286 -60 300 -3 14 -16 79 -29 145 -13 66 -27 135 -30 154 -3
19 -8 38 -11 42 -4 8 18 17 61 25 104 19 335 112 449 183 38 23 72 38 76 34 4
-4 165 -245 358 -534 193 -289 357 -530 364 -537 15 -12 265 -14 273 -2 3 6
-402 541 -509 670 -6 9 -66 85 -131 170 -65 85 -121 157 -124 160 -10 9 -121
157 -121 162 0 2 14 14 30 27 l30 22 25 -27 c14 -15 43 -48 65 -74 22 -26 50
-58 62 -72 28 -30 63 -70 148 -168 36 -41 67 -77 70 -80 3 -3 160 -181 349
-397 189 -216 350 -394 359 -397 10 -2 83 -4 163 -4 l146 0 -1 160 -1 160 -40
35 c-22 20 -58 52 -80 72 -22 20 -74 66 -115 101 -41 36 -88 77 -105 92 -16
15 -39 35 -51 45 -97 84 -150 130 -164 143 -8 8 -47 42 -85 75 -38 33 -75 65
-81 70 -6 6 -42 37 -79 70 -38 33 -73 65 -79 70 -7 6 -45 39 -86 75 -41 35
-77 67 -80 70 -3 3 -41 37 -85 74 -44 38 -81 72 -82 75 -2 3 8 19 22 35 l24
28 96 -73 c164 -126 197 -151 310 -239 164 -128 226 -176 495 -383 135 -104
250 -193 256 -198 7 -6 11 34 12 130 l3 139 -38 29 c-21 16 -263 179 -538 362
-275 184 -504 337 -509 341 -4 5 5 28 21 52 35 52 133 250 133 270 0 8 4 18 8
23 8 9 35 98 61 201 l11 41 62 -14 c35 -7 77 -15 93 -18 39 -7 472 -93 505
-101 14 -3 36 -7 50 -10 14 -3 140 -28 280 -55 140 -28 264 -53 274 -55 14 -3
48 24 118 94 53 53 94 100 90 103 -4 4 -32 10 -62 13 -30 3 -89 11 -130 16
-41 5 -93 12 -115 15 -21 2 -75 9 -120 15 -44 6 -97 13 -117 15 -62 8 -121 16
-148 20 -14 2 -53 7 -88 10 -35 4 -72 8 -82 10 -10 2 -45 6 -77 10 -32 3 -69
8 -83 10 -14 2 -47 6 -75 10 -27 3 -63 8 -80 10 -16 2 -70 9 -120 15 -163 20
-156 18 -151 48 2 15 5 33 5 41 1 10 21 12 104 6 56 -4 129 -8 162 -10 33 -2
96 -6 140 -9 44 -3 116 -8 160 -11 44 -3 109 -8 145 -10 36 -3 108 -7 160 -11
322 -19 414 -25 458 -29 24 -2 99 -7 167 -11 l123 -6 113 111 113 112 -115
113 c-99 97 -118 112 -144 110 -34 -2 -198 -13 -290 -19 -109 -7 -239 -16
-305 -21 -36 -2 -99 -6 -140 -9 -41 -3 -112 -7 -158 -10 -46 -3 -116 -8 -155
-10 -40 -2 -106 -7 -147 -10 -41 -3 -104 -7 -140 -10 -232 -16 -250 -16 -251
-3 -1 7 -3 25 -5 41 -1 15 0 27 4 27 4 0 39 5 77 11 39 5 87 12 108 14 20 3
55 7 77 10 22 3 59 7 83 10 23 3 58 7 77 10 19 3 55 7 80 10 43 5 81 10 160
20 19 3 55 7 80 10 25 4 56 8 70 10 14 2 52 7 85 10 33 4 67 8 75 10 8 2 44 7
80 10 36 4 72 8 80 10 8 1 44 6 80 10 36 4 74 9 85 11 11 2 47 7 80 10 33 4
64 9 69 11 4 3 -36 50 -90 104 -90 90 -101 98 -129 93 -16 -3 -131 -25 -255
-50 -124 -25 -236 -48 -250 -50 -14 -3 -188 -37 -388 -77 l-362 -73 -10 41
c-41 166 -142 410 -210 504 -11 16 -20 31 -20 33 0 3 245 168 545 369 l544
364 -1 133 c-1 73 -5 135 -9 138 -5 2 -16 -2 -26 -10 -42 -34 -398 -311 -748
-581 -104 -80 -199 -154 -210 -163 -11 -9 -56 -44 -99 -76 l-78 -59 -23 29
c-14 16 -23 32 -22 35 1 3 76 70 167 150 91 79 167 146 170 149 3 3 57 50 120
105 63 55 120 104 126 110 23 21 152 134 244 214 52 46 113 100 136 120 22 20
69 61 104 91 36 30 83 73 106 95 l42 40 -2 155 -1 155 -150 1 c-82 1 -157 -2
-166 -7 -9 -4 -69 -69 -134 -144 -65 -74 -128 -146 -139 -158 -18 -20 -74 -84
-149 -171 -10 -12 -31 -35 -45 -51 -15 -17 -72 -82 -127 -145 -54 -63 -106
-122 -115 -131 -8 -9 -26 -29 -40 -45 -14 -16 -90 -103 -169 -194 -80 -91
-146 -167 -147 -168 -3 -5 -64 40 -64 47 0 3 55 76 121 161 66 85 132 171 147
190 15 19 76 98 135 175 59 77 118 154 131 170 13 17 97 125 186 240 89 116
167 215 172 221 6 9 -29 12 -130 13 -132 1 -139 0 -159 -21 -11 -13 -69 -97
-129 -188 -60 -91 -111 -167 -114 -170 -3 -3 -110 -164 -239 -357 -129 -194
-235 -353 -237 -353 -1 0 -31 17 -65 39 -137 82 -340 164 -484 194 -30 7 -33
17 -20 70 8 28 16 66 19 82 3 17 14 75 25 130 11 55 22 111 24 125 3 14 15 72
27 130 12 58 23 114 25 125 1 11 7 45 14 75 6 30 13 64 15 75 2 11 11 54 19
95 9 41 18 87 20 101 3 14 14 73 26 130 11 57 23 115 25 129 3 21 -13 42 -92
123 -53 53 -100 97 -104 97 -4 0 -6 -8 -6 -17 0 -10 -2 -37 -6 -60 -3 -24 -8
-60 -11 -80 -12 -102 -66 -522 -70 -553 -3 -19 -7 -57 -10 -85 -3 -27 -8 -61
-10 -75 -4 -27 -20 -155 -30 -235 -3 -27 -8 -63 -10 -80 -7 -44 -13 -92 -21
-159 -3 -33 -8 -67 -9 -75 -2 -9 -4 -22 -4 -29 -1 -8 -11 -11 -28 -8 -16 2
-34 5 -41 5 -10 1 -12 21 -7 89 12 202 20 314 30 457 2 39 7 113 10 165 3 52
7 120 10 150 2 30 7 96 10 145 8 131 15 242 20 305 8 102 18 275 17 295 -1 17
-207 234 -222 235 -3 0 -54 -49 -114 -109z"/>
</g>
</svg>
