<?xml version="1.0" encoding="UTF-8"?>
<svg id="Layer_1" data-name="Layer 1" xmlns="http://www.w3.org/2000/svg" viewBox="0 0 478.47 478.52">
  <defs>
    <style>
      .cls-1 {
        fill: #fdd512;
      }

      .cls-1, .cls-2 {
        stroke-width: 0px;
      }

      .cls-2 {
        fill: #0035a9;
      }
    </style>
  </defs>
  <path class="cls-2" d="M231.05,0c5.61,0,11.23,0,16.84,0,2.12.36,4.24.77,6.38,1.08,13.97,2.05,28.23,2.93,41.87,6.3,126.07,31.14,203.87,155.31,177.04,281.89-26.23,123.76-144.85,205.77-270.18,186.43-50.92-7.86-94.99-30.08-131.54-66.46C31.54,369.51,8.2,321.56,2,265.44,1.36,259.59.67,253.74,0,247.89c0-5.61,0-11.23,0-16.84.37-2.28.79-4.56,1.09-6.86,1.41-10.93,2.02-22.03,4.31-32.77,13.37-62.67,46.52-112.45,99.08-149.05C137.13,19.63,173.45,6.29,213.06,2.04c6-.64,12-1.36,18-2.04ZM214.84,291.26c-1.46-1.33-2.17-1.92-2.82-2.57-16.75-16.75-33.47-33.54-50.26-50.26-7.05-7.02-14.15-6.96-21.26.04-4.67,4.59-9.3,9.21-13.89,13.89-6.71,6.83-6.79,14.1,0,20.9,33.58,33.66,67.2,67.28,100.86,100.85,6.64,6.62,17.21,6.58,23.96.08,4.38-4.22,8.62-8.57,12.92-12.87,29.1-29.1,58.21-58.19,87.29-87.31,7.53-7.54,7.65-14.59.46-21.93-4.26-4.34-8.57-8.62-12.89-12.9-8.12-8.04-14.76-8-22.94.17-16.1,16.08-32.19,32.19-48.28,48.27-1.05,1.05-2.17,2.02-3.87,3.6v-5.84c0-56.59,0-113.17,0-169.76,0-10.29-5.14-15.48-15.46-15.59-5.77-.06-11.55.21-17.3-.06-9.6-.45-16.72,4.97-16.65,16.47.32,56.27.15,112.55.15,168.82,0,1.68,0,3.37,0,6.01Z"/>
  <path class="cls-1" d="M214.84,291.26c0-2.64,0-4.32,0-6.01,0-56.27.18-112.55-.15-168.82-.07-11.5,7.05-16.92,16.65-16.47,5.75.27,11.53,0,17.3.06,10.32.11,15.46,5.31,15.46,15.59,0,56.59,0,113.17,0,169.76v5.84c1.7-1.58,2.82-2.55,3.87-3.6,16.1-16.09,32.18-32.19,48.28-48.27,8.18-8.17,14.82-8.21,22.94-.17,4.32,4.28,8.63,8.56,12.89,12.9,7.19,7.33,7.07,14.39-.46,21.93-29.08,29.12-58.19,58.21-87.29,87.31-4.3,4.3-8.54,8.65-12.92,12.87-6.75,6.5-17.32,6.54-23.96-.08-33.66-33.58-67.28-67.2-100.86-100.85-6.79-6.8-6.7-14.07,0-20.9,4.59-4.67,9.22-9.29,13.89-13.89,7.11-6.99,14.21-7.06,21.26-.04,16.79,16.72,33.51,33.51,50.26,50.26.65.65,1.36,1.24,2.82,2.57Z"/>
</svg>