<?xml version="1.0" encoding="UTF-8"?>
<svg id="Layer_1" data-name="Layer 1" xmlns="http://www.w3.org/2000/svg" viewBox="0 0 328.87 424.17">
  <defs>
    <style>
      .cls-1 {
        fill: #fdd512;
        stroke: #fdd512;
        stroke-miterlimit: 10;
      }
    </style>
  </defs>
  <path class="cls-1" d="M165.2,105.7c10.65-10.98,20.85-21.72,31.31-32.21,20.17-20.23,40.46-40.32,60.74-60.44,12.56-12.46,30.52-15.95,46.27-9.07,15.75,6.88,25.53,22.49,24.81,40.08-.43,10.51-4.45,19.65-11.88,27.09-46.72,46.79-93.48,93.54-140.26,140.26-7.37,7.36-15.99,7.36-23.34.02C106.08,164.7,59.29,117.98,12.61,71.15c-16.2-16.25-16.04-42.13.05-58.36,16.13-16.27,42.23-16.43,58.73-.11,29.85,29.52,59.57,59.16,89.35,88.74,1.11,1.1,2.26,2.16,4.47,4.28Z"/>
  <path class="cls-1" d="M164.57,314c2.12-2.87,3.07-4.56,4.4-5.89,29.43-29.5,58.89-58.99,88.38-88.43,12.5-12.47,30.48-15.87,46.3-8.92,15.59,6.85,25.28,22.28,24.69,39.71-.35,10.34-4.07,19.49-11.38,26.82-47.05,47.17-94.16,94.26-141.31,141.33-6.78,6.77-15.53,6.73-22.29,0-47.14-47.07-94.31-94.11-141.29-141.35-15.88-15.97-15.25-42.02.84-57.99,16.12-16.01,42.1-16.1,58.39.09,29.67,29.49,59.2,59.13,88.75,88.74,1.33,1.33,2.31,3,4.52,5.91Z"/>
</svg>