<?xml version="1.0" encoding="UTF-8"?>
<svg id="Layer_1" data-name="Layer 1" xmlns="http://www.w3.org/2000/svg" viewBox="0 0 473.44 473.33">
  <defs>
    <style>
      .cls-1 {
        fill: #0035a9;
        stroke-width: 0px;
      }
    </style>
  </defs>
  <path class="cls-1" d="M.08,231.18C3.54,100.07,112.13-3.4,242.61.09c130.27,3.47,234.14,112.04,230.75,241.16-3.46,131.6-111.79,235.59-241.68,231.99C100.14,469.6-3.35,361.43.08,231.18ZM207.05,219.8c0,3.34,0,5.36,0,7.38,0,31.19-.02,62.39.03,93.58,0,3.45.15,6.95.73,10.35,2.12,12.51,13.18,22.51,25.8,23.56,18.69,1.57,32.62-11.5,32.72-31.16.16-32.16.04-64.31.06-96.47,0-2,.18-4,.32-6.97,2.14,2,3.53,3.23,4.84,4.53,10.91,10.88,21.69,21.89,32.72,32.64,12.23,11.91,30.32,11.94,42.01.34,11.45-11.36,11.91-29.7.2-41.56-29.48-29.88-59.17-59.57-89.05-89.05-12.05-11.88-29.5-11.8-41.52.07-29.73,29.37-59.28,58.92-88.66,88.63-12.01,12.14-11.72,30.35-.03,41.98,11.59,11.54,29.72,11.45,42.02-.49,10.91-10.6,21.55-21.48,32.32-32.23,1.43-1.43,2.95-2.77,5.5-5.15Z"/>
</svg>