<?xml version="1.0" encoding="UTF-8"?>
<svg id="Layer_1" data-name="Layer 1" xmlns="http://www.w3.org/2000/svg" viewBox="0 0 313.81 313.72">
  <defs>
    <style>
      .cls-1 {
        fill: none;
        stroke: #fff;
        stroke-miterlimit: 10;
        stroke-width: 1.02px;
      }

      .cls-2 {
        fill: #0038a8;
      }

      .cls-2, .cls-3, .cls-4 {
        stroke-width: 0px;
      }

      .cls-3 {
        fill: #ce1126;
      }

      .cls-4 {
        fill: #fcd20f;
      }
    </style>
  </defs>
  <g>
    <path class="cls-2" d="M198.1,95.43l-.05-.12c.23-.32.42-.57.6-.85,10.55-15.8,21.11-31.59,31.65-47.4.41-.6.82-.83,1.55-.82,3.24.05,6.51.04,9.75.05h.81c-13.47,17.4-26.84,34.67-40.24,51.96,1.21.99,2.35,1.94,3.56,2.94.21-.21.41-.41.58-.61,15.61-17.8,31.22-35.59,46.81-53.4.55-.63,1.09-.89,1.93-.88,3.82.04,7.63.02,11.45.02h.91v.97c0,3.89-.02,7.79.01,11.68,0,.61-.17,1.02-.64,1.43-17.79,15.57-35.56,31.17-53.33,46.75-.3.27-.58.54-.91.84.99,1.21,1.93,2.35,2.94,3.57,17.28-13.4,34.55-26.75,51.88-40.18.03.26.07.42.08.57.01,3.41.01,6.82.05,10.22.01.57-.25.86-.69,1.15-15.8,10.55-31.6,21.1-47.4,31.66-.31.2-.61.43-.95.67.12.23.21.4.32.57,5.16,7.84,8.67,16.36,10.58,25.53.13.61.38.67.88.57,9.8-1.96,19.6-3.93,29.41-5.88,9.01-1.79,18.01-3.58,27.02-5.38.56-.11.93.01,1.33.42,2.29,2.35,4.62,4.67,6.93,7,.17.17.34.36.59.64-1.51.19-2.89.38-4.27.55-4.26.55-8.51,1.09-12.77,1.63-3.84.49-7.66.96-11.49,1.45-3.81.48-7.6.99-11.41,1.47s-7.61.94-11.42,1.42c-4.41.56-8.81,1.12-13.22,1.7-.21.03-.56.35-.55.5.09,1.37.26,2.73.41,4.18,1.53-.08,3.02-.16,4.51-.26,2.79-.18,5.58-.37,8.37-.56,3.58-.24,7.15-.48,10.73-.73,2.54-.16,5.08-.32,7.61-.49,3.67-.24,7.36-.49,11.03-.73,2.54-.17,5.08-.33,7.61-.49,3.67-.25,7.36-.49,11.03-.74,3.86-.25,7.72-.49,11.57-.73.21-.01.5.12.65.28,3.03,2.99,6.04,5.99,9.05,8.98.05.05.08.12.18.26-.15.17-.3.37-.47.54-2.89,2.87-5.76,5.75-8.68,8.6-.23.23-.65.37-.98.35-2.66-.14-5.32-.34-7.99-.51-3.57-.24-7.15-.48-10.72-.72-3.43-.23-6.86-.43-10.27-.65-3.61-.24-7.21-.48-10.82-.72-3.37-.23-6.74-.44-10.12-.65-3.6-.25-7.2-.49-10.81-.73-2.69-.17-5.38-.34-8.07-.5-1.11-.07-2.22-.14-3.43-.21-.11,1.08-.21,2.11-.32,3.13-.02.26-.02.51-.08.76-.15.57.07.76.62.83,6.3.79,12.6,1.61,18.9,2.4,5.01.63,10.03,1.25,15.04,1.88,4.96.63,9.93,1.29,14.89,1.92,4.18.53,8.36,1.04,12.55,1.58,1,.12,2,.27,3.13.41-.28.3-.44.48-.61.65-2.31,2.32-4.64,4.65-6.93,7-.41.41-.78.52-1.33.41-5.67-1.15-11.34-2.28-17.02-3.41-8.83-1.77-17.66-3.53-26.49-5.28-4.24-.85-8.47-1.67-12.7-2.53-.21-.04-.39-.07-.54-.06-.13.01-.25.05-.34.14h-.01s-113.78,46.72-113.78,46.72l-.03.17c-.25.35-.45.63-.64.92-10.53,15.76-21.06,31.51-31.57,47.28-.41.61-.82.88-1.59.87-3.25-.06-6.51-.04-9.76-.06-.19,0-.4-.01-.76-.03,13.45-17.37,26.81-34.63,40.21-51.93-1.21-.99-2.36-1.94-3.57-2.95-.81.91-1.59,1.78-2.34,2.65-15.05,17.16-30.11,34.32-45.15,51.5-.47.54-.95.76-1.68.76-3.87-.04-7.74-.02-11.6-.02h-.9v-.9c0-3.95.01-7.89-.01-11.84,0-.56.17-.92.59-1.29,17.86-15.65,35.7-31.3,53.56-46.96.23-.2.45-.4.75-.67-.98-1.2-1.94-2.36-2.95-3.59-17.28,13.4-34.55,26.75-51.88,40.18-.04-.26-.08-.41-.08-.57-.02-3.41-.02-6.82-.05-10.22-.01-.57.25-.85.69-1.15,13.9-9.27,27.79-18.55,41.68-27.83,2-1.33,3.98-2.66,5.97-3.99.23-.15.45-.32.7-.5-.1-.18-.16-.35-.26-.49-5.19-7.86-8.71-16.4-10.64-25.6-.12-.59-.36-.68-.87-.57-9.8,1.96-19.62,3.93-29.42,5.88-8.96,1.79-17.93,3.56-26.88,5.36-.64.13-1.05,0-1.51-.48-2.34-2.4-4.73-4.77-7.09-7.15-.09-.09-.16-.18-.35-.39.69-.1,1.26-.2,1.84-.28,3.9-.5,7.81-1,11.72-1.49,4.18-.53,8.36-1.04,12.55-1.58,4.21-.54,8.41-1.08,12.62-1.63,3.43-.43,6.86-.85,10.28-1.28,4.18-.53,8.36-1.08,12.54-1.62,1.01-.13,2.03-.23,3.03-.39.2-.04.55-.34.54-.5-.1-1.36-.27-2.72-.42-4.18-1.48.09-2.92.16-4.36.26-2.71.17-5.43.37-8.15.55-4.39.3-8.78.58-13.17.87-3.4.23-6.79.44-10.19.65l-10.96.74c-2.54.16-5.08.32-7.61.49-3.68.24-7.36.49-11.04.73-2.33.15-4.67.32-7,.45-.17.01-.42-.07-.54-.19-3.08-3.11-6.15-6.22-9.28-9.4.1-.12.26-.32.42-.49,2.89-2.87,5.77-5.74,8.68-8.6.21-.21.6-.38.91-.36,2.76.15,5.53.35,8.29.53,4.37.29,8.73.58,13.1.87,2.61.16,5.22.33,7.84.5,3.6.24,7.2.48,10.81.72,3.38.23,6.75.44,10.12.65,4.37.29,8.73.59,13.1.87,2.99.19,5.98.38,9.05.56.15-1.44.32-2.82.42-4.21.01-.15-.31-.44-.5-.47-2.42-.34-4.83-.63-7.26-.94-3.45-.44-6.9-.87-10.35-1.31-3.43-.43-6.86-.86-10.28-1.3-4.19-.53-8.36-1.07-12.55-1.61-3.42-.44-6.86-.86-10.27-1.29-3.79-.48-7.56-.98-11.34-1.46-.82-.1-1.64-.2-2.57-.32.19-.24.3-.37.42-.49,2.4-2.43,4.81-4.84,7.2-7.27.32-.33.6-.42,1.05-.33,5.73,1.15,11.45,2.28,17.18,3.42,10.46,2.08,20.91,4.15,31.36,6.23,2.66.53,5.33,1.06,7.99,1.61.25.05.43.07.57.01l.02.04,113.99-46.93Z"/>
    <path class="cls-3" d="M266.69,230.26c.57.38.81.77.8,1.46-.05,3.23-.04,6.46-.05,9.69v.93c-17.41-13.48-34.67-26.84-51.96-40.24-1,1.22-1.95,2.37-2.94,3.57.26.24.47.45.7.64,17.79,15.61,35.58,31.21,53.39,46.8.6.52.82,1.04.81,1.82-.04,3.79-.01,7.58-.01,11.37v1.04h-.92c-3.92,0-7.84-.01-11.76.02-.61,0-1.01-.2-1.42-.67-15.63-17.84-31.26-35.67-46.9-53.5-.2-.24-.41-.45-.67-.75-1.21.99-2.36,1.94-3.58,2.95,13.4,17.29,26.75,34.56,40.19,51.9-.31.03-.49.06-.68.06-3.31.02-6.61.01-9.92.05-.67.01-1.04-.19-1.42-.75-10.52-15.78-21.06-31.55-31.59-47.32-.21-.32-.44-.62-.69-.97-.26.14-.47.27-.68.4-7.81,5.11-16.29,8.6-25.42,10.51-.59.12-.69.35-.58.86,1.87,9.3,3.74,18.61,5.59,27.92,1.89,9.51,3.78,19.01,5.69,28.52.1.56-.01.92-.43,1.33-2.34,2.29-4.67,4.62-6.99,6.93-.17.17-.36.34-.64.59-.14-1.09-.29-2.07-.41-3.05-.55-4.31-1.11-8.61-1.65-12.91-.53-4.19-1.04-8.37-1.58-12.56-.48-3.81-.98-7.6-1.46-11.41-.48-3.78-.95-7.56-1.43-11.34-.48-3.81-.97-7.6-1.46-11.41-.08-.65-.12-1.32-.26-1.96-.03-.19-.32-.5-.47-.49-1.37.1-2.73.27-4.19.42.08,1.51.15,3.01.26,4.49.17,2.69.37,5.38.54,8.07.26,3.67.5,7.36.74,11.03.23,3.38.43,6.75.64,10.12.24,3.61.49,7.21.73,10.82.17,2.56.33,5.13.49,7.69.25,3.65.49,7.31.74,10.96.2,3.09.41,6.19.59,9.28.01.2-.09.46-.23.6-3.03,3.06-6.07,6.1-9.1,9.15-.05.05-.13.07-.3.15-1.07-1.08-2.16-2.18-3.25-3.27-1.91-1.93-3.83-3.88-5.76-5.79-.36-.36-.45-.7-.41-1.21.21-2.66.36-5.33.53-7.99.24-3.57.48-7.15.72-10.73.23-3.47.44-6.95.67-10.43.23-3.5.47-7,.71-10.5.17-2.66.34-5.33.51-7.99.24-3.55.48-7.1.72-10.65.17-2.69.34-5.38.51-8.07.11-1.87.24-3.75.37-5.73-1.12-.1-2.16-.23-3.21-.31-1.37-.11-1.41-.1-1.6,1.29-.5,3.78-.96,7.55-1.44,11.34-.48,3.8-.97,7.6-1.45,11.41-.43,3.4-.86,6.79-1.29,10.2-.44,3.4-.87,6.79-1.31,10.2-.43,3.4-.86,6.8-1.29,10.2-.42,3.33-.84,6.65-1.26,9.98-.01.09-.07.18-.14.35-.21-.19-.4-.36-.57-.53-2.32-2.31-4.65-4.64-6.99-6.93-.41-.4-.54-.76-.43-1.33,1.16-5.69,2.28-11.39,3.42-17.09,1.76-8.84,3.52-17.67,5.28-26.51.84-4.23,1.68-8.46,2.54-12.69.12-.59.09-.88-.62-1.03-8.79-1.83-16.99-5.16-24.57-9.99-.46-.3-.93-.58-1.43-.91l.03-.17,113.78-46.71c-.1.11-.17.3-.24.58-1.9,9.16-5.44,17.64-10.59,25.45-.09.15-.15.32-.26.51.32.21.59.42.89.61,15.78,10.55,31.55,21.09,47.34,31.62Z"/>
    <path class="cls-4" d="M198.04,95.3l.05.12-113.99,46.93-.02-.04c.17-.07.28-.25.35-.59,1.92-9.21,5.46-17.74,10.64-25.6.08-.12.14-.27.26-.46-.26-.18-.49-.36-.74-.52-15.8-10.56-31.59-21.11-47.4-31.65-.68-.45-.92-.91-.91-1.72.05-3.41.02-6.82.02-10.48,17.43,13.5,34.69,26.86,52,40.27.98-1.19,1.92-2.33,3.06-3.7-.24-.13-.51-.25-.72-.42-17.86-15.66-35.7-31.31-53.56-46.95-.53-.46-.75-.91-.74-1.62.03-3.87.01-7.74.01-11.6v-.94h.93c3.92,0,7.84.01,11.77-.01.58-.01.97.16,1.36.6,11.75,13.43,23.52,26.84,35.27,40.25,3.95,4.5,7.89,8.99,11.83,13.49.15.17.32.33.52.54,1.18-.97,2.32-1.91,3.56-2.93-13.38-17.29-26.75-34.56-40.2-51.92.33-.02.52-.05.72-.05,3.27-.01,6.55,0,9.83-.04.68-.01,1.09.17,1.48.77,10.5,15.75,21.02,31.48,31.53,47.21.23.34.46.67.71,1.03.18-.08.36-.13.49-.23,7.86-5.19,16.39-8.72,25.6-10.64.63-.13.71-.38.59-.92-3.39-16.97-6.77-33.94-10.15-50.92-.39-1.91-.76-3.83-1.12-5.75-.04-.24.02-.58.17-.74,2.54-2.57,5.11-5.11,7.67-7.65.03-.03.09-.03.23-.07.14.98.28,1.95.41,2.93.6,4.74,1.21,9.47,1.81,14.2.62,5.01,1.24,10.03,1.88,15.04.69,5.39,1.39,10.79,2.09,16.17.63,4.99,1.26,9.98,1.86,14.97.21,1.76.18,1.77,1.93,1.61.93-.09,1.87-.19,2.92-.3-.08-1.51-.15-3.01-.26-4.49-.17-2.71-.37-5.42-.55-8.15-.25-3.65-.49-7.31-.73-10.96-.17-2.54-.33-5.08-.49-7.61-.25-3.67-.49-7.36-.74-11.03-.21-3.35-.42-6.7-.64-10.05-.24-3.63-.48-7.26-.73-10.89-.2-3.09-.41-6.18-.59-9.28-.01-.19.07-.46.21-.6,3.04-3.07,6.1-6.13,9.16-9.2.03-.03.09-.03.2-.08.15.14.35.3.52.47,2.86,2.87,5.72,5.73,8.54,8.62.25.25.39.71.37,1.05-.14,2.69-.33,5.38-.51,8.06-.24,3.58-.48,7.15-.71,10.73-.23,3.48-.44,6.95-.67,10.43-.24,3.5-.48,7-.71,10.5-.18,2.69-.34,5.38-.52,8.07-.23,3.53-.47,7.05-.71,10.58-.17,2.64-.34,5.28-.5,7.92-.11,1.77-.23,3.55-.33,5.32-.01.17,0,.35,0,.57,1.43.15,2.81.32,4.2.42.14.01.41-.29.43-.47.39-2.87.75-5.74,1.11-8.61.48-3.81.97-7.61,1.45-11.42.43-3.4.87-6.79,1.3-10.2.44-3.43.88-6.85,1.31-10.27.43-3.41.86-6.8,1.29-10.2.47-3.76.95-7.51,1.43-11.27.1-.85.23-1.7.36-2.68.26.23.42.36.57.5,2.36,2.35,4.72,4.72,7.1,7.04.4.4.48.76.38,1.27-1.3,6.49-2.6,12.99-3.89,19.48-1.76,8.81-3.51,17.62-5.26,26.43-.69,3.46-1.38,6.92-2.06,10.38-.06.27-.08.54-.13.88,4.82.98,9.45,2.37,13.94,4.24,4.47,1.85,8.71,4.14,12.79,6.85Z"/>
  </g>
  <g>
    <path class="cls-1" d="M229.55,171.47c.09-.09.2-.13.34-.14.15-.01.33.02.54.06,4.23.86,8.46,1.68,12.7,2.53,8.83,1.75,17.66,3.51,26.49,5.28,5.68,1.13,11.35,2.26,17.02,3.41.55.11.92,0,1.33-.41,2.29-2.35,4.62-4.68,6.93-7,.17-.17.34-.36.61-.65-1.14-.14-2.13-.29-3.13-.41-4.19-.53-8.37-1.04-12.55-1.58-4.96-.63-9.93-1.29-14.89-1.92-5.01-.63-10.03-1.25-15.04-1.88-6.3-.8-12.6-1.62-18.9-2.4-.55-.07-.78-.26-.62-.83.06-.25.06-.5.08-.76.1-1.02.2-2.05.32-3.13,1.21.07,2.32.14,3.43.21,2.69.16,5.38.33,8.07.5,3.6.24,7.2.48,10.81.73,3.38.21,6.75.43,10.12.65,3.6.24,7.2.48,10.82.72,3.42.23,6.85.43,10.27.65,3.57.24,7.15.48,10.72.72,2.67.17,5.33.37,7.99.51.33.02.76-.12.98-.35,2.92-2.84,5.79-5.73,8.68-8.6.17-.17.32-.37.47-.54-.1-.13-.13-.2-.18-.26-3.01-3-6.02-6-9.05-8.98-.15-.15-.44-.29-.65-.28-3.86.24-7.72.48-11.57.73-3.67.25-7.36.49-11.03.74-2.54.16-5.08.32-7.61.49-3.67.24-7.36.49-11.03.73-2.54.17-5.08.33-7.61.49-3.58.25-7.15.49-10.73.73-2.79.19-5.58.38-8.37.56-1.49.09-2.98.17-4.51.26-.15-1.44-.32-2.8-.41-4.18-.01-.15.34-.47.55-.5,4.41-.58,8.81-1.14,13.22-1.7,3.81-.48,7.61-.94,11.42-1.42s7.6-.99,11.41-1.47c3.83-.49,7.65-.96,11.49-1.45,4.26-.53,8.51-1.07,12.77-1.63,1.38-.17,2.75-.36,4.27-.55-.26-.29-.42-.47-.59-.64-2.31-2.33-4.64-4.65-6.93-7-.4-.41-.77-.53-1.33-.42-9.01,1.8-18.01,3.59-27.02,5.38-9.81,1.95-19.61,3.92-29.41,5.88-.5.09-.75.04-.88-.57-1.91-9.17-5.42-17.69-10.58-25.53-.1-.17-.19-.35-.32-.57.34-.24.64-.46.95-.67,15.8-10.56,31.6-21.11,47.4-31.66.44-.29.7-.57.69-1.15-.04-3.41-.04-6.82-.05-10.22-.01-.15-.05-.32-.08-.57-17.33,13.43-34.6,26.78-51.88,40.18-1-1.22-1.94-2.36-2.94-3.57.33-.3.61-.57.91-.84,17.77-15.58,35.55-31.18,53.33-46.75.47-.41.64-.82.64-1.43-.03-3.89-.01-7.79-.01-11.68v-.97h-.91c-3.82,0-7.63.02-11.45-.02-.84-.01-1.38.25-1.93.88-15.58,17.81-31.2,35.6-46.81,53.4-.17.2-.37.4-.58.61-1.21-.99-2.35-1.94-3.56-2.94,13.4-17.29,26.77-34.57,40.24-51.96h-.81c-3.24-.01-6.51,0-9.75-.05-.73-.01-1.14.21-1.55.82-10.54,15.81-21.1,31.6-31.65,47.4-.18.28-.38.53-.6.85-4.08-2.7-8.32-4.99-12.79-6.85-4.49-1.86-9.12-3.25-13.94-4.24.05-.34.07-.61.13-.88.68-3.46,1.37-6.92,2.06-10.38,1.75-8.81,3.5-17.62,5.26-26.43,1.29-6.5,2.59-13,3.89-19.48.1-.51.02-.87-.38-1.27-2.38-2.32-4.74-4.69-7.1-7.04-.15-.14-.32-.28-.57-.5-.13.98-.26,1.83-.36,2.68-.48,3.76-.96,7.51-1.43,11.27-.43,3.4-.86,6.79-1.29,10.2-.43,3.43-.87,6.85-1.31,10.27-.43,3.41-.87,6.8-1.3,10.2-.48,3.81-.97,7.61-1.45,11.42-.36,2.87-.72,5.74-1.11,8.61-.02.18-.29.48-.43.47-1.38-.1-2.76-.27-4.2-.42,0-.23-.01-.4,0-.57.1-1.77.21-3.55.33-5.32.16-2.64.33-5.28.5-7.92.24-3.53.48-7.05.71-10.58.18-2.69.34-5.38.52-8.07.23-3.5.47-7,.71-10.5.23-3.48.44-6.95.67-10.43.23-3.58.47-7.15.71-10.73.18-2.68.37-5.37.51-8.06.02-.35-.12-.81-.37-1.05-2.82-2.89-5.69-5.75-8.54-8.62-.17-.17-.37-.33-.52-.47-.11.05-.17.05-.2.08-3.06,3.07-6.12,6.13-9.16,9.2-.14.14-.23.41-.21.6.18,3.1.39,6.19.59,9.28.25,3.63.49,7.26.73,10.89.23,3.35.43,6.7.64,10.05.25,3.67.49,7.36.74,11.03.16,2.54.32,5.08.49,7.61.24,3.65.48,7.31.73,10.96.18,2.72.38,5.43.55,8.15.1,1.48.17,2.98.26,4.49-1.04.1-1.99.2-2.92.3-1.75.16-1.72.15-1.93-1.61-.6-4.99-1.23-9.98-1.86-14.97-.7-5.38-1.4-10.78-2.09-16.17-.64-5.01-1.26-10.03-1.88-15.04-.6-4.74-1.21-9.47-1.81-14.2-.13-.97-.27-1.94-.41-2.93-.13.04-.19.04-.23.07-2.57,2.55-5.14,5.09-7.67,7.65-.15.15-.21.5-.17.74.36,1.92.73,3.84,1.12,5.75,3.38,16.98,6.76,33.95,10.15,50.92.11.54.04.79-.59.92-9.21,1.92-17.74,5.45-25.6,10.64-.13.09-.31.14-.49.23-.25-.37-.48-.7-.71-1.03-10.51-15.73-21.03-31.46-31.53-47.21-.39-.59-.81-.78-1.48-.77-3.28.04-6.56.03-9.83.04-.19,0-.39.03-.72.05,13.45,17.37,26.81,34.63,40.2,51.92-1.24,1.01-2.38,1.95-3.56,2.93-.2-.21-.37-.37-.52-.54-3.94-4.49-7.88-8.98-11.83-13.49-11.76-13.41-23.53-26.82-35.27-40.25-.39-.44-.78-.61-1.36-.6-3.93.02-7.85.01-11.77.01h-.93v.94c0,3.87.02,7.74-.01,11.6-.01.71.2,1.16.74,1.62,17.86,15.64,35.7,31.29,53.56,46.95.2.17.48.29.72.42-1.14,1.37-2.08,2.52-3.06,3.7-17.31-13.41-34.58-26.77-52-40.27,0,3.66.03,7.07-.02,10.48-.01.81.24,1.27.91,1.72,15.81,10.54,31.6,21.09,47.4,31.65.25.16.48.34.74.52-.11.19-.17.34-.26.46-5.18,7.86-8.72,16.39-10.64,25.6-.07.35-.17.52-.35.59-.14.06-.33.04-.57-.01-2.66-.54-5.33-1.07-7.99-1.61-10.46-2.08-20.91-4.15-31.36-6.23-5.73-1.14-11.45-2.27-17.18-3.42-.45-.09-.74,0-1.05.33-2.39,2.43-4.8,4.84-7.2,7.27-.12.12-.23.26-.42.49.93.11,1.75.21,2.57.32,3.78.48,7.55.98,11.34,1.46,3.42.43,6.86.85,10.27,1.29,4.19.53,8.36,1.07,12.55,1.61,3.43.44,6.86.87,10.28,1.3,3.45.44,6.9.87,10.35,1.31,2.43.31,4.84.6,7.26.94.19.03.51.32.5.47-.1,1.38-.27,2.76-.42,4.21-3.07-.18-6.06-.37-9.05-.56-4.37-.28-8.73-.58-13.1-.87-3.37-.21-6.74-.43-10.12-.65-3.6-.24-7.2-.48-10.81-.72-2.62-.17-5.23-.34-7.84-.5-4.37-.29-8.73-.58-13.1-.87-2.76-.18-5.53-.38-8.29-.53-.31-.02-.7.14-.91.36-2.91,2.86-5.79,5.73-8.68,8.6-.16.17-.32.37-.42.49,3.13,3.18,6.2,6.29,9.28,9.4.12.12.37.2.54.19,2.33-.13,4.67-.3,7-.45,3.68-.24,7.36-.49,11.04-.73,2.54-.17,5.08-.33,7.61-.49l10.96-.74c3.4-.21,6.79-.43,10.19-.65,4.39-.29,8.78-.57,13.17-.87,2.71-.18,5.43-.38,8.15-.55,1.44-.09,2.88-.16,4.36-.26.15,1.45.32,2.81.42,4.18.01.16-.34.46-.54.5-1,.16-2.02.26-3.03.39-4.18.53-8.36,1.08-12.54,1.62-3.43.43-6.86.85-10.28,1.28-4.21.54-8.41,1.08-12.62,1.63-4.19.53-8.37,1.04-12.55,1.58-3.91.49-7.82.99-11.72,1.49-.58.07-1.16.17-1.84.28.18.2.26.3.35.39,2.36,2.38,4.75,4.75,7.09,7.15.46.48.87.61,1.51.48,8.95-1.8,17.92-3.57,26.88-5.36,9.8-1.95,19.62-3.92,29.42-5.88.51-.1.75-.02.87.57,1.93,9.2,5.45,17.74,10.64,25.6.09.14.15.31.26.49-.25.18-.47.35-.7.5-1.99,1.33-3.97,2.66-5.97,3.99-13.89,9.28-27.78,18.56-41.68,27.83-.44.3-.7.57-.69,1.15.03,3.41.03,6.82.05,10.22,0,.16.04.32.08.57,17.33-13.43,34.6-26.78,51.88-40.18,1,1.23,1.96,2.39,2.95,3.59-.3.27-.52.46-.75.67-17.86,15.66-35.7,31.31-53.56,46.96-.42.37-.59.73-.59,1.29.02,3.95.01,7.89.01,11.84v.9h.9c3.87,0,7.74-.02,11.6.02.73,0,1.21-.21,1.68-.76,15.04-17.18,30.1-34.34,45.15-51.5.76-.87,1.53-1.74,2.34-2.65,1.21,1,2.36,1.95,3.57,2.95-13.4,17.3-26.76,34.57-40.21,51.93.36.02.56.03.76.03,3.25.02,6.51,0,9.76.06.77.01,1.18-.26,1.59-.87,10.51-15.77,21.04-31.52,31.57-47.28.19-.29.4-.57.64-.92.5.33.97.61,1.43.91,7.58,4.83,15.78,8.16,24.57,9.99.72.15.75.44.62,1.03-.86,4.23-1.7,8.46-2.54,12.69-1.76,8.84-3.52,17.67-5.28,26.51-1.14,5.7-2.26,11.4-3.42,17.09-.11.57.02.93.43,1.33,2.34,2.29,4.67,4.62,6.99,6.93.17.17.36.34.57.53.07-.16.13-.26.14-.35.42-3.33.84-6.65,1.26-9.98.43-3.4.86-6.8,1.29-10.2.44-3.41.87-6.8,1.31-10.2.43-3.41.86-6.8,1.29-10.2.48-3.81.97-7.61,1.45-11.41.48-3.79.94-7.56,1.44-11.34.18-1.39.23-1.4,1.6-1.29,1.05.08,2.1.2,3.21.31-.13,1.99-.26,3.86-.37,5.73-.17,2.69-.34,5.38-.51,8.07-.24,3.55-.48,7.1-.72,10.65-.17,2.66-.34,5.33-.51,7.99-.24,3.5-.48,7-.71,10.5-.23,3.48-.44,6.96-.67,10.43-.24,3.58-.48,7.16-.72,10.73-.17,2.66-.32,5.33-.53,7.99-.04.51.05.85.41,1.21,1.93,1.91,3.85,3.86,5.76,5.79,1.09,1.09,2.18,2.19,3.25,3.27.16-.08.25-.1.3-.15,3.03-3.05,6.07-6.09,9.1-9.15.13-.14.24-.4.23-.6-.18-3.09-.39-6.19-.59-9.28-.25-3.65-.49-7.31-.74-10.96-.16-2.56-.32-5.13-.49-7.69-.24-3.6-.49-7.2-.73-10.82-.21-3.37-.42-6.74-.64-10.12-.24-3.67-.48-7.36-.74-11.03-.17-2.69-.37-5.38-.54-8.07-.1-1.48-.17-2.98-.26-4.49,1.45-.15,2.81-.32,4.19-.42.15-.01.44.3.47.49.13.64.17,1.31.26,1.96.49,3.81.98,7.6,1.46,11.41.48,3.78.95,7.56,1.43,11.34.48,3.81.98,7.6,1.46,11.41.53,4.19,1.04,8.37,1.58,12.56.54,4.31,1.09,8.61,1.65,12.91.12.98.27,1.95.41,3.05.29-.26.47-.42.64-.59,2.32-2.31,4.65-4.64,6.99-6.93.42-.41.53-.77.43-1.33-1.91-9.51-3.8-19.01-5.69-28.52-1.85-9.3-3.71-18.61-5.59-27.92-.1-.51-.01-.74.58-.86,9.13-1.91,17.61-5.4,25.42-10.51.2-.13.42-.26.68-.4.25.35.47.65.69.97,10.53,15.77,21.07,31.54,31.59,47.32.38.55.76.76,1.42.75,3.31-.04,6.61-.03,9.92-.05.18,0,.37-.03.68-.06-13.44-17.35-26.79-34.61-40.19-51.9,1.22-1,2.37-1.95,3.58-2.95.26.3.46.51.67.75,15.64,17.83,31.27,35.66,46.9,53.5.41.46.81.67,1.42.67,3.92-.03,7.84-.02,11.76-.02h.92v-1.04c0-3.79-.03-7.58.01-11.37.01-.78-.2-1.3-.81-1.82-17.81-15.58-35.6-31.19-53.39-46.8-.23-.19-.44-.41-.7-.64.98-1.2,1.93-2.35,2.94-3.57,17.29,13.4,34.56,26.76,51.96,40.24v-.93c.01-3.23,0-6.46.05-9.69.01-.7-.23-1.08-.8-1.46-15.79-10.53-31.56-21.07-47.34-31.62-.3-.19-.57-.4-.89-.61.1-.19.16-.36.26-.51,5.15-7.81,8.69-16.29,10.59-25.45.06-.29.13-.47.24-.58"/>
    <polyline class="cls-1" points="84.11 142.36 198.1 95.43 198.17 95.4"/>
    <polyline class="cls-1" points="115.76 218.19 229.54 171.48 229.55 171.47 229.89 171.33 230.05 171.26"/>
  </g>
</svg>