<?xml version="1.0" encoding="utf-8"?>
<!-- Generator: Adobe Illustrator 28.2.0, SVG Export Plug-In . SVG Version: 6.00 Build 0)  -->
<svg version="1.1" id="Layer_1" xmlns="http://www.w3.org/2000/svg" xmlns:xlink="http://www.w3.org/1999/xlink" x="0px" y="0px"
	 viewBox="0 0 512 512" style="enable-background:new 0 0 512 512;" xml:space="preserve">
<style type="text/css">
	.st0{fill:#CF0921;}
	.st1{fill:#FDD512;}
	.st2{fill:#0035A9;}
</style>
<g>
	<path class="st0" d="M88.3,495.6c-4.1-2.9-8.9-5.1-12.2-8.7c-5.1-5.7-5.7-12.9-3.2-20.2c6.2-18.1,17.7-31.5,34.7-40.3
		c1.4-0.7,2.8-1.4,4.7-2.3c-10-10.2-14.3-22.2-11.6-36.1c1.8-9.4,6.7-17,14.2-22.9c15.2-11.8,36.5-10.6,50.4,2.8
		c15.5,15,15.5,34.4-0.4,56.4c10.3,4.5,19.7,10.4,26.2,19.5c5.1,7.1,9.6,14.9,12.8,23.1c4.6,11.8-1.6,23.4-13.5,27.7
		c-0.7,0.3-1.3,0.7-2,1C155,495.6,121.7,495.6,88.3,495.6z M135.3,480.2c13.4,0,26.8-0.1,40.2,0.1c3.6,0,5.3-1.4,5.2-4.8
		c0-2.1,0.1-4.6-0.9-6.4c-3.7-7.1-7.2-14.4-11.8-21c-4.8-6.9-11.6-11.8-20.5-12.5c-3.9-0.3-7.8-0.5-11.6-0.5
		c-20.7,0.4-40.1,14.3-47.2,33.8c-2.8,7.7-0.4,11.2,7.9,11.3C109.5,480.3,122.4,480.2,135.3,480.2z M138.4,372.2
		c-13,0-23.5,10.5-23.4,23.5c0.1,12.9,10.6,23.4,23.6,23.3c13,0,23.5-10.5,23.4-23.5C161.9,382.5,151.4,372.2,138.4,372.2z"/>
	<path class="st1" d="M164.8,254.3c1.6,0.8,3.1,1.5,4.6,2.2c16.8,8.7,28.4,22,34.5,39.9c5.2,15.2-4.7,29.1-20.8,29.2
		c-29.7,0.1-59.5,0.1-89.2,0c-16.1-0.1-25.9-13.9-20.7-29.2c6.1-18.1,17.8-31.5,34.9-40.1c1.4-0.7,2.7-1.4,4.2-2.1
		c-19.8-21-12.3-45.6,0.2-56.9c14.9-13.5,37.5-13.6,52.2,0C180.9,212.5,181.1,233.4,164.8,254.3z M137.9,310.6c0-0.1,0-0.1,0-0.2
		c14.8,0,29.6,0.1,44.4,0c6.6-0.1,8.9-3.6,6.8-9.8c-7.3-21.3-27.8-36-50.5-36.1c-22.7-0.1-43,14.1-50.6,35.3
		c-2.6,7.2-0.1,10.7,7.5,10.8C109.5,310.6,123.7,310.6,137.9,310.6z M138.5,249.1c13,0,23.5-10.5,23.4-23.5
		c-0.1-13-10.6-23.4-23.6-23.4c-12.9,0-23.5,10.6-23.4,23.5C115,238.8,125.5,249.1,138.5,249.1z"/>
	<path class="st2" d="M112,84.5C95.9,62,96.4,41.2,113.3,26.7c15.1-13,37.4-12.3,51.8,1.4c12,11.4,19.4,34.9-0.3,56.3
		c1.3,0.7,2.4,1.4,3.6,2c17.1,8.5,28.9,21.7,35.2,39.8c5.4,15.8-4.3,29.6-21,29.6c-29.4,0.1-58.8,0.1-88.2,0
		c-17-0.1-26.6-13.8-21-30c6.1-17.6,17.6-30.5,34.1-39C108.9,86,110.5,85.2,112,84.5z M138.5,140.6
		C138.5,140.6,138.5,140.6,138.5,140.6c14.5-0.1,28.9,0,43.4-0.1c7.1,0,9.5-3.5,7.1-10.3c-7.4-21.2-27.5-35.5-50.3-35.6
		c-23.1-0.1-43.4,14-50.9,35.4c-2.5,7,0,10.5,7.3,10.5C109.6,140.6,124.1,140.6,138.5,140.6z M138.6,79.2
		c13-0.1,23.4-10.7,23.3-23.6c-0.2-12.9-10.8-23.4-23.7-23.3c-12.9,0.1-23.5,10.9-23.3,23.7C115.1,69,125.7,79.4,138.6,79.2z"/>
	<path class="st2" d="M345.7,56.5c28.2,0,56.4,0,84.5,0c1.6,0,3.1-0.1,4.7,0.1c4,0.7,6.5,3.3,6.5,7.4c0,4.1-2.4,6.6-6.5,7.4
		c-1.4,0.3-2.8,0.1-4.2,0.1c-56.8,0-113.6,0-170.5,0c-1.4,0-2.8,0.1-4.2-0.1c-3.8-0.8-6.1-3.1-6.2-7.1c-0.1-4.2,2.2-6.7,6.2-7.5
		c1.5-0.3,3.1-0.2,4.7-0.2C289.1,56.5,317.4,56.5,345.7,56.5z"/>
	<path class="st1" d="M345.7,226.5c28.2,0,56.3,0,84.5,0c1.6,0,3.1-0.1,4.7,0.1c3.9,0.5,6.2,3,6.5,6.8c0.3,3.7-1.6,6.3-5.1,7.5
		c-1.7,0.5-3.7,0.6-5.5,0.6c-56.8,0-113.6,0-170.4,0c-1.7,0-3.5,0-5.1-0.4c-3.7-1.1-5.7-3.8-5.3-7.7c0.3-3.9,2.7-6.2,6.6-6.7
		c1.4-0.2,2.8-0.1,4.2-0.1C289,226.5,317.4,226.5,345.7,226.5z"/>
	<path class="st0" d="M346.3,396.3c27.9,0,55.7,0,83.6,0c1.7,0,3.4-0.1,5.1,0.2c4,0.5,6.2,3,6.4,6.8c0.3,3.6-1.6,6.3-5.2,7.4
		c-1.5,0.4-3.1,0.5-4.6,0.5c-57.3,0-114.6,0-171.8,0c-2.1,0-5,0-6.2-1.3c-1.8-1.9-3.7-5.1-3.3-7.3c0.4-2.3,3.2-4.4,5.5-5.9
		c1.3-0.9,3.6-0.3,5.5-0.3C289.6,396.3,317.9,396.3,346.3,396.3z"/>
	<path class="st2" d="M312,116.5c-17.1,0-34.2,0-51.3,0c-1.6,0-3.1,0.1-4.7-0.2c-3.7-0.6-5.8-2.9-6.1-6.6c-0.3-3.7,1.4-6.4,4.9-7.5
		c1.9-0.6,4-0.6,6-0.6c34.1,0,68.1,0,102.2,0c0.8,0,1.6,0,2.3,0c5.4,0.2,8.9,3.2,8.8,7.6c-0.1,4.5-3.4,7.3-9,7.3
		C347.4,116.6,329.7,116.5,312,116.5z"/>
	<path class="st0" d="M312,456.4c-17.7,0-35.5,0-53.2,0c-5.6,0-8.8-2.7-8.9-7.3c-0.1-4.8,3.1-7.6,9.1-7.6c35.3,0,70.6,0,105.9,0
		c7.3,0,11.8,5.9,8.1,10.9c-1.6,2.2-5.4,3.8-8.2,3.8C347.2,456.5,329.6,456.4,312,456.4z"/>
	<path class="st1" d="M311.6,286.4c-17.4,0-34.8,0-52.3,0c-6.2,0-9.3-2.4-9.4-7.2c-0.1-4.9,3.2-7.7,9.5-7.7c35.2,0,70.3,0,105.5,0
		c5.9,0,9.7,3.3,9.3,8c-0.3,4.3-3.5,6.9-8.9,6.9C347.4,286.4,329.5,286.4,311.6,286.4z"/>
	<path class="st0" d="M135.3,480.2c-12.9,0-25.8,0-38.8,0c-8.3,0-10.7-3.5-7.9-11.3c7.1-19.4,26.5-33.4,47.2-33.8
		c3.9-0.1,7.8,0.2,11.6,0.5c8.9,0.7,15.6,5.6,20.5,12.5c4.6,6.5,8.2,13.8,11.8,21c0.9,1.8,0.8,4.2,0.9,6.4c0.1,3.4-1.6,4.9-5.2,4.8
		C162.1,480.1,148.7,480.2,135.3,480.2z"/>
	<path class="st0" d="M138.4,372.2c13.1,0,23.5,10.3,23.6,23.3c0.1,12.9-10.4,23.5-23.4,23.5c-13,0-23.5-10.4-23.6-23.3
		C114.9,382.8,125.4,372.2,138.4,372.2z"/>
	<path class="st1" d="M137.9,310.6c-14.2,0-28.3,0-42.5,0c-7.6,0-10.1-3.6-7.5-10.8c7.6-21.2,27.9-35.4,50.6-35.3
		c22.7,0.1,43.3,14.7,50.5,36.1c2.1,6.2-0.2,9.7-6.8,9.8c-14.8,0.1-29.6,0-44.4,0C137.9,310.5,137.9,310.5,137.9,310.6z"/>
	<path class="st1" d="M138.5,249.1c-13,0-23.5-10.3-23.6-23.3c-0.1-12.9,10.5-23.5,23.4-23.5c13,0,23.5,10.4,23.6,23.4
		C162,238.6,151.6,249,138.5,249.1z"/>
	<path class="st2" d="M138.5,140.6c-14.5,0-28.9,0-43.4,0c-7.4,0-9.8-3.5-7.3-10.5c7.5-21.4,27.8-35.5,50.9-35.4
		c22.8,0.1,42.9,14.3,50.3,35.6c2.4,6.8,0,10.2-7.1,10.3C167.5,140.6,153,140.6,138.5,140.6C138.5,140.6,138.5,140.6,138.5,140.6z"
		/>
	<path class="st2" d="M138.6,79.2c-13,0.1-23.5-10.2-23.7-23.2c-0.2-12.8,10.4-23.6,23.3-23.7c12.9-0.1,23.6,10.4,23.7,23.3
		C162.1,68.5,151.6,79.1,138.6,79.2z"/>
</g>
</svg>
