<?xml version="1.0" encoding="utf-8"?>
<!-- Generator: Adobe Illustrator 28.2.0, SVG Export Plug-In . SVG Version: 6.00 Build 0)  -->
<svg version="1.1" id="Layer_1" xmlns="http://www.w3.org/2000/svg" xmlns:xlink="http://www.w3.org/1999/xlink" x="0px" y="0px"
	 viewBox="0 0 266.4 299.4" style="enable-background:new 0 0 266.4 299.4;" xml:space="preserve">
<path d="M0.9,299.4c-0.2-15.9-1.4-32,4.6-47.3c9.9-25.7,28.1-42.4,54.7-49.4c6.6-1.8,13.6-2.5,20.5-2.5c35.2-0.2,70.4-0.5,105.5,0
	c34.2,0.5,58.8,16.7,73.5,47.7c4.9,10.4,6.5,21.5,6.6,33c0,6.2,0.1,12.5,0.2,18.7L0.9,299.4L0.9,299.4z M171.5,217.7H96.8
	c12.5,19.1,24.8,37.8,37.4,56.9C146.8,255.5,159.1,236.7,171.5,217.7L171.5,217.7z M116.6,280.6c-0.1-0.5-0.1-0.8-0.2-0.9
	c-13.3-20.3-26.6-40.6-40-60.8c-0.4-0.6-1.8-1.1-2.6-1c-11.3,0.9-21.5,5-30.7,11.7c-1.4,1-2.6,2.2-4,3.4
	C58.6,259.5,84.2,275.4,116.6,280.6z M227.5,232.9c-7.1-7.3-21.7-13.9-32.5-14.9c-1.9-0.2-3,0.3-4,1.9
	c-12.6,19.3-25.3,38.6-37.9,57.8c-0.4,0.7-0.8,1.4-1.3,2.3C177.5,276.9,208.8,260.4,227.5,232.9L227.5,232.9z M239.2,246.8
	c-10.8,14.2-23.8,25.5-39.4,34.8h48.6C249.6,270.9,245.5,255.6,239.2,246.8L239.2,246.8z M27.6,246.6c-6.8,10.9-9.8,22.4-9.2,35
	h48.8C51.4,272.3,38.4,260.9,27.6,246.6L27.6,246.6z"/>
<path d="M215.8,72.9c7.4,0.3,13.9,2.8,19.7,7.6c12.8,10.8,12.8,32.6,0.1,43.4c-6.6,5.6-14.1,8-22.7,7.5c-2.1-0.1-3.2,0.5-4.1,2.6
	c-14.2,31.2-45.1,50-79.3,48.2c-13.7-0.7-26.4-4.8-38-12c-1.1-0.7-2.1-1.3-3.3-2.1c-2.4,2.2-4.6,4.6-7.1,6.5
	c-14.8,11.5-31.2,14.5-48.7,7.9C15,176.1,4.5,163.2,0.9,145c-1.3-6.6-1-13.1,0.4-19.7c0.4-1.8,0.2-3.8-0.2-5.7
	c-1.1-4.9-1.2-9.8,0.2-14.7c0.4-1.6,0.5-3.4,0-5c-4.4-14.4,4-29.6,18.6-33.3c2.3-0.6,3.9-1.6,5.6-3.2c8-7.8,17.4-9.8,28-6.2
	c0.7,0.2,1.4,0.5,2.4,0.8c7.2-22,20.9-38.6,41.4-49.2c14.7-7.5,30.3-10.1,46.7-8.3C174.9,3.9,210.4,29.3,215.8,72.9L215.8,72.9z
	 M77.1,70.1c-0.1,0.3-0.2,0.6-0.3,0.8c0.4,0.1,0.8,0.2,1.1,0.4c9.3,7.9,12.2,17.6,8.7,29.4c-0.3,1.1-0.2,2.5,0.2,3.6
	c2.5,8.5,1.4,16.4-3.8,23.6c-1.3,1.8-2.8,3.4-4.2,5c4.4,7.6,9.9,14.1,16.9,19c21.4,15.1,44.3,17.5,67.8,5.8
	c19-9.5,30.7-25.3,33.9-46.4c1.5-9.6,1-19.6,1.2-29.4c0.1-3.8-0.6-7.7-0.9-11.9c-26.8,2-48.4-6.6-63.4-29.5
	C120.5,61,101.5,70.7,77.1,70.1L77.1,70.1z M65.3,102.3c1.3-1.9,2.6-3.6,3.7-5.4c1.9-3.1,2.1-6.3,0.1-9.4c-1.8-3-4.8-4.7-8.2-4
	c-4.9,1-7.6-0.5-9.2-5.3c-1.1-3.4-4.2-5.1-7.9-5c-3.5,0-6.5,1.7-7.6,4.9c-1.7,4.9-4.3,6.5-9.4,5.4c-3.3-0.7-6.3,1.1-8.1,4.2
	c-1.7,3-2,6.4,0.3,9.1c3.5,3.9,3.6,7.2,0,11.1c-2.3,2.6-2,6-0.3,9.1c1.7,3.1,4.7,4.9,8,4.2c5-1,7.8,0.4,9.4,5.4
	c1.1,3.3,4.1,4.9,7.6,5c3.6,0.1,6.8-1.6,7.9-4.9c1.7-4.9,4.4-6.4,9.5-5.4c3.3,0.7,6.3-1.1,8-4.2c1.8-3,1.6-6.2-0.2-9.1
	C67.9,106,66.6,104.2,65.3,102.3L65.3,102.3z M17.9,137.7c-0.8,12,9.8,25.6,22.7,29.4c12.4,3.6,28.5-1.5,33.5-10.6
	c-3.8-5.1-7.6-10.1-11.4-15.2c-0.6,0.5-1.2,0.9-1.8,1.4c-10.5,8.8-25.3,8.4-35-1.2C23.6,139.3,21.3,137.9,17.9,137.7L17.9,137.7z
	 M76.9,52.3c26.4,2.4,44.4-17.2,47.1-34C102.9,22.2,87.4,33.4,76.9,52.3z M144.2,18.3c4.4,22,26.7,36.8,47,33.8
	C180.8,33.6,165.4,22.3,144.2,18.3z M216.4,90.8c-0.4,7.7-0.7,15.4-1.1,23.1c6.8,0.2,12.1-4.6,12.4-11.2
	C228,96.3,222.9,91,216.4,90.8L216.4,90.8z"/>
<path d="M35.3,102.4c0-4.9,3.8-8.8,8.6-8.8c4.8-0.1,8.8,3.9,8.9,8.7c0.1,4.7-3.9,8.8-8.7,8.8C39.3,111.1,35.4,107.2,35.3,102.4
	L35.3,102.4z"/>
</svg>
