<?xml version="1.0" encoding="utf-8"?>
<!-- Generator: Adobe Illustrator 28.2.0, SVG Export Plug-In . SVG Version: 6.00 Build 0)  -->
<svg version="1.1" id="Layer_1" xmlns="http://www.w3.org/2000/svg" xmlns:xlink="http://www.w3.org/1999/xlink" x="0px" y="0px"
	 viewBox="0 0 512 512" style="enable-background:new 0 0 512 512;" xml:space="preserve">
<style type="text/css">
	.st0{fill:#FDD512;}
	.st1{fill:#CF0921;}
	.st2{fill:#0035A9;}
</style>
<g>
	<g id="XMLID_00000167396117517283218800000005773346599931950468_">
		<g>
			<path class="st0" d="M257.3,72.7c25.2,38.5,61.3,52.8,105.8,49.4c0.5,3.7,1.2,6.7,1.3,9.8c0.8,21.8,3.1,43.8-2.3,65.2
				c-10.9,43.6-38.7,71.7-82.6,81.2c-39.4,8.6-73.7-3.3-101.5-32.7c-5.1-5.4-9.2-11.7-14.1-18c11.1-10,17.5-21.7,16-35.6
				c-1.1-10.7-1-20.9,0-31.6c1.4-15.3-5.8-27.7-19.1-38C202.5,123.3,234.5,107.3,257.3,72.7z"/>
			<path d="M78.9,417.9c-11.3,18.1-16.3,37.4-15.4,58.4c27,0,53.7,0,81.5,0C118.6,460.7,97,441.5,78.9,417.9z M257.3,464.6
				c21-32,41.6-63.3,62.6-95.2c-42.1,0-83.3,0-125.1,0C215.7,401.3,236.3,432.6,257.3,464.6z M145.7,371.1
				c-17.7,3.6-33.4,11.3-47.4,23.6c32.4,44.5,75.2,71,130.4,80.1c-1.5-2.4-2.4-4-3.4-5.4c-19.6-29.8-39.2-59.7-58.8-89.5
				C159.1,368.6,159.1,368.5,145.7,371.1z M345.6,339.9c56.9,1,97.6,28.6,121.9,79.9c8,16.9,10.7,35.1,10.8,53.7
				c0.1,10.6,0,21.2,0,32.3c-148.3,0-296,0-444.2,0c0-12-0.2-23.9,0-35.7c0.8-39.3,16.1-72.1,45.6-98c24.8-21.7,54-32.3,86.9-32.4
				C226.3,339.5,286,338.9,345.6,339.9z M359.4,369.9c-3.4-0.3-5.2,0.6-7.1,3.5c-20.9,32-42,64-63,96c-0.9,1.3-1.6,2.7-3.1,5.1
				c53.8-9.8,95.8-36.1,127.4-79.3C403,383.3,377.6,371.7,359.4,369.9z M448.9,476.4c0.5-21-4.1-40.3-15.6-58.5
				c-18.2,23.8-39.9,42.9-66.1,58.5C395.1,476.4,421.8,476.4,448.9,476.4z"/>
			<path d="M100.2,284.5c-21.6-6.7-39-29.4-37.4-49.1c4.5,1,8.6,1.8,12.2,5.7c16,16.9,41.6,17.9,59.6,2.9c1-0.8,2-1.6,3-2.3
				c6.4,8.6,12.7,17,19.1,25.4C147.8,282.6,121,290.9,100.2,284.5z"/>
			<path class="st1" d="M106.5,190.9c8,0,14.7-6.8,14.6-14.7c0-7.9-6.8-14.6-14.7-14.6c-8.1,0-14.5,6.6-14.5,14.7
				C91.9,184.4,98.4,190.9,106.5,190.9z M120,136.8c2.3,7.8,6.8,9.3,14,7.9c6.1-1.1,11.3,1.4,14.5,6.9c3.4,5.6,2.6,11.2-1,16.5
				c-1.8,2.7-3.7,5.3-5.7,8c2.1,3,4.1,5.7,6,8.5c3.4,5.2,3.9,10.7,0.7,16.1c-3.2,5.2-8.2,8-14.1,6.8c-7.9-1.6-12.2,0.6-14.7,8.4
				c-1.9,5.8-7.1,9-13.4,8.9c-6.2,0-11.4-3-13.3-8.9c-2.5-7.7-6.8-10-14.7-8.4c-5.8,1.2-10.9-1.6-14-6.8c-3.2-5.4-3.4-11.4,0.7-16
				c5.6-6.2,5.5-11.1,0-17.3c-4.1-4.6-3.9-10.6-0.7-16c3.2-5.4,8.5-8,14.6-6.8c7.4,1.5,11.6-0.5,14-8c1.9-6.1,7.1-9.3,13.6-9.4
				C113,127.4,118.2,130.8,120,136.8z"/>
			<path d="M162.3,92.9c37.9,2.2,71.3-21.9,78.1-56.7C206.3,39.8,172.5,67.1,162.3,92.9z M257.3,72.7
				c-22.8,34.6-54.8,50.7-96.6,49.8c13.3,10.3,20.5,22.7,19.1,38c-1,10.7-1.1,20.9,0,31.6c1.5,13.9-4.9,25.6-16,35.6
				c4.9,6.3,9,12.6,14.1,18c27.8,29.5,62.1,41.3,101.5,32.7c43.8-9.5,71.7-37.6,82.6-81.2c5.4-21.4,3.1-43.4,2.3-65.2
				c-0.1-3-0.8-6.1-1.3-9.8C318.7,125.5,282.5,111.2,257.3,72.7z M62.8,235.3c-1.6,19.7,15.8,42.5,37.4,49.1
				c20.8,6.4,47.6-1.9,56.6-17.4c-6.4-8.5-12.7-16.9-19.1-25.4c-1,0.8-2.1,1.5-3,2.3c-18,15-43.6,14-59.6-2.9
				C71.4,237.2,67.4,236.4,62.8,235.3z M300.5,12.3c47.1,16.6,77,49.5,89.9,97.8c1.5,5.5,2.2,11.2,3,15.3c9,3.1,17.9,5,25.6,9.1
				c28.6,15.3,32.3,57.8,7.3,78.5c-10.8,9-23.2,12.9-37.1,12.1c-3.8-0.2-5.7,0.9-7.3,4.5c-23.6,52.1-75.6,83.6-132.8,80.4
				c-23-1.3-44.4-8.2-64-20.4c-1.6-1-3.3-2-4.7-2.9c-6.1,5.1-11.5,10.6-17.8,14.8c-26.6,17.5-54.9,19.9-83.5,5.7
				c-28-13.9-43.4-37.2-45.9-68.5c-0.5-6.7,0.1-13.7,1.1-20.4c0.9-5.6,1.1-10.6-0.4-16.2c-1.2-4.7-1.7-10.3-0.4-14.9
				c2.3-8,0.7-15.4-0.3-23.3c-2.8-22.2,11.4-42.1,33.1-47.7c2.9-0.7,5.9-2.5,8.1-4.6c13.6-13,29.2-17,47.2-10.9
				c1.2,0.4,2.4,0.9,4.1,1.5c0.8-1.8,1.5-3.5,2.2-5.3c20.2-52.6,58.3-82.9,114-91.1c1.6-0.2,3.2-0.6,4.8-1c7.2,0,14.4,0,21.5,0
				C279,7.3,290.2,8.6,300.5,12.3z M274.3,36.6c6.6,34.3,43.3,60.6,78,56C339.3,62.7,301.9,37.8,274.3,36.6z M134.1,144.8
				c-7.3,1.3-11.7-0.2-14-7.9c-1.8-6-7-9.4-13.5-9.4c-6.5,0-11.7,3.3-13.6,9.4c-2.4,7.5-6.5,9.5-14,8c-6-1.2-11.3,1.3-14.6,6.8
				c-3.2,5.4-3.4,11.4,0.7,16c5.5,6.2,5.6,11.1,0,17.3c-4.1,4.6-3.9,10.6-0.7,16c3.1,5.3,8.2,8,14,6.8c7.9-1.6,12.2,0.7,14.7,8.4
				c1.9,5.9,7.1,8.9,13.3,8.9c6.3,0,11.4-3.1,13.4-8.9c2.5-7.8,6.8-10,14.7-8.4c5.8,1.2,10.9-1.6,14.1-6.8
				c3.3-5.4,2.8-10.9-0.7-16.1c-1.9-2.8-3.9-5.6-6-8.5c1.9-2.8,3.9-5.4,5.7-8c3.6-5.3,4.3-10.9,1-16.5
				C145.4,146.2,140.1,143.7,134.1,144.8z M413.9,176.9c0.5-10.6-8-19.6-19-20c-0.6,13.1-1.2,25.9-1.8,38.6
				C404.4,196,413.4,187.9,413.9,176.9z"/>
			<path d="M352.3,92.6c-34.7,4.6-71.3-21.8-78-56C301.9,37.8,339.3,62.7,352.3,92.6z"/>
			<path class="st1" d="M352.4,373.4c1.8-2.8,3.6-3.8,7.1-3.5c18.2,1.8,43.6,13.4,54.3,25.2c-31.6,43.2-73.6,69.5-127.4,79.3
				c1.4-2.4,2.2-3.8,3.1-5.1C310.4,437.3,331.4,405.4,352.4,373.4z"/>
			<path class="st1" d="M98.3,394.8c14-12.3,29.7-20.1,47.4-23.6c13.3-2.7,13.4-2.5,20.8,8.8c19.6,29.8,39.2,59.7,58.8,89.5
				c1,1.5,1.9,3,3.4,5.4C173.5,465.8,130.7,439.2,98.3,394.8z"/>
			<path d="M106.4,161.6c8,0,14.7,6.7,14.7,14.6c0,7.9-6.6,14.7-14.6,14.7c-8.1,0-14.6-6.5-14.6-14.6
				C91.9,168.1,98.3,161.6,106.4,161.6z"/>
			<path d="M162.3,92.9c10.2-25.7,44-53.1,78.1-56.7C233.6,71,200.2,95.1,162.3,92.9z"/>
			<path class="st0" d="M194.8,369.4c41.8,0,83.1,0,125.1,0c-21,31.9-41.6,63.2-62.6,95.2C236.3,432.6,215.7,401.3,194.8,369.4z"/>
			<path class="st2" d="M433.3,417.9c11.5,18.2,16.1,37.5,15.6,58.5c-27,0-53.8,0-81.7,0C393.4,460.8,415.1,441.7,433.3,417.9z"/>
			<path class="st0" d="M394.9,156.9c11,0.4,19.5,9.4,19,20c-0.5,11-9.5,19.1-20.8,18.6C393.7,182.8,394.3,170.1,394.9,156.9z"/>
			<path class="st2" d="M78.9,417.9c18,23.6,39.7,42.9,66.1,58.4c-27.9,0-54.5,0-81.5,0C62.6,455.2,67.6,436,78.9,417.9z"/>
		</g>
		<g>
		</g>
	</g>
</g>
</svg>
