<?xml version="1.0" encoding="utf-8"?>
<!-- Generator: Adobe Illustrator 28.2.0, SVG Export Plug-In . SVG Version: 6.00 Build 0)  -->
<svg version="1.1" id="Layer_1" xmlns="http://www.w3.org/2000/svg" xmlns:xlink="http://www.w3.org/1999/xlink" x="0px" y="0px"
	 viewBox="0 0 512 512" style="enable-background:new 0 0 512 512;" xml:space="preserve">
<style type="text/css">
	.st0{fill:#FDD512;}
</style>
<g>
	<path d="M506.4,184.3c-2.6,8.8-4.6,17.9-8,26.4c-4.9,12.1-13.1,22-23.4,30.1c-13,10.2-27.7,13.1-43.7,9.6
		c-5.5-1.2-11.1-2.4-16.6-3.6c-0.1,0.4-0.2,0.8-0.1,0.9c12,9.4,14.1,21.9,11.7,36c-3.7,21.7-13.8,39.7-31.2,53.4
		c-14.9,11.7-31.6,12.2-49.1,8c-2-0.5-4.1-1-7.5-1.8c8.4,7.6,12.2,16.2,11.6,26.2c-1.8,29-14.2,52-39.3,67.3
		c-10.5,6.4-22.4,7.6-34,4.6c-26.4-6.9-52.5-14.8-78.8-22c-35.7-9.9-71.3-19.9-107.1-29.1c-15.2-3.9-31.1-5.3-46.4-8.8
		c-7.3-1.7-14.4-5.1-21-8.8c-10.7-6-16.5-16-16.4-28.1c0.1-20.1,4.4-39.5,14.8-56.9c13.5-22.7,33.5-30.2,59.2-23.6
		c2.1,0.5,4.3,1.1,6.8,1.7c-9.1-23-0.7-43.7,6.4-64.4c3.9-11.4,11.7-20.5,21.9-27.3c13.6-9,28.1-8.9,43.1-4.7
		c2.9,0.8,5.9,1.6,9.5,2.5c-6.8-11.6-6.7-23.2-4.1-35.1c3-13.4,5.3-27.2,12.7-39.2c14.5-23.3,33.8-31.2,60.3-24.3
		c60.1,15.5,120.1,31.1,180.1,46.8c17.6,4.6,34.8,10.5,50.8,19.5c3.4,1.9,7,3.5,10.6,4.9c13.3,4.9,23.6,12.7,27.3,27.2
		C506.4,175.8,506.4,180,506.4,184.3z M203.7,177.7c64.1,9.3,124.6,30.3,185.1,50.2c-12.6-34.5-21.2-69.3-13.7-105.9
		c-1.3-0.7-1.6-1-2.1-1.1c-21-5.2-41.9-10.3-62.9-15.4c-1.8-0.4-3.9-0.2-5.7,0.2c-29.7,6.5-55.7,20.1-77.9,40.9
		C217.3,155.3,208.6,164.3,203.7,177.7z M310.5,324c-8.9-17.2-11.4-35.1-15.3-52.7c-3.9-17.9-2.2-35.9,0.4-53.7
		c-1-0.4-1.5-0.8-2.1-1c-21-5.1-41.9-10.3-63-15.3c-1.6-0.4-3.5-0.1-5.2,0.2c-34.1,7.3-62.8,24.2-86.7,49.5
		c-5.9,6.3-10.9,13.3-14.2,22.5C188.4,282.8,248.9,303.7,310.5,324z M218.7,312.2c-22.5-5.5-44.2-10.8-66-16
		c-1.9-0.4-4.1,0.2-6.1,0.7c-28.8,6.7-54.1,19.9-75.7,40.1c-9.4,8.8-18.4,17.9-23.4,31.5c63.9,9.4,124.5,30.3,186,50.5
		c-8.8-17.2-11.4-35-15.2-52.6C214.4,348.5,216.1,330.6,218.7,312.2z M385.7,246.5c-26.3-16-56.1-19.5-84.2-28
		c-3.4,30.3,2.2,58.9,10.9,86.9c4.4,14.2,12.5,24.8,28.7,26.6c5.8,0.7,11.6,1.9,18.1,3.1C345.1,306.6,358.7,262.1,385.7,246.5z
		 M309,341.7c-26.1-16-56-19.6-84.3-28.1c-3.5,30.4,1.9,58.9,10.7,86.7c7.8,24.7,20.7,27.4,46.2,28.7
		C267.5,398.9,284,355.1,309,341.7z M437.2,238.5c-10.4-35.3-1.9-64.7,27.2-88.1c-25.5-15.6-55.4-19.1-83.7-27.7
		c-0.3,0.9-0.5,1.4-0.5,1.9c-1.9,28.7,2.3,56.7,11,84C399.5,234.4,411.6,236.5,437.2,238.5z M194.3,173.8
		c21.8-36.2,53.7-58.6,92.2-73.9c-5.7-1.4-11-2.7-16.3-4c-16.1-3.9-32-8.4-48.3-11.5c-13.9-2.7-25.6,1.8-33.6,14.2
		c-9,13.9-13.6,29-13.8,45.5c0,3.7-0.1,7.5,0.8,11.1C177.7,165.7,185.9,170.6,194.3,173.8z M207.3,195.7c-5.6-1.4-11-2.7-16.4-4
		c-16.2-3.9-32.3-8.5-48.7-11.6c-13.7-2.6-25.2,2-33.1,14.2c-9.5,14.6-13.6,30.6-14,47.9c-0.4,15.6,9.8,24.4,20.1,27.1
		C137,233.4,168.8,210.9,207.3,195.7z M130.1,290.8c-16.3-4.2-32.9-8.8-49.6-12.8c-7.4-1.8-15-3-22.6-3.2
		c-9.7-0.3-17.9,3.7-23.9,11.8c-11.6,15.8-16.3,33.7-15.9,53.1c0.3,12.3,8.8,22.3,20,24.5C60.2,328.3,92.1,305.7,130.1,290.8z
		 M413.1,278.9c-3.2,2.7-6.3,5.5-9.6,8.1c-5.3,4.1-10.9,7.7-16,12c-10.7,9-14.9,21.4-17.9,34.7C388.3,331.3,411.2,301.9,413.1,278.9
		z M449.2,237.6c14.4,0.3,42-29.3,43-53.7c-6.1,4.6-12.4,9.7-19.1,14.2C459,207.6,452.4,221.5,449.2,237.6z M292.8,429
		c19.9-4.4,42.9-34,43.2-54.4c-6.4,4.8-13,10-19.9,14.8C302.3,399,296.2,412.8,292.8,429z M391.4,254c-24.4,9.2-33.3,51.8-27.3,72.8
		c2.1-12.2,6.9-22.5,15-31.1c0.5-0.6,1-1.3,1.2-2.1C383.9,280.9,387.5,268.1,391.4,254z M286.5,419.7c3.1-6.8,5.5-15.5,10.6-22
		c6.7-8.6,9.6-18.2,12.2-28.2c1.7-6.5,2.8-13.1,4.3-20.1C291.1,358.2,281.4,397.2,286.5,419.7z M469.5,158.7
		c-22.1,8.7-32.2,48.8-26.6,70.3c2.9-6.4,6.2-14.3,10-21.8c1.5-3,4.9-5.1,6.2-8.1C464.2,186.3,467.4,172.9,469.5,158.7z
		 M320.8,346.2c-2,11.9-3.8,22.5-5.7,33.7c5.7-4.6,11.1-8.7,16.3-13.1c4.9-4.2,5.4-7.8,0.9-12.3C329,351.4,324.9,349.1,320.8,346.2z
		 M477.1,155.3c-2,11.8-3.8,22.5-5.7,33.8c5.9-4.7,11.5-8.9,16.7-13.5c4.5-3.9,4.8-7.4,0.6-11.6
		C485.4,160.8,481.2,158.4,477.1,155.3z M397.7,251.1c-2,12-3.8,22.6-5.7,33.8c5.8-4.7,11.5-8.9,16.9-13.6c4.4-3.8,4.6-7.4,0.4-11.6
		C406,256.5,401.8,254.1,397.7,251.1z"/>
	<path class="st0" d="M203.7,177.7c5-13.5,13.6-22.4,22.8-31c22.2-20.8,48.2-34.5,77.9-40.9c1.8-0.4,3.9-0.6,5.7-0.2
		c21,5,41.9,10.2,62.9,15.4c0.4,0.1,0.8,0.4,2.1,1.1c-7.5,36.6,1.1,71.3,13.7,105.9C328.3,208,267.8,187.1,203.7,177.7z"/>
	<path class="st0" d="M310.5,324c-61.6-20.3-122.1-41.2-186.1-50.5c3.3-9.2,8.3-16.2,14.2-22.5c23.9-25.2,52.5-42.2,86.7-49.5
		c1.7-0.4,3.6-0.6,5.2-0.2c21,5,42,10.2,63,15.3c0.6,0.1,1.2,0.5,2.1,1c-2.6,17.9-4.3,35.8-0.4,53.7
		C299.1,288.9,301.6,306.8,310.5,324z"/>
	<path class="st0" d="M218.7,312.2c-2.6,18.4-4.3,36.3-0.4,54.2c3.8,17.5,6.4,35.4,15.2,52.6c-61.5-20.2-122-41.1-186-50.5
		c4.9-13.6,14-22.7,23.4-31.5c21.6-20.2,46.9-33.4,75.7-40.1c2-0.5,4.3-1.1,6.1-0.7C174.5,301.4,196.2,306.7,218.7,312.2z"/>
	<path class="st0" d="M385.7,246.5c-26.9,15.6-40.5,60.1-26.5,88.7c-6.5-1.1-12.2-2.4-18.1-3.1c-16.2-1.8-24.3-12.4-28.7-26.6
		c-8.6-28.1-14.3-56.6-10.9-86.9C329.5,227,359.4,230.5,385.7,246.5z"/>
	<path class="st0" d="M309,341.7c-25,13.4-41.5,57.2-27.4,87.4c-25.5-1.4-38.3-4.1-46.2-28.7c-8.9-27.9-14.2-56.3-10.7-86.7
		C252.9,322,282.8,325.6,309,341.7z"/>
	<path class="st0" d="M437.2,238.5c-25.6-1.9-37.7-4.1-45.9-29.9c-8.7-27.3-13-55.2-11-84c0-0.5,0.3-0.9,0.5-1.9
		c28.3,8.5,58.2,12,83.7,27.7C435.3,173.7,426.8,203.1,437.2,238.5z"/>
	<path class="st0" d="M194.3,173.8c-8.4-3.2-16.6-8.1-19-18.6c-0.8-3.6-0.8-7.4-0.8-11.1c0.2-16.5,4.8-31.6,13.8-45.5
		c8-12.4,19.8-16.9,33.6-14.2c16.2,3.1,32.2,7.6,48.3,11.5c5.3,1.3,10.6,2.6,16.3,4C248,115.2,216.1,137.6,194.3,173.8z"/>
	<path class="st0" d="M207.3,195.7c-38.5,15.2-70.3,37.7-92.2,73.6c-10.3-2.7-20.5-11.5-20.1-27.1c0.5-17.3,4.5-33.3,14-47.9
		c7.9-12.2,19.5-16.8,33.1-14.2c16.4,3.1,32.5,7.6,48.7,11.6C196.3,193,201.7,194.4,207.3,195.7z"/>
	<path class="st0" d="M130.1,290.8c-38.1,14.9-69.9,37.4-91.9,73.4c-11.2-2.2-19.7-12.2-20-24.5c-0.4-19.4,4.3-37.3,15.9-53.1
		c5.9-8.1,14.2-12.1,23.9-11.8c7.6,0.2,15.2,1.4,22.6,3.2C97.3,282,113.8,286.6,130.1,290.8z"/>
	<path class="st0" d="M413.1,278.9c-1.9,23-24.8,52.4-43.4,54.8c3-13.3,7.2-25.7,17.9-34.7c5.1-4.3,10.7-7.9,16-12
		C406.9,284.4,409.9,281.6,413.1,278.9z"/>
	<path class="st0" d="M449.2,237.6c3.3-16.1,9.8-30,24-39.5c6.7-4.5,12.9-9.6,19.1-14.2C491.2,208.3,463.5,237.9,449.2,237.6z"/>
	<path class="st0" d="M292.8,429c3.4-16.2,9.5-30.1,23.3-39.6c6.9-4.8,13.5-10,19.9-14.8C335.7,395.1,312.7,424.6,292.8,429z"/>
	<path class="st0" d="M391.4,254c-3.9,14.1-7.5,26.8-11.1,39.6c-0.2,0.8-0.7,1.5-1.2,2.1c-8.1,8.6-13,18.9-15,31.1
		C358.1,305.9,367.1,263.2,391.4,254z"/>
	<path class="st0" d="M286.5,419.7c-5.1-22.5,4.6-61.5,27-70.4c-1.5,7.1-2.6,13.7-4.3,20.1c-2.6,10-5.4,19.6-12.2,28.2
		C292,404.1,289.6,412.8,286.5,419.7z"/>
	<path class="st0" d="M469.5,158.7c-2.1,14.2-5.2,27.6-10.5,40.4c-1.2,3-4.7,5.1-6.2,8.1c-3.8,7.6-7.1,15.4-10,21.8
		C437.3,207.5,447.4,167.4,469.5,158.7z"/>
	<path class="st0" d="M320.8,346.2c4.1,2.9,8.2,5.2,11.5,8.4c4.5,4.5,4.1,8.1-0.9,12.3c-5.2,4.4-10.6,8.5-16.3,13.1
		C317,368.7,318.8,358,320.8,346.2z"/>
	<path class="st0" d="M477.1,155.3c4.1,3,8.3,5.4,11.7,8.8c4.2,4.2,3.8,7.7-0.6,11.6c-5.2,4.6-10.8,8.7-16.7,13.5
		C473.3,177.8,475.1,167.2,477.1,155.3z"/>
	<path class="st0" d="M397.7,251.1c4,2.9,8.3,5.3,11.6,8.7c4.2,4.2,3.9,7.7-0.4,11.6c-5.3,4.7-11,8.9-16.9,13.6
		C393.9,273.8,395.7,263.1,397.7,251.1z"/>
</g>
</svg>
