<?xml version="1.0" encoding="utf-8"?>
<!-- Generator: Adobe Illustrator 28.2.0, SVG Export Plug-In . SVG Version: 6.00 Build 0)  -->
<svg version="1.1" id="Layer_1" xmlns="http://www.w3.org/2000/svg" xmlns:xlink="http://www.w3.org/1999/xlink" x="0px" y="0px"
	 viewBox="0 0 24 24" style="enable-background:new 0 0 24 24;" xml:space="preserve">
<style type="text/css">
	.st0{fill-rule:evenodd;clip-rule:evenodd;fill:#0035A9;}
</style>
<path class="st0" d="M12,10.9l5.7-5.7C17.9,5.1,18.1,5,18.2,5C18.7,5,19,5.3,19,5.7c0,0.2-0.1,0.4-0.2,0.5L13.1,12l5.7,5.7
	c0.1,0.1,0.2,0.3,0.2,0.5c0,0.4-0.3,0.8-0.8,0.8c-0.2,0-0.4-0.1-0.5-0.2L12,13.1l-5.7,5.7C6.1,18.9,5.9,19,5.8,19
	C5.3,19,5,18.7,5,18.2c0-0.2,0.1-0.4,0.2-0.5l5.7-5.7L5.2,6.3C5.1,6.1,5,5.9,5,5.7C5,5.3,5.3,5,5.7,5c0.2,0,0.4,0.1,0.5,0.2L12,10.9
	z"/>
</svg>
