<?xml version="1.0" encoding="utf-8"?>
<!-- Generator: Adobe Illustrator 28.2.0, SVG Export Plug-In . SVG Version: 6.00 Build 0)  -->
<svg version="1.1" id="Layer_1" xmlns="http://www.w3.org/2000/svg" xmlns:xlink="http://www.w3.org/1999/xlink" x="0px" y="0px"
	 viewBox="0 0 512 512" style="enable-background:new 0 0 512 512;" xml:space="preserve">
<style type="text/css">
	.st0{fill:#0035A9;}
	.st1{fill:#FDD512;}
</style>
<g>
	<path class="st0" d="M501.8,262.2c-6.3,7.6-12.5,15.2-18.8,22.8c-6.2,7.5-11.1,7.9-18.7,1.6C396.7,230.2,329,173.7,261.3,117.3
		c-1.5-1.2-3-2.4-4.8-3.9c-7.6,6.3-15.2,12.6-22.8,18.9c-61.8,51.5-123.6,103.1-185.4,154.6c-7,5.9-12.1,5.4-18-1.5
		c-5-6-10.1-12-15.1-18c-5.8-7-5.4-12,1.8-17.9c54.1-45.1,108.2-90.1,162.3-135.2c17.7-14.7,35.3-29.5,53-44.1
		c12.4-10.2,26.3-11.5,40.8-5c3.8,1.7,7.2,4.6,10.5,7.4c22.1,18.4,44.1,36.8,66.2,55.3c1.1,0.9,2.2,1.7,3.9,2.9
		c0.1-2.2,0.3-3.7,0.3-5.2c0-16.9,0-33.9,0-50.8c0-9.4,3.2-12.6,12.7-12.6c17.4,0,34.8,0,52.2,0c9.7,0,13,3.3,13,12.9
		c0,38.8,0.1,77.6-0.1,116.4c0,3.4,1,5.5,3.6,7.7c20,16.4,39.9,33,59.7,49.6c2.6,2.2,4.6,5.2,6.8,7.8
		C501.8,258.4,501.8,260.3,501.8,262.2z"/>
	<path class="st1" d="M295.6,451.4c0-38.8,0-77.3,0-116.2c-26.2,0-51.8,0-78.1,0c0,38.7,0,77.4,0,116.5c-2.4,0-4.1,0-5.8,0
		c-35.8,0-71.5,0-107.3,0c-15.6,0-23.2-7.7-23.2-23.2c0-46.3,0-92.6,0-138.9c0-3.2,0.6-5.6,3.3-7.8c56-46,111.9-92.1,167.8-138.2
		c1.3-1.1,2.7-2.1,4.3-3.4c12.6,10.4,25,20.6,37.4,30.8c44.7,36.9,89.4,73.8,134.2,110.5c2.6,2.1,3.7,4.3,3.7,7.7
		c-0.1,47.1,0,94.2-0.1,141.3c0,12.8-8.1,21.2-20.9,21.2c-37.4,0.1-74.7,0-112.1,0C297.9,451.8,297,451.6,295.6,451.4z"/>
</g>
</svg>
