<?xml version="1.0" encoding="UTF-8"?>
<svg id="Layer_1" data-name="Layer 1" xmlns="http://www.w3.org/2000/svg" viewBox="0 0 502.11 501.91">
  <defs>
    <style>
      .cls-1 {
        fill: #fdd512;
      }

      .cls-1, .cls-2 {
        stroke-width: 0px;
      }

      .cls-2 {
        fill: #0035a9;
      }
    </style>
  </defs>
  <path class="cls-1" d="M394.15,393.13c0,2.12,0,4.01,0,5.9,0,30.66.08,61.32-.12,91.98-.02,2.87-1.08,6.32-2.88,8.47-3.21,3.84-8.19,2.99-12.72-1.54-21.93-21.93-43.83-43.88-65.73-65.83-11.57-11.59-23.2-23.12-34.64-34.84-2.52-2.58-5.09-3.57-8.68-3.57-50.7.11-101.4.15-152.11.05-56.13-.11-102.58-37.39-114.54-92.17-1.8-8.26-2.52-16.91-2.56-25.39C-.06,223.42-.01,170.63.07,117.85.16,58.91,39.72,11.69,97.63,1.51,103.94.41,110.45.1,116.87.09,206.08,0,295.29-.04,384.5.05c64.71.07,116.25,50.3,117.07,114.98.7,55.39.68,110.8.17,166.19-.51,55.78-45.42,104.53-101.06,110.95-2.05.24-4.09.6-6.53.96ZM167.29,221.87c13.73.02,24.99-11.04,25.13-24.67.14-13.79-11.28-25.38-25.05-25.42-13.75-.04-25.22,11.53-25.12,25.34.1,13.67,11.29,24.73,25.04,24.75ZM250.78,221.87c13.75.09,25.06-10.88,25.27-24.51.21-13.81-11.07-25.41-24.87-25.58-13.7-.16-25.31,11.4-25.28,25.18.02,13.66,11.17,24.83,24.88,24.91ZM334.88,221.87c13.68-.11,24.82-11.32,24.81-24.97,0-13.77-11.66-25.32-25.34-25.12-13.61.21-24.8,11.54-24.81,25.12,0,13.88,11.36,25.08,25.34,24.97Z"/>
  <path class="cls-2" d="M167.29,221.87c-13.75-.02-24.94-11.09-25.04-24.75-.1-13.81,11.37-25.38,25.12-25.34,13.76.04,25.18,11.63,25.05,25.42-.13,13.63-11.4,24.69-25.13,24.67Z"/>
  <path class="cls-2" d="M250.78,221.87c-13.71-.09-24.86-11.25-24.88-24.91-.02-13.78,11.59-25.34,25.28-25.18,13.81.17,25.09,11.76,24.87,25.58-.21,13.63-11.52,24.6-25.27,24.51Z"/>
  <path class="cls-2" d="M334.88,221.87c-13.98.11-25.34-11.09-25.34-24.97,0-13.59,11.2-24.91,24.81-25.12,13.68-.21,25.33,11.35,25.34,25.12,0,13.65-11.13,24.86-24.81,24.97Z"/>
</svg>