<?xml version="1.0" encoding="utf-8"?>
<!-- Generator: Adobe Illustrator 28.2.0, SVG Export Plug-In . SVG Version: 6.00 Build 0)  -->
<svg version="1.1" id="Layer_1" xmlns="http://www.w3.org/2000/svg" xmlns:xlink="http://www.w3.org/1999/xlink" x="0px" y="0px"
	 viewBox="0 0 512 512" style="enable-background:new 0 0 512 512;" xml:space="preserve">
<style type="text/css">
	.st0{fill:#0035A9;}
	.st1{fill:#FDD512;}
</style>
<g>
	<path class="st0" d="M249.8,10.1c7.6,0.6,15.2,1.3,22.8,1.9c49.6,4.1,97.7,14.8,144.9,32.3c-3,8.9-6,17.7-9.2,26.9
		c-7.8-2.5-15.3-4.9-23.2-7.4c0,78.8,0,157,0,235.7c33.4,0,66.7,0,100.2,0c0,9.7,0,18.9,0,28.6c-1.5,0.1-3.1,0.2-4.6,0.2
		c-42,0-84,0-126.1,0.1c-2.9,0-4.8-0.3-5.9-3.7c-22.3-64.8-68.2-100.7-136-111.4c24.3,0,47.8,0,71.4,0c23.8,0,47.6,0,71.7,0
		c0-9.6,0-18.9,0-28.5c-86,0-171.9,0-258.2,0c0,9.2,0,18.5,0,28.4c28.3,0,56.6,0,85,0c-47.1,6.2-84.9,28.2-113.9,67
		c0-72.4,0-144,0-216.5c-8.2,2.6-15.7,5-23.7,7.5C42,62.2,39,53.4,35.7,44c12.4-4,24.4-8.2,36.6-11.8
		c41.5-12.2,83.9-19.4,127.2-21.4c1.4-0.1,2.8-0.5,4.2-0.7C219.1,10.1,234.4,10.1,249.8,10.1z M97.4,155.4c86.5,0,172.5,0,258.6,0
		c0-33.6,0-66.8,0-100.2c-86.4-21.7-172.5-21.7-258.6,0.1C97.4,88.9,97.4,122,97.4,155.4z"/>
	<path class="st1" d="M75.7,328.4c-17,0-33.3,0-50,0c0-9.5,0-18.8,0-28.8c1.6,0,3.3,0,5,0c18.5,0,37.1-0.1,55.6,0.1
		c2.8,0,4.5-0.9,6.3-3.2c32.8-43.1,76.3-61.9,129.4-51.8c52.2,9.9,86.4,42.5,100.9,93.7c20.6,72.5-29.2,149.1-103.6,160.8
		C147,510.5,80.9,462.4,69.8,390.3c-2.9-18.9-1.5-37.6,4.1-55.9C74.5,332.6,75,330.8,75.7,328.4z M119,309.3
		c21.7,12.5,42.9,24.7,64.3,37.1c0-25.3,0-49.7,0-74.5C157.1,276.2,136,288.5,119,309.3z M291.3,408.8c9.7-25.3,9.8-49.6-0.1-74.5
		c-21.7,12.5-42.7,24.7-64.4,37.2C248.7,384.1,269.7,396.3,291.3,408.8z M105.1,334.5c-10.4,24.9-10.2,49.2-0.5,74.3
		c21.6-12.5,42.8-24.7,64.5-37.3C147.4,358.9,126.6,346.9,105.1,334.5z M183.3,470.6c0-24.8,0-49.1,0-74
		c-21.6,12.5-42.6,24.6-64.1,37C136.2,454.1,157.1,466.5,183.3,470.6z M212.5,470.7c26.3-4.3,47.3-16.5,64.1-37.1
		c-21.5-12.4-42.6-24.6-64.1-37C212.5,421.5,212.5,445.7,212.5,470.7z M212.6,346.4c21.6-12.5,42.6-24.6,64.1-37
		c-17-20.6-38-32.9-64.1-37.1C212.6,297.1,212.6,321.3,212.6,346.4z"/>
</g>
</svg>
