<?xml version="1.0" encoding="UTF-8"?>
<svg id="Layer_1" data-name="Layer 1" xmlns="http://www.w3.org/2000/svg" viewBox="0 0 215.7 311.77">
  <defs>
    <style>
      .cls-1, .cls-2, .cls-3 {
        stroke-width: 0px;
      }

      .cls-2 {
        fill: #fff;
      }

      .cls-3 {
        fill: #80c99b;
      }
    </style>
  </defs>
  <path class="cls-2" d="M215.7,311.77H0C0,207.85,0,103.92,0,0c71.9,0,143.8,0,215.7,0,0,103.92,0,207.85,0,311.77ZM129.22,179.1c-1.03,1.06-2.31,1.98-3.02,3.23-.85,1.51-1.45,3.26-1.72,4.97-.19,1.24.46,2.63,1.93,2.91,1.46.28,2.4-.87,2.65-2.03.57-2.66.86-5.39,1.16-8.1.03-.27-.68-.62-1.04-.94,1.52-.91,2.3-2.35,3.11-3.87.58-1.08,1.59-2.19,2.68-2.7,2.48-1.14,3.74-2.85,3.6-5.56-.08-1.49.45-2.57,1.88-3.14,1.17-.47,1.32-1.43,1.13-2.5-.2-1.15-.82-2.1-2.05-2.04-1.06.05-2.12.43-3.13.82-.8.31-1.52.83-2.31,1.28-1.17-3.16-1.94-3.51-5.06-2.48-.15.05-.3.1-.45.16-1.39.62-2.36.14-3.28-1.02-2.77-3.49-6.65-5.28-10.75-6.62-.78-.26-1.68-.32-2.51-.24-2.43.22-3.62,1.96-3.12,4.35.32,1.54,1.36,2.41,2.75,2.78,1.61.43,2.3,1.46,2.21,2.99-.1,1.72-.32,3.45-.62,5.15-.29,1.66-.83,3.28-1.08,4.94-.55,3.76-1.01,7.54-1.46,11.32-.12,1.04-.17,2.11-.11,3.16.07,1.2.74,1.73,2.03,1.6,1.86-.2,3.11-1.19,4.11-2.66,1.38-2.05,3.12-3.2,5.77-2.62,1.84.4,3.39-.29,4.65-1.77.51-.6,1.37-.91,2.07-1.35ZM106.9,64.42c1.43-1.02,2.73-2.43,4.34-3.01,3.87-1.42,6.17-4.29,8.24-7.58,2.28-3.63,4.69-7.18,7.04-10.77,1.5-2.3,2.6-4.75,2.57-7.56-.02-2.54-1.44-4.94-3.65-5.15-2.46-.23-3.17-1.63-3.66-3.58-.16-.61-.36-1.22-.63-1.8-1.49-3.23-1.21-6.22.89-9.14,1.31-1.83,1.77-4.01,1.25-6.22-.54-2.26-1.21-4.5-1.98-6.69-.63-1.81-2.26-2.13-3.59-.75-.62.63-1.11,1.41-1.55,2.19-.63,1.13-1.55,1.76-2.82,1.73-1.1-.03-2.28.01-3.29-.35-2.13-.76-4.22-1.67-6.24-2.71-2.05-1.05-4.09-2.23-6.46-1.72-1.7.37-3.23.2-4.82-.34-.85-.29-1.75-.46-2.64-.57-2.7-.31-4.55.79-5.43,3.36-.42,1.24-.7,2.57-.76,3.88-.1,1.87-.71,3.49-1.7,5.04-.94,1.47-1.91,2.95-2.62,4.53-1.35,3.02-1.27,5.92.97,8.63.51.62.84,1.82.61,2.57-2.11,7.1-2.26,14.27-1.35,21.57.21,1.64-.35,3.42-.79,5.07-.14.52-1.03,1.09-1.64,1.18-2.59.4-3.93-.69-4.33-3.4-.18-1.25-.6-2.44-1.91-2.61-1-.13-2.23.11-3.06.64-.7.45-1.25,1.51-1.39,2.38-.43,2.61-.76,5.25-.85,7.88-.03.8.77,2.22,1.38,2.32,2.08.37,2.33,1.72,2.09,3.25-1.18,7.48,1.68,14.42,2.82,21.59.14.87.94,1.69,1.56,2.43.89,1.07,1.96,1.99,2.84,3.07.83,1.02,1.37,2.3,2.29,3.2,1.8,1.75,4.4,1.13,5.25-1.23.38-1.06.35-2.28.42-3.44.06-1.04.01-2.09.01-3.51,1.7.19,3.27.12,4.67.57,2.29.75,2.91,3.61,1.2,5.32-.84.84-1.9,1.57-3,2.02-2.43.99-3.71,2.84-4.09,5.27-.32,2.02-.41,4.11-.34,6.16.11,3.01,1.64,3.72,4.12,2.1,1.46-.95,2.17-.65,2.19,1.11.01,1.52.63,2.66,1.91,3.21,2.17.93,4.39,1.85,6.68,2.34,2.77.6,3.82-.21,4.79-2.89,1.4-3.83,4.06-4.95,7.87-3.3,1.36.59,2.68,1.33,4.09,1.72,1.82.5,3.08,1.55,4.03,3.1,1.03,1.67,2.03,3.36,3.18,4.95.8,1.11,1.72,2.16,2.75,3.05,1.23,1.05,3.49,1.05,4.81.2,1.49-.96,1.46-2.42,1.05-3.83-.61-2.08-1.42-4.1-2.12-6.14-.45-1.31-.87-2.64-1.31-3.96.14-.12.27-.25.41-.37.6.21,1.42.25,1.77.67.95,1.15,2.02,2.36,2.47,3.73.63,1.96,1.7,3.12,3.58,3.89,3.1,1.25,5.37,3.42,6.81,6.54.88,1.89,2.04,3.76,3.46,5.27,2.03,2.16,4.55,3.33,7.56,1.66.27-.15.62-.3.9-.25.53.09,1.17.21,1.5.56.17.18-.08,1.03-.38,1.34-1.37,1.42-1.21,2.98-.51,4.57.76,1.72,2.03,2.91,3.8,3.64.96.4,1.79,1.09,2.71,1.59,2.67,1.43,4.8,3.4,6.27,6.07.19.35.61.58.92.87,1.45,1.31,2.84,2.7,4.36,3.92,1.3,1.04,2.64,2.13,4.15,2.76,1.98.83,2.17,1.01.7,2.63-1.12,1.24-1.86,2.55-1.51,4.31.05.25-.22.68-.46.85-3.01,2.09-6.27,1.67-8.74-1.1-.21-.24-.4-.58-.67-.66-1.01-.29-2.14-.89-3.04-.64-1.29.35-1.3,1.77-1.2,2.97.03.41.19.82.32,1.23.72,2.26,1.43,4.52,2.18,6.77.25.75.47,1.54.9,2.19,1.11,1.69,2.52,2.9,4.76,2.28,1.01-.28,1.61.2,2.02,1.07.83,1.75.97,3.47.28,5.36-1.26,3.47.48,9.17,3.33,11.42,2.13,1.68,3.44,1.2,4.02-1.42.22-.99.52-1.96.78-2.94.17,0,.33.01.5.02.21.68.35,1.39.65,2.03.71,1.51,1.38,3.06,2.31,4.43.34.5,1.46.83,2.06.65.46-.13.87-1.16.93-1.81.1-1.26,0-2.54-.15-3.8-.25-2.15-.81-4.28-.84-6.42-.02-1.81-.55-3.19-1.83-4.36-.74-.68-1.61-1.25-2.22-2.04-.48-.62-1.04-1.58-.89-2.23.52-2.19.34-4.3-.02-6.46-.06-.38.51-1.24.7-1.22.64.09,1.58.32,1.79.78,1.26,2.78,1.52,3.07,4.52,2.62,2.34-.36,4.48-.25,6.6.97.65.37,1.65.12,2.5.16,0-.95.3-2.05-.07-2.82-.86-1.81-2.09-3.43-3.07-5.19-.44-.79-.69-1.71-.89-2.6-.36-1.64-.2-3.56-1.02-4.91-1.6-2.65-1.98-5.26-1.27-8.18.15-.61.14-1.26.16-1.9.07-2.31-.54-4.39-2.04-6.19-1.44-1.74-2.85-3.5-4.25-5.27-2.14-2.72-4.81-2.73-7.22-.24-.76.78-2.09,1.46-3.14,1.43-2.73-.07-5.49-.41-8.17-.93-2.17-.43-2.83-1.66-2.68-3.91.17-2.75.28-5.48-2.09-6.9.16-1.5.63-2.77.33-3.82-.67-2.33-3.65-3.42-5.88-2.41-1.47.67-2.51.45-3.21-.86-.81-1.52-1.49-3.11-2.32-4.89,1.44-.07,2.79-.11,4.14-.22,2.31-.19,3.34-.97,3.63-2.65.35-2.04-.23-3.02-2.49-3.99-.87-.37-1.83-.57-2.69-.97-2.19-1.01-4.4-2-6.51-3.18-1.61-.9-3.28-.58-3.87,1.17-.32.96-.26,2.06-.33,3.11-.12,1.72-.7,2.25-1.7,2.02-.4-2.02-.42-4.01-1.2-5.64-2.36-4.9-8.01-7.92-13.35-6.82-4.3.89-6.52,2.2-5.55,6.9.24,1.15-.53,1.34-1.24,1.34-1.37-.01-2.74-.2-4.11-.35-2.08-.23-3.51-1.35-4.38-3.24-.93-2.02-1.85-4.04-2.8-6.04-.37-.77-.49-1.38.19-2.14,1.25-1.39,1.67-3.12,1.05-4.9-.54-1.53-1.23-3.05-2.1-4.42-1.25-1.96-2.77-3.75-4.1-5.66-1.27-1.82-.94-3.38.87-4.64.48-.33,1-.59,1.51-.87,3.69-2.03,4.41-4.9,1.9-8.69ZM190.58,263.64c.41.76.75,1.4,1.1,2.04.61,1.11,1.33,2.2,2.79,1.89,1.46-.31,1.8-1.63,1.79-2.86,0-1.84-.27-3.69-.37-5.53-.02-.4.19-.81.3-1.21.39.21.96.33,1.13.66.45.88.87,1.82,1.06,2.79.93,4.67,1.74,9.36,2.68,14.03.24,1.18.68,2.35,1.2,3.44.57,1.19,1.27,1.14,1.89-.05.29-.56.61-1.17.67-1.78.27-2.61.59-5.23.62-7.85.03-2.69.44-3.36,2.94-4.38.88-.36,1.69-1.22,2.23-2.05,1.01-1.54,1.9-3.18,2.67-4.86.76-1.68,1.45-3.41,1.89-5.2.57-2.31-.11-4.43-1.77-6.15-.81-.83-1.68-1.65-2.65-2.26-1.44-.9-1.63-1.93-1.12-3.49.81-2.43,1.14-4.96.52-7.52-.31-1.28-.67-2.54-.92-3.83-.41-2.04-1.59-2.98-3.67-2.86-.52.03-1.05-.07-1.66-.12.15-.32.17-.43.24-.5.23-.22.45-.46.73-.61,2.68-1.49,3.53-3.92,3.12-6.74-.33-2.29-.98-4.54-1.62-6.77-.34-1.18-1.32-1.74-2.58-1.71-.74.02-1.56.2-2.2-.06-.67-.27-1.6-.93-1.67-1.51-.27-2.19-1.55-3.3-3.39-4.22-1.64-.81-3.13-1.93-4.68-2.93-.53-.34-1-.8-1.56-1.09-2.12-1.08-3.54-.42-3.95,1.9-.77,4.36-.17,8.36,3.3,11.51.76.69,1.22,1.65.42,2.3-.58.47-1.71.34-2.59.34-.3,0-.59-.41-.89-.63-2.61-2-3.81-1.55-4.41,1.65-.39,2.07-1.67,2.54-3.26,1.22-1.41-1.17-2.99-1.66-4.72-.89-1.75.77-2.77,2.22-2.76,4.12.01,1.29.51,2.57.72,3.86.11.67.05,1.36.06,2.04-.84-.03-1.7.05-2.51-.12-.48-.1-.87-.57-1.31-.87-1.34-.92-2.65-.84-4.01.01-1.65,1.04-2.07,2.69-2.49,4.43-.21.87-.6,2.02-1.27,2.4-1.5.85-3.19,1.44-4.87,1.85-1.56.38-2.22-.46-1.86-2.03.42-1.81.69-3.65-.85-5.06-2.19-2-4.77-3.37-7.73-3.79-.95-.13-2.04.05-2.93.41-1.47.59-2.83,1.43-4.22,2.2-1.64.91-2.77,2.22-3.43,4.01-.82,2.24-2.3,4.03-4.61,4.74-2.67.81-5.44,1.29-8.16,1.96-5.89,1.46-8.75,3.53-9.14,9.1-.18,2.57-1.21,5.16-2.25,7.57-1.38,3.21-1.98,6.46-1.77,9.91.07,1.2.22,2.38,1.45,2.97,1.24.59,2.27-.02,3.2-.78,2.99-2.43,5.57-5.19,7.05-8.84.54-1.32,1.02-2.69,1.72-3.92,1.02-1.78,2.11-3.55,3.39-5.15.56-.7,1.65-.98,2.5-1.46.12.14.23.28.35.41-.05.57-.11,1.13-.14,1.7-.03.58-.1,1.17-.04,1.74.18,1.94.91,2.64,2.81,2.72,3.11.14,4.62-1.05,5.32-4.11.08-.33.44-.6.67-.9.28.32.69.59.8.96.13.43-.02.94,0,1.42.06,2.29.71,4.3,2.88,5.47,1.37.74,2.85,1.08,4.23.16,1.43-.95,1.5-2.48,1.23-4.01-.21-1.2-.69-2.37-.75-3.57-.04-.88.14-2.14.71-2.57.55-.4,1.86-.18,2.61.2,2.41,1.21,4.78,2.52,7.04,3.99,1.26.82,2.27,2.02,3.38,3.06.88.81.88,1.76.32,2.73-1.06,1.83-2.06,3.7-3.25,5.44-2.09,3.06-1.97,6.41-.42,9.35,1.06,2.02,1.79,3.83,1.69,6.08-.09,1.95.22,3.92,1.79,5.25,2.38,2,4.8,4,7.41,5.67,1.85,1.18,3.98,1.99,6.09,2.66,2.26.72,4.28.14,5.68-2,.61-.93,1.32-1.8,2.1-2.59.7-.71,1.57-1.09,2.56-.14-.23.49-.44.97-.67,1.44-1.39,2.87-.71,5.72,1.83,7.63,2.02,1.51,3.23,1.25,4.51-.91.81-1.36,1.71-2.66,2.56-4,.88-1.38,1.84-2.73,2.61-4.17,2.57-4.8,1.63-10.61-2.2-14.45-.85-.86-1.69-1.78-2.31-2.81-1.12-1.88-.66-4.34,1.04-5.54ZM56.05,176.47c-3.66-.04-5.18,1.77-3.95,4.75.6,1.45.07,2.22-1.07,2.58-3.11,1-4.91,3.3-6.56,5.91-.64,1.01-1.78,1.73-2.72,2.54-.91.77-2.03,1.35-2.75,2.26-1.55,1.94-2.94,4.02-4.35,6.07-2.47,3.6-5.67,6.37-9.33,8.73-2.97,1.92-5.83,4.05-8.54,6.32-4.53,3.78-7.64,8.6-9.55,14.18-.29.84-.48,1.75-.5,2.63-.05,2.09.79,2.6,2.67,1.63,2.83-1.46,5.54-3.07,7.76-5.45.86-.93,2.08-1.66,3.27-2.12,2.23-.86,3.99-2.16,5.15-4.24,1.11-1.98,2.74-3.2,4.88-4.06,2.08-.83,4.33-1.79,5.87-3.33,2.76-2.77,4.9-6.03,5.4-10.18.41-3.44,3.62-6.38,6.9-7.24,1.42-.37,2.96-1.1,3.94-2.15,1.99-2.13,4.17-3.77,6.86-4.97,3.94-1.75,5.34-7.03,3.19-10.75-.42-.73-.68-1.69-.62-2.51.15-2.16.54-4.3.81-6.45.29-2.32.23-4.58-1.59-6.37-1.03-1.01-1.94-1.02-2.65.05-2.46,3.66-4.34,7.46-2.51,12.16ZM120.48,200c.6,1.84.97,3.79,1.85,5.49,1.24,2.42,3.03,4.32,6.14,4.34.54,0,1.24.8,1.58,1.39,1.1,1.91,1.9,4.01,3.12,5.83.95,1.41,2.58,1.75,4.29,1.29,1.69-.45,3-1.51,3.12-3.21.13-1.85.09-3.88-.54-5.58-2.05-5.55-1.09-10.58,1.92-15.44.41-.67.78-1.41.97-2.16.73-2.92,2.02-5.54,3.76-7.99,1.73-2.43,1.63-7.15-.22-9.48-.64-.8-1.73-1.56-2.71-1.71-3.54-.57-6.93.53-8.96,3.3-2.2,2.98-3.66,6.58-2.53,10.59.16.57.07,1.28-.09,1.87-1.21,4.55-.64,4.08-4.93,4.4-4.2.31-6.42,2.76-6.76,7.07ZM105.33,126.93c-.11-3.31-1.51-5.83-4.67-7.08-1.41-.56-2.93-.94-4.43-1.18-3.26-.51-6.45-1.1-9.34-2.88-.96-.59-2.15-.94-3.28-1.11-3.21-.49-6.39,1.99-6.4,4.88-.01,1.87.74,2.69,2.53,2.22,1.88-.5,2.2.48,2.36,1.86.18,1.61.74,3.01,2.26,3.78,2.41,1.23,3.36,3.2,3.23,5.85-.13,2.64.94,4.92,2.75,6.72,2.02,2.01,4.25,3.82,6.44,5.65,1.2,1,2.58,1.03,3.78-.01,2.71-2.37,4.27-5.54,4.45-8.97.15-3.01-.73-6.07.31-9.08.07-.19,0-.42,0-.63ZM141.51,201.74c.13,1.26.23,2.53.4,3.78.15,1.1.23,2.3,1.63,2.6,1.43.3,2.41-.48,2.94-1.65.71-1.58,1.24-3.26,1.78-4.91.75-2.3,1.81-4.37,3.67-6.02,4.12-3.65,6.38-8.01,6.34-13.76-.03-4.22,1-8.46,1.53-12.69.09-.73.18-1.49.07-2.2-.22-1.35-1.12-1.8-2.32-1.15-.62.34-1.3.87-1.57,1.49-.76,1.78-1.7,3.61-1.91,5.49-.66,5.87-3.92,10.69-6.07,15.95-.15.37-.55.63-.84.94-3.19,3.43-6.16,6.95-5.67,12.13ZM159.5,153.99c-.51-4.91-1.94-8.9-6.88-10.72-.24-.09-.46-.25-.69-.4-2.34-1.54-4.69-3.06-7.02-4.62-1.72-1.15-3.5-.88-4.12.79-.76,2.03-1.03,4.17.13,6.14.54.92.31,1.53-.15,2.3-.5.86-1.17,1.77-1.22,2.69-.04.87.39,2.17,1.04,2.56.62.38,1.85-.02,2.72-.35.59-.22,1.02-.89,1.5-1.38,2.27-2.3,3.71-2.05,5.65.47,1.33,1.73,3.02,3.23,4.76,4.56.7.54,2.12.71,2.92.36.67-.29.92-1.57,1.35-2.41ZM169.74,198.67c.13-.82.32-1.65.38-2.48.08-.99.15-2,.05-2.99-.12-1.16-.8-1.68-2.06-1.68-1.52,0-3.07-.13-4.55-.46-1.82-.41-3.4-.09-4.76,1.08-1.92,1.65-3.84,3.32-5.62,5.12-1.93,1.95-1.67,4.32.47,6.03.33.26.72.52.91.87.97,1.82,2.61,2.06,4.36,1.82,2.15-.3,4.28-.72,6.4-1.19,3.13-.69,4.74-2.89,4.41-6.12ZM92.51,290.37c3.24.72,4.71-.36,5.53-3.71.08-.31.17-.61.22-.93.18-1.02-.09-1.71-1.2-2.06-1-.32-1.94-.85-2.9-1.29-3.76-1.71-7.33-.19-8.8,3.74-1.07,2.86.47,4.91,3.49,4.63,1.37-.12,2.73-.29,3.65-.39ZM71.57,299.15c-.89.4-1.85.68-2.64,1.22-1.56,1.08-2.96,2.39-4.53,3.44-2.15,1.44-2.81,3.48-2.71,5.89.06,1.4.89,1.94,2.28,1.6,1.38-.34,2.76-.7,4.13-1.07,3.72-1.03,6.58-5.58,5.75-9.1-.27-1.16-.76-2-2.28-1.96ZM113.24,280.04c.94-.7,1.95-1.19,2.57-1.98.89-1.15,1.48-2.52,2.21-3.79,1.02-1.78.69-2.92-1.3-3.49-2.08-.59-4.23-.95-6.37-1.26-.6-.09-1.34.25-1.9.59-1.82,1.12-2.64,6.53.05,7.99,1.41.77,2.98,1.23,4.74,1.94ZM78.58,149.72c-.05-2.02-.7-2.98-1.92-3.53-2.01-.91-4.04-1.77-6.05-2.69-1.27-.59-2.12-.28-2.54,1.09-.55,1.8-.11,3.33,1.03,4.88,1.79,2.43,4.71,2.9,7.02,4.4.17.11.81-.13.91-.35.64-1.43,1.19-2.9,1.54-3.79ZM144.87,134.99c-.8-4.39-3.2-8.01-7.01-10.73-.08-.06-.19-.09-.29-.14-1.23-.57-2.06-.14-2.49,1.07-.71,2.01-.65,4.05.6,5.77,1.86,2.57,4.36,4.43,7.38,5.51,1.16.41,1.71-.06,1.8-1.49ZM191.13,197.65c.14,1.36.44,2.65,1.8,2.99,1.43.36,2.32-.75,2.74-1.89.36-.99.46-2.17.33-3.23-.3-2.51-.67-5.03-1.27-7.49-.24-.96-1.06-1.87-1.83-2.55-.3-.27-1.45-.1-1.78.27-1.68,1.86-2.7,4.09-2.37,6.65.09.72.8,1.71,1.45,1.95,1.22.44,1.44,1.05,1.13,2.15-.12.4-.14.83-.19,1.16ZM167.44,110.29c-.93-2.26-1.97-4.9-3.13-7.48-.11-.24-1.08-.37-1.41-.16-.54.35-1.09.94-1.28,1.55-.86,2.82-1.62,5.67-2.36,8.52-.13.49-.04,1.06.08,1.57.44,1.89,3.04,3.41,4.39,2.39,1.92-1.46,3.71-3.18,3.71-6.37ZM118.33,138.73c-.15-1.04-.21-1.67-.33-2.29-.31-1.72-1.3-2.2-2.79-1.28-.52.32-1.06.78-1.34,1.3-.83,1.53-1.65,3.08-2.27,4.71-.79,2.06.01,4.16,1.85,5.42,1.61,1.1,2.73.87,3.29-.98.71-2.37,1.13-4.83,1.59-6.88ZM4.33,260.03c-.02,2.08,1.11,3.65,1.9,3.18,1.74-1.02,3.6-2.04,4.95-3.5,1.63-1.77,1.09-4.4-.67-5.38-1.79-.99-4.17-.13-5.1,2.04-.58,1.34-.83,2.82-1.07,3.66ZM116.85,119.14c-.02-3.24-2.06-4.73-4.69-3.87-2.01.66-3.31,2.9-2.22,4.84,1.07,1.9,2.91,3.37,4.48,4.96.15.16,1.16-.12,1.22-.34.5-1.98.88-4,1.21-5.59ZM116.46,83.6c.38-1.75-.31-2.52-2.19-2.82-1.62-.26-2.49.22-2.93,1.9-.23.89-.31,1.9-.15,2.81.3,1.77.72,3.52,1.28,5.23.25.78.93,1.42,1.41,2.13.76-.68,1.56-1.32,2.24-2.06.25-.27.32-.79.32-1.2.03-2,.01-3.99.01-5.99ZM73.08,155.69c-.37-.8-.5-1.41-.86-1.81-.95-1.06-1.93-2.12-3.04-2.99-.64-.5-1.56-.64-2.35-.94-.31.86-.92,1.72-.89,2.57.12,2.95,1.91,5.17,3.69,7.34.17.21,1.06.19,1.18,0,.83-1.37,1.55-2.81,2.27-4.16ZM117.34,101.53c.03-2.1-3.06-6.47-5.02-7.1-1.22-.39-2.06.2-1.99,1.63.16,3.06,1.16,5.69,4.15,7.13,1.77.85,2.93.44,2.86-1.65ZM172.61,160.48c.03-2.42-1.27-3.97-4.24-5.01-1.61-.56-2.58.08-2.67,1.76-.14,2.84,1.61,4.96,4.43,5.36,1.74.25,2.45-.36,2.48-2.11ZM129.57,141.38c-.14-.54-.21-1.07-.42-1.54-.61-1.4-2.07-2.03-3.86-1.77-1.47.22-2.26,1.12-2.4,2.53-.16,1.56.58,2.63,2.07,3.16.4.14.79.31,1.16.51,1.89,1,2.32.84,3.06-1.2.19-.54.27-1.12.4-1.69ZM154.29,140.77c-.55-1.44-.98-2.9-1.66-4.25-.83-1.65-2.83-2.66-3.83-2.14-1.06.55-1.4,3.23-.31,4.65.91,1.18,2.18,2.1,3.38,3.02.4.3,1.18.47,1.58.29.39-.18.52-.91.84-1.56ZM204.38,197.37c-.2-1.34-.29-2.56-.57-3.73-.18-.73-.77-1.32-1.49-.52-.98,1.1-1.96,2.24-2.7,3.5-1.02,1.75-.5,4.14.94,5.36,1.36,1.15,2.68.86,3.17-.84.36-1.25.45-2.58.65-3.78ZM150.77,213.64c.02-2.87-1.48-4.08-3.59-2.92-1.51.84-2.91,3.57-2.34,5.15.26.73,1.17,1.55,1.92,1.71,2.46.51,4-1.11,4.01-3.94ZM5.82,239.93c-.31-.44-.71-1.63-1.42-1.85-.83-.26-2.24.01-2.83.61-.71.73-1.09,2.02-1.14,3.1-.11,2.28,1.76,3.63,2.97,5.25.08.1,1.14-.22,1.2-.47.45-2.01.76-4.04,1.21-6.64Z"/>
  <path class="cls-1" d="M106.9,64.42c2.51,3.79,1.79,6.66-1.9,8.69-.51.28-1.04.54-1.51.87-1.81,1.26-2.13,2.82-.87,4.64,1.33,1.91,2.85,3.7,4.1,5.66.87,1.37,1.56,2.89,2.1,4.42.62,1.77.2,3.51-1.05,4.9-.68.75-.56,1.36-.19,2.14.95,2,1.88,4.02,2.8,6.04.87,1.88,2.3,3.01,4.38,3.24,1.37.15,2.74.34,4.11.35.72,0,1.48-.18,1.24-1.34-.97-4.7,1.24-6.01,5.55-6.9,5.34-1.1,10.99,1.92,13.35,6.82.78,1.63.8,3.62,1.2,5.64,1,.23,1.58-.3,1.7-2.02.07-1.04,0-2.14.33-3.11.59-1.76,2.25-2.07,3.87-1.17,2.11,1.18,4.32,2.17,6.51,3.18.86.4,1.81.59,2.69.97,2.26.97,2.84,1.94,2.49,3.99-.29,1.68-1.32,2.45-3.63,2.65-1.35.11-2.7.15-4.14.22.84,1.77,1.51,3.37,2.32,4.89.7,1.31,1.74,1.52,3.21.86,2.22-1,5.2.08,5.88,2.41.3,1.05-.17,2.32-.33,3.82,2.37,1.41,2.27,4.15,2.09,6.9-.14,2.25.51,3.48,2.68,3.91,2.69.53,5.44.86,8.17.93,1.05.03,2.38-.64,3.14-1.43,2.41-2.49,5.08-2.48,7.22.24,1.39,1.77,2.81,3.54,4.25,5.27,1.5,1.81,2.11,3.88,2.04,6.19-.02.64,0,1.29-.16,1.9-.71,2.91-.33,5.53,1.27,8.18.81,1.35.65,3.27,1.02,4.91.2.89.45,1.81.89,2.6.97,1.76,2.21,3.38,3.07,5.19.37.78.07,1.87.07,2.82-.84-.04-1.85.22-2.5-.16-2.11-1.22-4.26-1.33-6.6-.97-3,.46-3.25.16-4.52-2.62-.21-.46-1.15-.69-1.79-.78-.19-.03-.77.84-.7,1.22.36,2.16.54,4.27.02,6.46-.15.65.4,1.61.89,2.23.61.78,1.48,1.36,2.22,2.04,1.28,1.17,1.81,2.55,1.83,4.36.03,2.14.59,4.27.84,6.42.15,1.26.25,2.54.15,3.8-.05.66-.47,1.68-.93,1.81-.6.17-1.73-.16-2.06-.65-.93-1.37-1.6-2.92-2.31-4.43-.3-.64-.44-1.35-.65-2.03-.17,0-.33-.01-.5-.02-.26.98-.56,1.95-.78,2.94-.58,2.63-1.9,3.1-4.02,1.42-2.85-2.25-4.59-7.94-3.33-11.42.69-1.89.55-3.61-.28-5.36-.41-.87-1.01-1.35-2.02-1.07-2.24.62-3.65-.59-4.76-2.28-.42-.65-.65-1.44-.9-2.19-.74-2.25-1.46-4.51-2.18-6.77-.13-.4-.29-.81-.32-1.23-.1-1.2-.09-2.62,1.2-2.97.89-.24,2.03.35,3.04.64.27.08.46.42.67.66,2.47,2.77,5.73,3.19,8.74,1.1.24-.17.51-.6.46-.85-.35-1.76.39-3.07,1.51-4.31,1.47-1.63,1.27-1.8-.7-2.63-1.51-.64-2.85-1.73-4.15-2.76-1.52-1.22-2.91-2.6-4.36-3.92-.31-.28-.73-.52-.92-.87-1.47-2.68-3.6-4.64-6.27-6.07-.92-.49-1.76-1.19-2.71-1.59-1.77-.73-3.04-1.92-3.8-3.64-.7-1.59-.86-3.15.51-4.57.3-.31.55-1.16.38-1.34-.33-.35-.97-.47-1.5-.56-.28-.05-.63.1-.9.25-3.01,1.66-5.53.5-7.56-1.66-1.42-1.51-2.58-3.38-3.46-5.27-1.45-3.12-3.71-5.29-6.81-6.54-1.88-.76-2.95-1.93-3.58-3.89-.44-1.37-1.51-2.58-2.47-3.73-.35-.42-1.17-.46-1.77-.67-.14.12-.27.25-.41.37.44,1.32.86,2.64,1.31,3.96.71,2.05,1.51,4.07,2.12,6.14.41,1.41.44,2.87-1.05,3.83-1.31.85-3.58.85-4.81-.2-1.03-.88-1.96-1.94-2.75-3.05-1.14-1.59-2.15-3.28-3.18-4.95-.96-1.56-2.21-2.6-4.03-3.1-1.42-.39-2.73-1.13-4.09-1.72-3.81-1.65-6.47-.53-7.87,3.3-.98,2.68-2.02,3.49-4.79,2.89-2.29-.49-4.51-1.42-6.68-2.34-1.28-.55-1.9-1.69-1.91-3.21-.02-1.76-.73-2.06-2.19-1.11-2.49,1.62-4.01.91-4.12-2.1-.08-2.05.02-4.14.34-6.16.38-2.42,1.66-4.27,4.09-5.27,1.1-.45,2.17-1.17,3-2.02,1.7-1.72,1.09-4.57-1.2-5.32-1.4-.46-2.97-.39-4.67-.57,0,1.43.05,2.47-.01,3.51-.07,1.15-.04,2.37-.42,3.44-.85,2.37-3.45,2.98-5.25,1.23-.92-.9-1.46-2.18-2.29-3.2-.88-1.08-1.94-2-2.84-3.07-.62-.74-1.42-1.55-1.56-2.43-1.13-7.17-4-14.11-2.82-21.59.24-1.54-.01-2.88-2.09-3.25-.6-.11-1.4-1.53-1.38-2.32.09-2.64.42-5.28.85-7.88.14-.87.69-1.93,1.39-2.38.84-.53,2.07-.77,3.06-.64,1.3.17,1.73,1.36,1.91,2.61.39,2.71,1.73,3.8,4.33,3.4.62-.1,1.5-.67,1.64-1.18.44-1.65,1-3.43.79-5.07-.91-7.29-.76-14.47,1.35-21.57.22-.75-.1-1.95-.61-2.57-2.24-2.71-2.33-5.61-.97-8.63.71-1.58,1.68-3.06,2.62-4.53.99-1.55,1.61-3.17,1.7-5.04.07-1.31.34-2.64.76-3.88.88-2.57,2.73-3.67,5.43-3.36.89.1,1.79.28,2.64.57,1.59.54,3.12.71,4.82.34,2.37-.52,4.4.66,6.46,1.72,2.01,1.03,4.11,1.94,6.24,2.71,1.01.36,2.19.33,3.29.35,1.27.03,2.19-.59,2.82-1.73.43-.78.93-1.56,1.55-2.19,1.34-1.38,2.96-1.06,3.59.75.77,2.19,1.44,4.43,1.98,6.69.53,2.22.07,4.39-1.25,6.22-2.1,2.92-2.37,5.91-.89,9.14.26.57.47,1.19.63,1.8.49,1.95,1.21,3.35,3.66,3.58,2.21.21,3.63,2.61,3.65,5.15.02,2.81-1.07,5.26-2.57,7.56-2.35,3.59-4.75,7.14-7.04,10.77-2.07,3.29-4.38,6.16-8.24,7.58-1.6.59-2.91,1.99-4.34,3.01ZM156.06,110.88c-.39-.47-.44-.58-.52-.62-3.42-1.74-7.48-2.05-10.5-4.76-.74-.66-1.69.09-1.81,1.16-.13,1.26-.22,2.54-.53,3.76-.36,1.41-1.87,2.2-3.25,1.87-1.55-.38-1.48-1.58-1.36-2.79.03-.32.07-.64.17-.94.45-1.45.14-2.71-.9-3.81-.73-.77-1.38-1.61-2.16-2.33-3.38-3.14-8.06-3.65-12.24-1.68-1.48.7-1.73,1.37-1.38,2.9.7,3.02-1.15,4.82-4.22,4.37-1-.15-1.99-.29-2.99-.43-1.78-.26-3.34-1.06-4.15-2.64-1.57-3.05-2.98-6.19-4.32-9.36-.59-1.39-.44-2.92.71-4,1.23-1.16,1.14-2.27.35-3.53-.62-.99-1.22-1.99-1.9-2.93-1.1-1.55-2.34-3.02-3.38-4.62-2.45-3.73-1.23-8.01,2.72-9.99.66-.33,1.29-.75,1.84-1.23.66-.57.87-1.16.16-2.02-1.41-1.67-1.58-3.3-.1-4.88,1.48-1.59,3.27-3.04,5.2-4.01,2.45-1.24,4.48-2.72,5.95-5.05,2.9-4.56,5.89-9.06,8.81-13.6.43-.66.77-1.4,1.04-2.14.97-2.71-.07-4.53-2.91-4.87-1.6-.2-2.5-.99-2.99-2.42-.77-2.26-1.59-4.49-2.27-6.78-.68-2.3-.93-4.82.5-6.78,2.71-3.75,2.73-7.49.9-11.49-.02-.05,0-.12-.04-.15-.31-.39-.62-1.08-.94-1.08-.47,0-1,.41-1.39.77-.34.31-.54.78-.76,1.2-1.11,2.16-2.91,2.94-5.26,2.72-3.14-.3-5.94-1.48-8.58-3.13-1.99-1.24-4.06-1.94-6.47-1.72-1.43.13-2.97.14-4.33-.27-5.37-1.59-7.18-.33-7.75,5.25-.18,1.77-.93,3.53-1.68,5.18-.67,1.48-1.76,2.77-2.54,4.21-.86,1.6-1.07,3.37.24,4.77,2.07,2.21,1.99,4.59,1.18,7.24-1.74,5.72-1.94,11.57-1.17,17.46.42,3.25.5,6.44-1.15,9.45-.64,1.16-1.55,1.65-2.82,1.7-3.02.13-4.58-1.3-5.23-4.58-.12-.62-.83-1.56-1.31-1.59-.75-.04-1.54.56-2.29.93-.14.07-.23.37-.25.57-.22,1.94-.46,3.88-.6,5.83-.02.24.46.67.78.77,1.71.49,2.36,1.72,2.39,3.35.04,2.17-.06,4.35,0,6.52.06,1.9.1,3.83.44,5.69.61,3.33,1.41,6.62,2.21,9.91.16.67.54,1.59,1.06,1.82,1.79.78,2.49,2.35,3.38,3.85.56.94,1.15,1.96,1.99,2.61.53.42,1.65.5,2.29.23.54-.23,1.03-1.16,1.1-1.83.15-1.36-.13-2.77.04-4.12.1-.82.48-1.84,1.09-2.31,1.68-1.29,6.01-.28,7.23,1.5,2.35,3.41,1.5,8.07-1.93,10.37-.79.53-1.77.77-2.51,1.35-.79.62-1.61,1.38-2.01,2.27-.49,1.08-.7,2.34-.78,3.54-.05.88.31,1.78.49,2.68.76-.29,1.56-.49,2.26-.88,1.5-.84,2.68-.51,3.28,1.12.23.64.18,1.38.42,2.01.21.55.55,1.26,1.02,1.45,1.99.83,4.01,1.69,6.1,2.17,2.42.56,3.38-.19,4.13-2.54,1.29-4.07,4.62-5.5,8.47-3.65,1,.48,1.99,1.09,3.06,1.32,3.25.69,5.19,2.82,6.78,5.53,1.07,1.82,2.31,3.55,3.62,5.21.92,1.16,2.19,1.84,3.78,1.58,1.02-.16,1.53-.59,1.07-1.72-.64-1.57-1.27-3.15-1.79-4.76-.56-1.71-1.16-3.43-1.4-5.19-.12-.85.29-2.25.91-2.61.72-.41,2.04-.19,2.93.18,1.67.69,2.62,2.21,2.99,3.9.43,1.95,1.51,3.07,3.32,3.85,3.56,1.54,6.07,4.14,7.47,7.83.44,1.16,1.21,2.25,2,3.23,2.35,2.91,4.22,3.38,7.76,2.11,1.52-.55,3.29,0,3.63,1.21.52,1.84.56,3.63-.5,5.37-.24.4-.23,1.3.05,1.61.67.71,1.55,1.23,2.39,1.76.8.51,1.68.89,2.47,1.4,2.72,1.75,5.39,3.55,6.88,6.59.11.22.38.36.58.54,1.79,1.65,3.53,3.35,5.4,4.91.95.79,2.05,1.53,3.21,1.91,2.05.68,3.08,1.64,2.74,3.77-.21,1.33-1.13,2.54-1.65,3.84-.24.61-.52,1.34-.4,1.94.25,1.24-.05,2.18-.98,2.98-3.29,2.8-7.9,2.49-10.72-.7-.68-.77-1.41-1.55-2.44-1.23.67,2.43,1.29,4.77,1.95,7.09.68,2.4,2.01,3.34,4.41,2.98,1.48-.22,2.34.47,2.91,1.67,1.3,2.72,1.87,5.52.77,8.46-1.02,2.73.46,4.91,1.61,7.12.31.59,1.12.95,1.75,1.34.7.43,1.19.24,1.38-.63.24-1.08.42-2.2.86-3.21.24-.55.96-1.23,1.45-1.22.49,0,1.17.71,1.41,1.26.52,1.21.7,2.56,1.24,3.76.39.86,1.15,1.55,1.74,2.31l.5-.3c-.03-.57-.02-1.14-.11-1.7-.33-2.03-1.08-4.08-.96-6.08.16-2.6-1.49-3.71-2.96-5.2-.83-.83-1.8-1.96-1.87-3.01-.23-3.46-.15-6.94-.04-10.41.04-1.32.96-2.13,2.37-2.04,1.3.09,2.62.27,2.74,2.01.08,1.27.79,1.8,2.01,1.66,2.64-.3,5.31-1.08,7.87.63-.41-.97-.8-1.8-1.39-2.45-1.22-1.35-1.57-2.88-1.62-4.66-.03-1.39-.2-2.98-.89-4.12-1.87-3.07-2.22-6.17-1.37-9.6.51-2.08.16-4.06-1.4-5.77-1.42-1.55-2.71-3.22-3.95-4.91-1.68-2.3-4.02-2.39-5.96-.36-.78.81-2.03,1.7-3.05,1.67-3.15-.08-6.32-.44-9.43-.99-1.74-.31-2.99-1.68-3.47-3.41-.27-.97-.18-2.1-.06-3.13.25-2.04.1-3.78-2.12-4.75-1.29-.56-1.66-1.78-1.28-3.09.21-.72.72-1.35,1.14-2.08-1.15-.91-2.35-1.19-3.79-.52-1.8.84-3.47.28-4.43-1.46-.94-1.71-1.83-3.45-2.64-5.22-1.17-2.57.01-4.49,2.81-4.7,1.4-.1,2.81-.2,4.51-.32Z"/>
  <path class="cls-1" d="M190.58,263.64c-1.7,1.2-2.16,3.66-1.04,5.54.61,1.03,1.45,1.96,2.31,2.81,3.83,3.84,4.77,9.65,2.2,14.45-.77,1.44-1.73,2.79-2.61,4.17-.85,1.33-1.75,2.64-2.56,4-1.28,2.16-2.49,2.43-4.51.91-2.54-1.91-3.22-4.76-1.83-7.63.23-.47.44-.94.67-1.44-.99-.95-1.85-.57-2.56.14-.78.79-1.49,1.66-2.1,2.59-1.4,2.14-3.42,2.71-5.68,2-2.11-.67-4.24-1.48-6.09-2.66-2.61-1.67-5.03-3.67-7.41-5.67-1.57-1.33-1.88-3.3-1.79-5.25.1-2.25-.63-4.06-1.69-6.08-1.55-2.94-1.66-6.28.42-9.35,1.19-1.74,2.19-3.61,3.25-5.44.56-.97.56-1.91-.32-2.73-1.12-1.03-2.13-2.24-3.38-3.06-2.26-1.47-4.63-2.78-7.04-3.99-.76-.38-2.07-.6-2.61-.2-.57.42-.76,1.69-.71,2.57.06,1.2.53,2.37.75,3.57.27,1.53.2,3.06-1.23,4.01-1.38.92-2.85.58-4.23-.16-2.17-1.17-2.82-3.18-2.88-5.47-.01-.48.14-.99,0-1.42-.11-.37-.52-.64-.8-.96-.23.3-.59.56-.67.9-.7,3.06-2.21,4.25-5.32,4.11-1.89-.09-2.63-.78-2.81-2.72-.05-.58.01-1.16.04-1.74.03-.57.09-1.13.14-1.7-.12-.14-.23-.28-.35-.41-.85.47-1.94.75-2.5,1.46-1.28,1.6-2.37,3.37-3.39,5.15-.7,1.23-1.19,2.6-1.72,3.92-1.48,3.64-4.06,6.41-7.05,8.84-.93.75-1.96,1.37-3.2.78-1.23-.59-1.38-1.77-1.45-2.97-.21-3.45.38-6.7,1.77-9.91,1.04-2.41,2.07-5,2.25-7.57.39-5.57,3.25-7.64,9.14-9.1,2.72-.67,5.49-1.14,8.16-1.96,2.31-.71,3.79-2.5,4.61-4.74.66-1.79,1.79-3.11,3.43-4.01,1.39-.77,2.76-1.61,4.22-2.2.89-.36,1.98-.55,2.93-.41,2.96.41,5.54,1.79,7.73,3.79,1.54,1.4,1.27,3.24.85,5.06-.36,1.57.3,2.41,1.86,2.03,1.68-.41,3.37-1.01,4.87-1.85.67-.38,1.06-1.52,1.27-2.4.43-1.73.84-3.39,2.49-4.43,1.36-.86,2.67-.93,4.01-.01.44.3.84.78,1.31.87.81.16,1.67.09,2.51.12-.01-.68.05-1.37-.06-2.04-.21-1.3-.71-2.57-.72-3.86-.02-1.89,1.01-3.34,2.76-4.12,1.73-.77,3.32-.28,4.72.89,1.59,1.32,2.87.84,3.26-1.22.6-3.2,1.79-3.64,4.41-1.65.29.22.59.63.89.63.88,0,2.01.13,2.59-.34.8-.65.34-1.61-.42-2.3-3.47-3.15-4.07-7.15-3.3-11.51.41-2.32,1.83-2.98,3.95-1.9.56.28,1.02.74,1.56,1.09,1.55,1,3.04,2.12,4.68,2.93,1.84.91,3.12,2.02,3.39,4.22.07.58.99,1.24,1.67,1.51.64.26,1.46.08,2.2.06,1.27-.03,2.24.53,2.58,1.71.64,2.23,1.29,4.48,1.62,6.77.41,2.83-.43,5.25-3.12,6.74-.27.15-.49.4-.73.61-.07.07-.09.18-.24.5.61.05,1.14.15,1.66.12,2.07-.12,3.26.81,3.67,2.86.26,1.29.61,2.55.92,3.83.62,2.56.28,5.09-.52,7.52-.52,1.56-.32,2.59,1.12,3.49.98.61,1.85,1.43,2.65,2.26,1.66,1.72,2.34,3.84,1.77,6.15-.44,1.78-1.13,3.52-1.89,5.2-.76,1.68-1.65,3.32-2.67,4.86-.54.83-1.35,1.69-2.23,2.05-2.5,1.02-2.91,1.68-2.94,4.38-.03,2.62-.35,5.24-.62,7.85-.06.61-.38,1.21-.67,1.78-.62,1.19-1.32,1.24-1.89.05-.53-1.09-.97-2.26-1.2-3.44-.94-4.67-1.75-9.36-2.68-14.03-.19-.97-.61-1.91-1.06-2.79-.17-.33-.74-.44-1.13-.66-.1.41-.32.82-.3,1.21.1,1.85.36,3.69.37,5.53,0,1.23-.33,2.55-1.79,2.86-1.46.31-2.18-.78-2.79-1.89-.35-.64-.69-1.28-1.1-2.04ZM202.74,276.49c.27-.01.54-.02.81-.03.18-1.86.42-3.72.53-5.59.1-1.58-.08-3.18.11-4.75.22-1.82,1.29-3.06,3.09-3.67.68-.23,1.56-.53,1.87-1.07,1.58-2.81,3.09-5.66,4.44-8.59.71-1.54.21-3.01-1.16-4.11-1.03-.83-2.01-1.72-3.05-2.55-1.5-1.2-2.02-2.82-1.52-4.55.95-3.32,1.39-6.48.09-9.9-.83-2.19-.45-2.34-2.85-2.27-1.93.05-2.94-.97-2.91-2.91.03-1.77.97-2.92,2.38-3.87,2.07-1.39,2.46-2.63,1.75-5.03-.23-.76-.5-1.51-.68-2.28-.54-2.4-.65-2.51-3.02-2.38-2.57.13-3.52-.66-4.11-3.13-.18-.75-.62-1.65-1.22-2.06-2.3-1.59-4.71-3-7.08-4.48-.22-.14-.45-.28-.7-.37-1.36-.55-1.87-.27-2.05,1.16-.36,2.77.42,5.15,2.56,6.99,2.03,1.74,2.12,3.9,1.45,6.24-.6,2.1-2.66,2.89-4.53,1.74-.45-.28-.84-.64-1.28-.94-1.48-1.02-1.87-.86-2.27.83-.34,1.46-1.03,2.69-2.46,3.32-1.42.63-2.09-.6-2.96-1.3-.04-.03-.08-.07-.13-.1-1.24-.86-3-.78-4.16.14-1.25.98-.83,2.06-.41,3.28.39,1.13.74,2.38.67,3.55-.05.89-.6,1.93-1.25,2.57-1.1,1.08-2.52.8-4.29-.53-2.06-1.55-4.33-.8-5.07,1.69-.09.3-.16.62-.2.93-.31,2.62-1.72,4.24-4.29,4.89-.87.22-1.69.62-2.56.86-2.2.6-3.99-.61-4.14-2.89-.07-1.03.27-2.09.32-3.14.02-.46-.07-1.07-.36-1.38-3.04-3.28-7.62-4.06-11.5-2.02-.56.3-1.13.59-1.7.87-1.52.77-2.61,1.88-3.24,3.53-1.19,3.11-3.42,5.21-6.66,6.09-1.89.51-3.81.94-5.74,1.23-2.56.39-5.02,1.07-7.03,2.7-.82.67-1.62,1.8-1.76,2.81-.58,4.08-1.81,7.92-3.35,11.72-.7,1.72-.86,3.69-1.01,5.57-.14,1.72.92,2.33,2.21,1.2,1.98-1.72,4.04-3.51,5.45-5.68,1.84-2.82,2.92-6.11,4.63-9.03.99-1.69,2.41-3.23,3.93-4.46,1.54-1.24,3.18-.36,3.39,1.63.1.93-.06,1.9-.18,2.84-.11.87.22,1.24,1.07,1.39,2.32.4,3.82-.62,4.38-3,.24-1.01.59-2.03,1.89-1.99,1.23.04,1.95.81,2.14,1.97.13.77.09,1.58.08,2.37-.03,2.21,1.06,3.64,3.19,4.11,1.83.4,2.69-.41,2.14-2.18-.65-2.08-.86-4.14-.24-6.25.73-2.5,2.08-3.26,4.39-2.08,2.97,1.51,5.85,3.21,8.69,4.94.88.54,1.54,1.44,2.28,2.19,2.17,2.21,2.18,4.74.89,7.33-.94,1.89-2.03,3.71-3.17,5.48-1.53,2.37-1.43,4.38.19,6.69.66.95,1.02,2.19,1.26,3.34.21,1.02.1,2.11.09,3.17-.01,1.4.33,2.66,1.51,3.5,2.96,2.11,5.91,4.24,8.95,6.23,1.04.68,2.31,1.08,3.53,1.41,2,.54,3.71.21,4.99-1.71.78-1.17,1.74-2.32,2.88-3.12,1.81-1.27,3.73-.23,3.78,1.98.03,1.13-.18,2.34-.61,3.38-.83,2.03-.7,2.86,1.11,4.12,1.31.92,1.96.75,2.82-.61.9-1.43,1.89-2.8,2.81-4.22.89-1.38,1.85-2.73,2.57-4.19,1.58-3.22.92-6.61-1.56-9.18-.96-.99-1.94-1.99-2.7-3.12-2.05-3.01-1.81-6.26-.42-9.39.92-2.07,2.31-2.02,3.44-.08.29.5.45,1.11.84,1.52.39.42.98.65,1.48.96.21-.49.6-.98.58-1.46-.06-1.32-.33-2.62-.46-3.93-.08-.83-.27-1.75,0-2.49.25-.7.96-1.59,1.59-1.7.62-.12,1.7.45,2.06,1.04.7,1.14,1.23,2.47,1.5,3.79.65,3.16,1.05,6.37,1.66,9.54.44,2.31,1.05,4.6,1.59,6.89Z"/>
  <path class="cls-1" d="M56.05,176.47c-1.83-4.7.05-8.51,2.51-12.16.71-1.06,1.63-1.06,2.65-.05,1.81,1.79,1.88,4.05,1.59,6.37-.27,2.15-.65,4.29-.81,6.45-.06.82.2,1.79.62,2.51,2.14,3.72.75,9-3.19,10.75-2.69,1.19-4.86,2.84-6.86,4.97-.98,1.04-2.52,1.78-3.94,2.15-3.28.86-6.49,3.8-6.9,7.24-.5,4.15-2.64,7.41-5.4,10.18-1.54,1.54-3.78,2.5-5.87,3.33-2.14.85-3.77,2.07-4.88,4.06-1.16,2.09-2.92,3.39-5.15,4.24-1.19.46-2.41,1.19-3.27,2.12-2.22,2.38-4.93,3.99-7.76,5.45-1.88.97-2.72.46-2.67-1.63.02-.88.21-1.79.5-2.63,1.91-5.58,5.02-10.4,9.55-14.18,2.71-2.27,5.57-4.4,8.54-6.32,3.66-2.36,6.86-5.13,9.33-8.73,1.41-2.05,2.79-4.13,4.35-6.07.73-.91,1.85-1.49,2.75-2.26.95-.81,2.08-1.52,2.72-2.54,1.65-2.61,3.45-4.91,6.56-5.91,1.14-.37,1.67-1.13,1.07-2.58-1.24-2.98.28-4.78,3.95-4.75ZM8.35,231.23c.19.19.39.38.58.57,2.25-1.63,4.63-3.11,6.71-4.93,1.61-1.41,3.22-2.66,5.21-3.52,1.26-.54,2.68-1.39,3.33-2.51,1.73-2.99,4.22-4.7,7.37-5.88,5.23-1.97,7.73-6.11,8.95-11.41.99-4.31,3.24-7.82,8.01-8.81,1.94-.4,3.37-1.46,4.55-2.96,1.24-1.57,2.69-2.77,4.65-3.43,1.07-.36,2.09-1.06,2.95-1.81,1.7-1.5,1.76-3.09.74-5.1-.53-1.04-.94-2.29-.9-3.43.1-2.58.6-5.15.74-7.73.06-1.09-.19-2.27-.62-3.28-.34-.81-1.12-.93-1.65.06-.48.88-1.02,1.74-1.49,2.62-1.12,2.08-1.24,4.09.31,6.09.49.63.79,1.52.87,2.32.17,1.82-.71,2.31-2.45,1.68-.89-.32-1.89-.35-3.07-.55,1.5,4.23.79,6.05-2.83,7.75-1.79.84-3.11,2.06-4.21,3.72-.98,1.47-2.08,3.13-3.55,3.94-1.64.9-2.74,2.06-3.73,3.5-.84,1.22-1.72,2.42-2.55,3.64-3.06,4.49-6.9,8.06-11.63,10.83-5.21,3.05-9.62,7.16-13.07,12.13-1.36,1.96-2.15,4.32-3.2,6.49Z"/>
  <path class="cls-1" d="M129.22,179.1c-.7.44-1.56.75-2.07,1.35-1.26,1.48-2.8,2.17-4.65,1.77-2.65-.58-4.39.57-5.77,2.62-1,1.47-2.25,2.46-4.11,2.66-1.29.14-1.96-.39-2.03-1.6-.06-1.05-.02-2.12.11-3.16.45-3.78.91-7.55,1.46-11.32.24-1.66.79-3.28,1.08-4.94.29-1.7.51-3.43.62-5.15.09-1.53-.6-2.56-2.21-2.99-1.39-.37-2.43-1.24-2.75-2.78-.5-2.39.69-4.13,3.12-4.35.82-.08,1.72-.01,2.51.24,4.11,1.34,7.98,3.13,10.75,6.62.92,1.16,1.89,1.64,3.28,1.02.14-.06.3-.11.45-.16,3.12-1.03,3.89-.68,5.06,2.48.79-.45,1.51-.97,2.31-1.28,1.01-.38,2.07-.77,3.13-.82,1.23-.06,1.85.89,2.05,2.04.19,1.07.04,2.03-1.13,2.5-1.43.57-1.96,1.65-1.88,3.14.14,2.71-1.12,4.42-3.6,5.56-1.09.5-2.1,1.61-2.68,2.7-.82,1.52-1.6,2.96-3.11,3.87l.04-.04ZM111.86,184.75c2.22.14,3.36-1.07,4.31-2.42,1.58-2.24,3.55-3.38,6.37-2.86,1.68.31,3.09-.17,4.18-1.64.48-.64,1.4-.94,2.01-1.51.82-.77,1.85-1.52,2.25-2.51.82-2.01,2.07-3.3,4.07-4.16.87-.38,1.74-1.42,2.03-2.35.49-1.59.53-3.32.77-5.04.2.05.07-.03.01,0-.87.5-1.71,1.05-2.59,1.52-1.48.79-2.68.36-2.84-1.21-.15-1.49-.96-1.44-1.96-1.21-.72.16-1.41.47-2.11.69-1.3.42-2.54.18-3.27-.94-2.1-3.21-5.53-4.57-8.68-6.21-1.8-.93-3.93-1.53-6.39-.03,1.04.45,1.83.63,2.42,1.07.84.63,2.06,1.36,2.2,2.2.4,2.37.91,4.97.32,7.2-1.15,4.35-1.49,8.75-1.97,13.16-.22,2.03-.72,4.03-1.13,6.22Z"/>
  <path class="cls-1" d="M120.48,200c.34-4.31,2.55-6.76,6.76-7.07,4.29-.32,3.72.15,4.93-4.4.16-.59.25-1.3.09-1.87-1.13-4.01.34-7.61,2.53-10.59,2.03-2.76,5.42-3.87,8.96-3.3.98.16,2.07.91,2.71,1.71,1.84,2.33,1.94,7.04.22,9.48-1.74,2.46-3.03,5.07-3.76,7.99-.19.76-.56,1.49-.97,2.16-3,4.86-3.96,9.89-1.92,15.44.63,1.7.67,3.73.54,5.58-.12,1.7-1.42,2.76-3.12,3.21-1.71.45-3.34.12-4.29-1.29-1.23-1.82-2.03-3.92-3.12-5.83-.34-.59-1.04-1.38-1.58-1.39-3.11-.02-4.9-1.92-6.14-4.34-.87-1.7-1.25-3.65-1.85-5.49ZM142.81,175.34c-.94.16-1.89.24-2.8.5-3.98,1.1-7.37,5.18-6.58,8.58.67,2.89.11,5.42-.71,8.06-.81,2.61-1.19,2.91-3.94,3.12-1.31.1-2.64.28-3.88.67-1.5.47-2.51,1.57-2.7,3.22-.36,3.24,2.76,7.19,5.98,7.42,1.62.12,2.46.86,2.99,2.34.55,1.54,1.16,3.09,1.99,4.49,1.17,1.98,3.05,2.5,4.9,1.61,1.57-.76,1.94-1.94.91-4.38-1.7-4-1.62-8.01-.7-12.15.61-2.74,2.16-5.04,3.15-7.55,1.37-3.45,2.74-6.82,4.74-9.98,1.57-2.49-.45-5.75-3.35-5.95Z"/>
  <path class="cls-1" d="M105.33,126.93c0,.21.06.44,0,.63-1.04,3.01-.16,6.07-.31,9.08-.17,3.44-1.73,6.61-4.45,8.97-1.2,1.04-2.58,1.01-3.78.01-2.2-1.83-4.42-3.64-6.44-5.65-1.82-1.8-2.88-4.08-2.75-6.72.13-2.65-.82-4.62-3.23-5.85-1.51-.77-2.08-2.17-2.26-3.78-.15-1.38-.48-2.35-2.36-1.86-1.79.47-2.54-.35-2.53-2.22.02-2.88,3.2-5.37,6.4-4.88,1.13.17,2.32.52,3.28,1.11,2.88,1.78,6.08,2.36,9.34,2.88,1.5.24,3.02.62,4.43,1.18,3.16,1.25,4.56,3.77,4.67,7.08ZM79.29,118.91c3.11.09,3.5.45,4.1,3.58.02.1,0,.23.05.31.41.64.68,1.56,1.27,1.86,3.32,1.73,4.3,4.62,4.28,8.06,0,1.73.51,3.28,1.75,4.46,2.11,2,4.28,3.93,6.49,5.82,1.12.97,2.41.76,3.25-.3,1.9-2.4,3.54-4.89,3.11-8.3-.26-2.1-.07-4.3.25-6.41.24-1.59,0-2.9-1.18-3.86-1.01-.81-2.18-1.51-3.38-1.97-1.22-.47-2.56-.67-3.86-.85-3.06-.43-5.99-1.15-8.7-2.76-2.35-1.4-4.84-1.82-7.41.35Z"/>
  <path class="cls-1" d="M141.51,201.74c-.5-5.17,2.48-8.7,5.67-12.13.29-.31.69-.57.84-.94,2.15-5.26,5.41-10.08,6.07-15.95.21-1.88,1.14-3.71,1.91-5.49.26-.61.95-1.15,1.57-1.49,1.2-.65,2.1-.2,2.32,1.15.12.71.02,1.47-.07,2.2-.53,4.23-1.56,8.46-1.53,12.69.04,5.75-2.22,10.12-6.34,13.76-1.86,1.65-2.92,3.72-3.67,6.02-.54,1.66-1.07,3.33-1.78,4.91-.53,1.17-1.51,1.95-2.94,1.65-1.4-.29-1.49-1.5-1.63-2.6-.17-1.26-.27-2.52-.4-3.78ZM158.07,168.31c-1.71.84-2.1,2.54-2.5,4.23-.56,2.36-.85,4.82-1.68,7.08-1.22,3.32-2.76,6.53-4.27,9.75-.46.98-1.23,1.83-1.88,2.72-1.37,1.86-3.21,3.54-4,5.61-.75,1.97-.44,4.36-.51,6.56-.01.37.34.98.64,1.07.36.1,1.04-.13,1.23-.43.6-.98,1.09-2.04,1.52-3.11.71-1.76,1.06-3.74,2.08-5.28,1.47-2.23,3.34-4.22,5.16-6.2,1.58-1.7,2.56-3.59,2.76-5.92.46-5.34.95-10.67,1.44-16.08Z"/>
  <path class="cls-1" d="M159.5,153.99c-.44.84-.68,2.12-1.35,2.41-.8.34-2.22.17-2.92-.36-1.74-1.33-3.43-2.84-4.76-4.56-1.93-2.52-3.38-2.77-5.65-.47-.48.49-.91,1.16-1.5,1.38-.86.33-2.1.73-2.72.35-.65-.4-1.08-1.69-1.04-2.56.05-.92.72-1.83,1.22-2.69.45-.78.69-1.39.15-2.3-1.16-1.97-.89-4.11-.13-6.14.62-1.67,2.41-1.94,4.12-.79,2.33,1.55,4.68,3.08,7.02,4.62.22.14.44.31.69.4,4.93,1.82,6.37,5.81,6.88,10.72ZM157.69,154.17c-.03-3.49-1.1-5.95-3.95-7.57-3.02-1.73-5.97-3.6-8.92-5.44-.87-.54-1.8-1.32-2.7-.45-.85.82-.67,1.94.02,2.9,1.14,1.58.82,3.2.14,4.82-.25.61-.58,1.18-.88,1.77.11.12.23.23.34.35.69-.56,1.44-1.05,2.06-1.68,3.1-3.16,5.12-2.95,7.67.61,1,1.39,2.34,2.56,3.67,3.67.62.52,1.56.64,2.55,1.02Z"/>
  <path class="cls-1" d="M169.74,198.67c.33,3.24-1.28,5.44-4.41,6.12-2.12.46-4.25.89-6.4,1.19-1.75.24-3.4,0-4.36-1.82-.19-.35-.58-.61-.91-.87-2.14-1.71-2.4-4.08-.47-6.03,1.78-1.8,3.69-3.47,5.62-5.12,1.36-1.16,2.94-1.49,4.76-1.08,1.48.33,3.03.46,4.55.46,1.26,0,1.95.52,2.06,1.68.1.99.03,2-.05,2.99-.07.83-.25,1.65-.38,2.48ZM168.55,194.51c-1.68-.24-3.64-.66-5.62-.76-1.08-.05-2.44.13-3.25.76-2.12,1.63-4.01,3.55-5.99,5.37-.05.05-.02.2-.03.25.67.71,1.27,1.46,1.99,2.07.52.45,1.26,1.09,1.8,1.01,3.11-.48,6.22-1.03,9.26-1.83.75-.2,1.59-1.35,1.75-2.19.28-1.51.08-3.11.08-4.68Z"/>
  <path class="cls-1" d="M92.51,290.37c-.92.1-2.28.27-3.65.39-3.03.27-4.56-1.77-3.49-4.63,1.47-3.93,5.05-5.45,8.8-3.74.96.44,1.9.97,2.9,1.29,1.11.35,1.38,1.04,1.2,2.06-.06.31-.15.62-.22.93-.82,3.35-2.29,4.42-5.53,3.71ZM96.65,286.63c-4.92-3.36-8.14-2.94-9.93,1.15,2.82,0,5.56.05,8.29-.05.5-.02.98-.64,1.63-1.1Z"/>
  <path class="cls-1" d="M71.57,299.15c1.53-.04,2.01.8,2.28,1.96.82,3.53-2.04,8.08-5.75,9.1-1.37.38-2.75.74-4.13,1.07-1.39.34-2.22-.2-2.28-1.6-.1-2.4.56-4.45,2.71-5.89,1.57-1.05,2.97-2.36,4.53-3.44.78-.54,1.75-.82,2.64-1.22ZM62.91,308.45c5.47-.18,9.23-2.67,9.56-6.51-1.14.37-2.24.51-3.08,1.05-1.67,1.09-3.21,2.37-4.77,3.63-.57.46-1.01,1.07-1.72,1.83Z"/>
  <path class="cls-1" d="M113.24,280.04c-1.76-.71-3.33-1.17-4.74-1.94-2.69-1.46-1.87-6.87-.05-7.99.56-.34,1.3-.68,1.9-.59,2.14.31,4.29.67,6.37,1.26,1.99.56,2.33,1.71,1.3,3.49-.73,1.27-1.32,2.65-2.21,3.79-.62.79-1.63,1.28-2.57,1.98ZM116.22,273.26c-2.11-.36-3.97-.77-5.86-.98-1.46-.16-2.7,1.54-1.92,2.62,1.16,1.61,2.99,1.83,4.82,1.96,1.55.11,1.73-1.06,2.11-2.1.16-.43.45-.82.85-1.5Z"/>
  <path class="cls-1" d="M78.58,149.72c-.35.89-.9,2.36-1.54,3.79-.1.22-.74.46-.91.35-2.32-1.5-5.23-1.96-7.02-4.4-1.14-1.55-1.58-3.08-1.03-4.88.42-1.37,1.26-1.68,2.54-1.09,2,.93,4.03,1.79,6.05,2.69,1.22.55,1.87,1.5,1.92,3.53ZM77.02,149.44c-2.64-1.21-5.11-2.35-7.94-3.65,1.75,3.17,4.46,4.07,7.27,4.99.22-.44.43-.85.67-1.34Z"/>
  <path class="cls-1" d="M144.87,134.99c-.09,1.43-.64,1.9-1.8,1.49-3.03-1.08-5.52-2.94-7.38-5.51-1.24-1.72-1.31-3.76-.6-5.77.43-1.21,1.26-1.64,2.49-1.07.1.04.2.08.29.14,3.81,2.72,6.21,6.34,7.01,10.73ZM136.54,126.63c-.19.11-.39.22-.58.33.35.84.5,1.85,1.08,2.49,1.02,1.12,2.25,2.07,3.47,2.98.62.46,1.41.69,2.13,1.02.08-.13.16-.25.24-.38-2.11-2.14-2.88-5.62-6.33-6.44Z"/>
  <path class="cls-1" d="M191.13,197.65c.05-.33.08-.76.19-1.16.31-1.09.09-1.7-1.13-2.15-.65-.24-1.36-1.23-1.45-1.95-.33-2.56.69-4.78,2.37-6.65.33-.36,1.48-.54,1.78-.27.77.69,1.6,1.6,1.83,2.55.6,2.45.97,4.97,1.27,7.49.12,1.06.03,2.24-.33,3.23-.42,1.15-1.31,2.26-2.74,1.89-1.35-.34-1.66-1.63-1.8-2.99ZM192.8,197.84c1.54-.26,2.02-.64,1.88-1.58-.37-2.4-.77-4.8-1.24-7.18-.07-.38-.54-.86-.91-.94-.33-.07-.92.23-1.12.54-.54.86-.94,1.82-1.44,2.82,3.7,1.03,2.72,3.87,2.84,6.33Z"/>
  <path class="cls-1" d="M167.44,110.29c0,3.19-1.79,4.91-3.71,6.37-1.35,1.03-3.95-.5-4.39-2.39-.12-.51-.2-1.08-.08-1.57.74-2.85,1.5-5.7,2.36-8.52.18-.6.73-1.2,1.28-1.55.32-.21,1.3-.07,1.41.16,1.16,2.59,2.21,5.23,3.13,7.48ZM163.28,105.22c-.23.29-.6.56-.72.92-.65,2.01-1.31,4.02-1.78,6.08-.11.47.4,1.36.87,1.6.54.28,1.54.33,1.99,0,.86-.65,1.49-1.62,2.18-2.49.13-.16.13-.53.04-.73-.8-1.73-1.64-3.44-2.56-5.37Z"/>
  <path class="cls-1" d="M118.33,138.73c-.46,2.05-.87,4.51-1.59,6.88-.56,1.85-1.68,2.08-3.29.98-1.84-1.26-2.64-3.36-1.85-5.42.62-1.62,1.44-3.18,2.27-4.71.29-.53.82-.98,1.34-1.3,1.49-.92,2.48-.44,2.79,1.28.11.62.18,1.26.33,2.29ZM115.6,144.64c.48-2.43.93-4.7,1.38-6.96-.17-.1-.33-.19-.5-.29-.5.31-1.15.51-1.48.95-.56.75-.94,1.64-1.37,2.49-1.19,2.34-1.06,2.64,1.98,3.81Z"/>
  <path class="cls-1" d="M4.33,260.03c.24-.84.49-2.32,1.07-3.66.94-2.17,3.31-3.04,5.1-2.04,1.77.98,2.31,3.61.67,5.38-1.34,1.46-3.2,2.47-4.95,3.5-.79.47-1.92-1.1-1.9-3.18ZM5.99,260.23c3.75-1.46,4.07-1.72,4.15-3.23-2.41-.82-3.91.3-4.15,3.23Z"/>
  <path class="cls-1" d="M116.85,119.14c-.33,1.59-.71,3.6-1.21,5.59-.06.22-1.06.5-1.22.34-1.57-1.59-3.41-3.06-4.48-4.96-1.1-1.93.21-4.18,2.22-4.84,2.63-.87,4.67.62,4.69,3.87ZM114.22,122.23c.19-.03.39-.06.58-.08.08-1.25.55-2.65.13-3.7-.41-1.02-2.44-.65-3.78.54,1.03,1.08,2.05,2.16,3.07,3.24Z"/>
  <path class="cls-1" d="M116.46,83.6c0,2,.02,3.99-.01,5.99,0,.41-.07.93-.32,1.2-.69.74-1.49,1.38-2.24,2.06-.48-.71-1.16-1.35-1.41-2.13-.55-1.7-.98-3.46-1.28-5.23-.15-.91-.08-1.91.15-2.81.44-1.69,1.31-2.17,2.93-1.9,1.88.31,2.56,1.07,2.19,2.82ZM113.84,89.85c.2-.02.4-.04.6-.07.17-.2.46-.38.48-.59.14-1.67.3-3.35.26-5.02,0-.27-.98-.69-1.52-.72-.35-.02-1.08.61-1.04.85.33,1.86.8,3.7,1.22,5.55Z"/>
  <path class="cls-1" d="M73.08,155.69c-.72,1.35-1.44,2.79-2.27,4.16-.11.18-1.01.2-1.18,0-1.78-2.16-3.57-4.38-3.69-7.34-.03-.84.57-1.71.89-2.57.79.3,1.71.44,2.35.94,1.11.87,2.09,1.93,3.04,2.99.36.4.49,1,.86,1.81ZM67.93,152.7c-.15.12-.3.24-.45.36.83,1.39,1.66,2.78,2.5,4.18.2-.03.39-.07.59-.1.06-.57.38-1.35.13-1.67-.8-1.01-1.82-1.85-2.76-2.76Z"/>
  <path class="cls-1" d="M117.34,101.53c.07,2.09-1.1,2.5-2.86,1.65-2.99-1.44-3.99-4.07-4.15-7.13-.07-1.43.77-2.02,1.99-1.63,1.96.64,5.06,5.01,5.02,7.1ZM114.6,100.66c.19-.18.39-.36.58-.54-.94-.97-1.89-1.95-2.83-2.92-.17.17-.35.34-.52.52.92.98,1.85,1.96,2.77,2.95Z"/>
  <path class="cls-1" d="M129.17,179.13c.37.32,1.07.67,1.04.94-.3,2.71-.59,5.44-1.16,8.1-.25,1.17-1.19,2.31-2.65,2.03-1.47-.28-2.12-1.67-1.93-2.91.27-1.71.86-3.46,1.72-4.97.71-1.25,1.99-2.17,3.02-3.23,0,0-.04.04-.04.04ZM129.02,183.23c-.21-.08-.41-.16-.62-.23-.73.95-1.53,1.86-2.14,2.88-.22.37.03,1.01.06,1.53.53-.22,1.36-.29,1.54-.67.52-1.1.79-2.32,1.15-3.5Z"/>
  <path class="cls-1" d="M172.61,160.48c-.02,1.75-.73,2.36-2.48,2.11-2.82-.4-4.58-2.52-4.43-5.36.08-1.68,1.06-2.33,2.67-1.76,2.97,1.04,4.27,2.58,4.24,5.01ZM167.92,158c-.1.18-.2.37-.3.55.53,1.19,1.74,1.14,2.88,1.22l.2-.38c-.93-.46-1.86-.92-2.79-1.38Z"/>
  <path class="cls-1" d="M129.57,141.38c-.13.57-.2,1.15-.4,1.69-.74,2.04-1.18,2.2-3.06,1.2-.37-.2-.76-.37-1.16-.51-1.49-.53-2.23-1.6-2.07-3.16.14-1.41.93-2.31,2.4-2.53,1.79-.26,3.25.37,3.86,1.77.21.47.28,1.01.42,1.54Z"/>
  <path class="cls-1" d="M154.29,140.77c-.32.65-.45,1.38-.84,1.56-.41.19-1.19.02-1.58-.29-1.2-.92-2.48-1.84-3.38-3.02-1.09-1.42-.74-4.1.31-4.65,1-.52,3,.49,3.83,2.14.68,1.34,1.11,2.81,1.66,4.25Z"/>
  <path class="cls-1" d="M204.38,197.37c-.19,1.19-.28,2.53-.65,3.78-.49,1.7-1.81,1.99-3.17.84-1.44-1.22-1.96-3.61-.94-5.36.74-1.26,1.71-2.41,2.7-3.5.72-.8,1.31-.21,1.49.52.28,1.17.38,2.39.57,3.73ZM202.88,196.36c-.14-.04-.27-.08-.41-.12-.56.67-1.27,1.27-1.59,2.03-.14.33.5,1,.78,1.51.35-.24.95-.43,1.01-.74.18-.87.15-1.79.21-2.69Z"/>
  <path class="cls-1" d="M150.77,213.64c-.02,2.83-1.56,4.45-4.01,3.94-.75-.15-1.66-.98-1.92-1.71-.56-1.59.83-4.32,2.34-5.15,2.11-1.17,3.61.05,3.59,2.92ZM149.09,212.74c-1.02.63-1.85,1.14-2.68,1.66,2.22.61,2.8.24,2.68-1.66Z"/>
  <path class="cls-1" d="M5.82,239.93c-.45,2.59-.77,4.63-1.21,6.64-.06.25-1.12.57-1.2.47-1.22-1.63-3.08-2.98-2.97-5.25.05-1.07.43-2.37,1.14-3.1.59-.6,2-.87,2.83-.61.71.22,1.11,1.41,1.42,1.85ZM3.08,243.61l.56-.18.58-2.67c-.12-.12-.25-.25-.37-.37-.63.33-1.82.72-1.79.98.09.78.65,1.5,1.02,2.25Z"/>
  <path class="cls-3" d="M156.06,110.88c-1.7.12-3.1.22-4.51.32-2.8.21-3.98,2.13-2.81,4.7.81,1.77,1.69,3.52,2.64,5.22.96,1.74,2.63,2.29,4.43,1.46,1.44-.67,2.64-.4,3.79.52-.41.73-.93,1.36-1.14,2.08-.38,1.3,0,2.53,1.28,3.09,2.22.97,2.37,2.71,2.12,4.75-.12,1.03-.21,2.15.06,3.13.48,1.73,1.74,3.1,3.47,3.41,3.11.55,6.28.9,9.43.99,1.01.03,2.26-.86,3.05-1.67,1.94-2.03,4.28-1.94,5.96.36,1.24,1.7,2.54,3.37,3.95,4.91,1.56,1.71,1.91,3.69,1.4,5.77-.85,3.43-.5,6.54,1.37,9.6.7,1.14.86,2.73.89,4.12.04,1.78.39,3.31,1.62,4.66.59.65.98,1.48,1.39,2.45-2.56-1.72-5.23-.93-7.87-.63-1.22.14-1.92-.39-2.01-1.66-.12-1.74-1.44-1.92-2.74-2.01-1.4-.1-2.32.72-2.37,2.04-.11,3.47-.19,6.95.04,10.41.07,1.05,1.05,2.18,1.87,3.01,1.48,1.48,3.12,2.6,2.96,5.2-.12,2,.62,4.05.96,6.08.09.56.08,1.13.11,1.7l-.5.3c-.59-.76-1.35-1.45-1.74-2.31-.54-1.19-.72-2.55-1.24-3.76-.24-.55-.92-1.26-1.41-1.26-.49,0-1.21.68-1.45,1.22-.44,1-.62,2.12-.86,3.21-.19.87-.68,1.05-1.38.63-.63-.38-1.44-.75-1.75-1.34-1.16-2.21-2.64-4.39-1.61-7.12,1.1-2.93.53-5.74-.77-8.46-.57-1.19-1.44-1.89-2.91-1.67-2.39.36-3.73-.58-4.41-2.98-.66-2.33-1.28-4.66-1.95-7.09,1.02-.33,1.76.46,2.44,1.23,2.82,3.2,7.43,3.51,10.72.7.94-.8,1.23-1.73.98-2.98-.12-.6.15-1.33.4-1.94.52-1.3,1.44-2.51,1.65-3.84.34-2.12-.68-3.09-2.74-3.77-1.16-.38-2.26-1.12-3.21-1.91-1.86-1.56-3.6-3.27-5.4-4.91-.2-.18-.47-.32-.58-.54-1.49-3.04-4.16-4.84-6.88-6.59-.8-.51-1.67-.89-2.47-1.4-.84-.53-1.72-1.05-2.39-1.76-.29-.3-.3-1.21-.05-1.61,1.06-1.74,1.01-3.53.5-5.37-.34-1.2-2.1-1.75-3.63-1.21-3.53,1.27-5.4.8-7.76-2.11-.79-.98-1.55-2.06-2-3.23-1.41-3.69-3.92-6.29-7.47-7.83-1.81-.78-2.89-1.9-3.32-3.85-.38-1.7-1.33-3.21-2.99-3.9-.89-.37-2.21-.59-2.93-.18-.62.36-1.03,1.75-.91,2.61.24,1.76.84,3.49,1.4,5.19.52,1.61,1.15,3.19,1.79,4.76.47,1.13-.04,1.56-1.07,1.72-1.59.25-2.87-.43-3.78-1.58-1.31-1.66-2.55-3.39-3.62-5.21-1.59-2.72-3.53-4.85-6.78-5.53-1.06-.22-2.06-.83-3.06-1.32-3.84-1.85-7.18-.42-8.47,3.65-.75,2.36-1.71,3.1-4.13,2.54-2.09-.48-4.11-1.34-6.1-2.17-.47-.2-.81-.91-1.02-1.45-.24-.63-.19-1.37-.42-2.01-.6-1.63-1.78-1.96-3.28-1.12-.7.39-1.5.59-2.26.88-.18-.89-.54-1.8-.49-2.68.07-1.2.28-2.46.78-3.54.4-.88,1.23-1.64,2.01-2.27.73-.58,1.72-.83,2.51-1.35,3.43-2.29,4.28-6.95,1.93-10.37-1.22-1.78-5.55-2.78-7.23-1.5-.61.47-.99,1.49-1.09,2.31-.16,1.36.12,2.76-.04,4.12-.07.67-.56,1.59-1.1,1.83-.64.27-1.76.19-2.29-.23-.83-.65-1.43-1.67-1.99-2.61-.89-1.5-1.59-3.08-3.38-3.85-.53-.23-.9-1.15-1.06-1.82-.8-3.29-1.6-6.58-2.21-9.91-.34-1.86-.38-3.79-.44-5.69-.07-2.17.03-4.35,0-6.52-.03-1.63-.67-2.86-2.39-3.35-.32-.09-.8-.52-.78-.77.14-1.95.37-3.89.6-5.83.02-.2.1-.5.25-.57.75-.38,1.54-.97,2.29-.93.48.02,1.18.96,1.31,1.59.65,3.28,2.21,4.71,5.23,4.58,1.27-.05,2.18-.54,2.82-1.7,1.66-3.01,1.58-6.19,1.15-9.45-.77-5.9-.57-11.74,1.17-17.46.81-2.65.89-5.03-1.18-7.24-1.31-1.4-1.1-3.17-.24-4.77.78-1.44,1.87-2.73,2.54-4.21.75-1.65,1.5-3.41,1.68-5.18.56-5.59,2.38-6.85,7.75-5.25,1.35.4,2.9.4,4.33.27,2.41-.22,4.48.48,6.47,1.72,2.64,1.64,5.44,2.83,8.58,3.13,2.35.22,4.15-.57,5.26-2.72.22-.42.42-.89.76-1.2.39-.36.92-.78,1.39-.77.32,0,.63.69.94,1.08.03.04.02.11.04.15,1.84,3.99,1.82,7.74-.9,11.49-1.42,1.96-1.17,4.48-.5,6.78.67,2.28,1.5,4.52,2.27,6.78.49,1.43,1.39,2.22,2.99,2.42,2.85.35,3.88,2.17,2.91,4.87-.27.74-.61,1.48-1.04,2.14-2.93,4.54-5.92,9.04-8.81,13.6-1.48,2.32-3.51,3.81-5.95,5.05-1.93.97-3.72,2.43-5.2,4.01-1.48,1.58-1.31,3.21.1,4.88.72.85.5,1.44-.16,2.02-.55.48-1.18.9-1.84,1.23-3.96,1.98-5.17,6.26-2.72,9.99,1.04,1.59,2.28,3.06,3.38,4.62.67.95,1.28,1.95,1.9,2.93.79,1.26.88,2.37-.35,3.53-1.15,1.08-1.3,2.62-.71,4,1.34,3.16,2.75,6.3,4.32,9.36.81,1.57,2.37,2.38,4.15,2.64,1,.14,1.99.29,2.99.43,3.07.45,4.92-1.35,4.22-4.37-.35-1.52-.11-2.2,1.38-2.9,4.18-1.97,8.86-1.45,12.24,1.68.77.72,1.43,1.56,2.16,2.33,1.04,1.1,1.35,2.36.9,3.81-.09.3-.14.62-.17.94-.11,1.2-.19,2.41,1.36,2.79,1.38.33,2.9-.46,3.25-1.87.31-1.22.39-2.5.53-3.76.11-1.07,1.07-1.83,1.81-1.16,3.02,2.71,7.08,3.02,10.5,4.76.08.04.13.15.52.62Z"/>
  <path class="cls-3" d="M202.74,276.49c-.53-2.3-1.14-4.58-1.59-6.89-.61-3.17-1.01-6.38-1.66-9.54-.27-1.32-.8-2.65-1.5-3.79-.36-.59-1.43-1.15-2.06-1.04-.63.12-1.34,1-1.59,1.7-.26.74-.07,1.66,0,2.49.13,1.31.4,2.62.46,3.93.02.48-.37.97-.58,1.46-.5-.31-1.09-.55-1.48-.96-.38-.41-.55-1.02-.84-1.52-1.13-1.94-2.51-2-3.44.08-1.4,3.14-1.63,6.38.42,9.39.77,1.13,1.75,2.13,2.7,3.12,2.48,2.57,3.14,5.96,1.56,9.18-.72,1.47-1.68,2.81-2.57,4.19-.92,1.42-1.9,2.79-2.81,4.22-.86,1.35-1.51,1.52-2.82.61-1.8-1.26-1.94-2.09-1.11-4.12.43-1.04.63-2.25.61-3.38-.06-2.21-1.97-3.25-3.78-1.98-1.14.8-2.1,1.95-2.88,3.12-1.28,1.92-3,2.25-4.99,1.71-1.22-.33-2.49-.73-3.53-1.41-3.04-1.99-5.99-4.12-8.95-6.23-1.18-.84-1.52-2.11-1.51-3.5,0-1.06.12-2.15-.09-3.17-.24-1.16-.6-2.39-1.26-3.34-1.61-2.31-1.71-4.33-.19-6.69,1.14-1.77,2.23-3.6,3.17-5.48,1.29-2.59,1.28-5.12-.89-7.33-.74-.75-1.4-1.65-2.28-2.19-2.85-1.73-5.72-3.44-8.69-4.94-2.31-1.17-3.66-.41-4.39,2.08-.62,2.11-.4,4.17.24,6.25.55,1.77-.31,2.58-2.14,2.18-2.13-.47-3.23-1.89-3.19-4.11.01-.79.05-1.6-.08-2.37-.19-1.17-.92-1.94-2.14-1.97-1.3-.04-1.65.98-1.89,1.99-.55,2.39-2.06,3.41-4.38,3-.85-.15-1.18-.52-1.07-1.39.12-.94.28-1.91.18-2.84-.21-1.99-1.85-2.87-3.39-1.63-1.53,1.23-2.94,2.77-3.93,4.46-1.71,2.91-2.79,6.21-4.63,9.03-1.41,2.16-3.47,3.96-5.45,5.68-1.3,1.13-2.35.52-2.21-1.2.15-1.88.32-3.85,1.01-5.57,1.54-3.8,2.78-7.64,3.35-11.72.14-1.01.94-2.14,1.76-2.81,2.01-1.64,4.47-2.31,7.03-2.7,1.93-.29,3.86-.72,5.74-1.23,3.24-.88,5.47-2.98,6.66-6.09.63-1.65,1.72-2.76,3.24-3.53.57-.29,1.13-.58,1.7-.87,3.88-2.04,8.46-1.26,11.5,2.02.29.31.38.92.36,1.38-.05,1.05-.39,2.11-.32,3.14.15,2.28,1.95,3.48,4.14,2.89.87-.24,1.69-.64,2.56-.86,2.57-.65,3.98-2.27,4.29-4.89.04-.31.11-.63.2-.93.74-2.49,3-3.24,5.07-1.69,1.77,1.33,3.19,1.62,4.29.53.65-.64,1.2-1.68,1.25-2.57.07-1.17-.28-2.41-.67-3.55-.42-1.22-.84-2.3.41-3.28,1.17-.92,2.92-1,4.16-.14.04.03.08.06.13.1.87.7,1.54,1.93,2.96,1.3,1.43-.63,2.12-1.87,2.46-3.32.4-1.69.79-1.85,2.27-.83.44.3.83.66,1.28.94,1.87,1.15,3.93.36,4.53-1.74.67-2.34.58-4.5-1.45-6.24-2.15-1.84-2.92-4.22-2.56-6.99.18-1.42.7-1.7,2.05-1.16.24.1.47.24.7.37,2.37,1.48,4.78,2.9,7.08,4.48.6.42,1.04,1.31,1.22,2.06.59,2.47,1.54,3.26,4.11,3.13,2.38-.12,2.49-.02,3.02,2.38.17.77.45,1.52.68,2.28.71,2.39.32,3.64-1.75,5.03-1.41.95-2.36,2.1-2.38,3.87-.03,1.93.98,2.96,2.91,2.91,2.4-.06,2.02.08,2.85,2.27,1.3,3.42.86,6.58-.09,9.9-.5,1.73.02,3.35,1.52,4.55,1.04.82,2.02,1.71,3.05,2.55,1.37,1.11,1.87,2.57,1.16,4.11-1.35,2.92-2.86,5.78-4.44,8.59-.3.54-1.19.84-1.87,1.07-1.8.61-2.88,1.85-3.09,3.67-.19,1.56-.01,3.17-.11,4.75-.11,1.87-.35,3.73-.53,5.59-.27.01-.54.02-.81.03Z"/>
  <path class="cls-3" d="M8.35,231.23c1.05-2.18,1.84-4.53,3.2-6.49,3.45-4.97,7.86-9.08,13.07-12.13,4.73-2.77,8.57-6.34,11.63-10.83.84-1.23,1.71-2.42,2.55-3.64.99-1.44,2.1-2.6,3.73-3.5,1.47-.81,2.57-2.47,3.55-3.94,1.1-1.65,2.42-2.88,4.21-3.72,3.62-1.7,4.34-3.52,2.83-7.75,1.19.2,2.18.23,3.07.55,1.74.63,2.63.13,2.45-1.68-.08-.8-.38-1.69-.87-2.32-1.54-2-1.42-4-.31-6.09.48-.89,1.01-1.74,1.49-2.62.54-.99,1.31-.87,1.65-.06.42,1.01.68,2.2.62,3.28-.15,2.58-.65,5.15-.74,7.73-.04,1.14.37,2.4.9,3.43,1.03,2.01.97,3.61-.74,5.1-.86.75-1.88,1.46-2.95,1.81-1.96.66-3.42,1.86-4.65,3.43-1.18,1.5-2.61,2.56-4.55,2.96-4.77.99-7.02,4.5-8.01,8.81-1.21,5.3-3.72,9.44-8.95,11.41-3.15,1.19-5.64,2.89-7.37,5.88-.65,1.12-2.07,1.97-3.33,2.51-1.99.86-3.6,2.1-5.21,3.52-2.08,1.82-4.46,3.3-6.71,4.93-.19-.19-.39-.38-.58-.57Z"/>
  <path class="cls-3" d="M111.86,184.75c.41-2.19.91-4.19,1.13-6.22.48-4.42.83-8.81,1.97-13.16.59-2.23.08-4.83-.32-7.2-.14-.84-1.36-1.57-2.2-2.2-.59-.44-1.37-.62-2.42-1.07,2.46-1.5,4.59-.9,6.39.03,3.16,1.64,6.58,3,8.68,6.21.73,1.12,1.97,1.36,3.27.94.7-.23,1.39-.53,2.11-.69,1-.23,1.81-.28,1.96,1.21.16,1.57,1.36,2,2.84,1.21.88-.47,1.72-1.02,2.59-1.52.06-.04.19.04-.01,0-.24,1.72-.27,3.45-.77,5.04-.29.92-1.16,1.97-2.03,2.35-2,.86-3.25,2.15-4.07,4.16-.4.98-1.42,1.74-2.25,2.51-.61.57-1.53.86-2.01,1.51-1.09,1.46-2.5,1.95-4.18,1.64-2.82-.52-4.79.62-6.37,2.86-.95,1.35-2.09,2.56-4.31,2.42Z"/>
  <path class="cls-3" d="M142.81,175.34c2.9.2,4.92,3.45,3.35,5.95-1.99,3.17-3.36,6.53-4.74,9.98-1,2.52-2.54,4.82-3.15,7.55-.92,4.14-1,8.15.7,12.15,1.04,2.44.67,3.62-.91,4.38-1.85.89-3.73.37-4.9-1.61-.83-1.4-1.44-2.95-1.99-4.49-.52-1.48-1.37-2.22-2.99-2.34-3.22-.23-6.34-4.18-5.98-7.42.18-1.65,1.19-2.75,2.7-3.22,1.24-.39,2.57-.57,3.88-.67,2.75-.21,3.13-.51,3.94-3.12.82-2.64,1.38-5.17.71-8.06-.79-3.41,2.6-7.48,6.58-8.58.91-.25,1.87-.33,2.8-.5Z"/>
  <path class="cls-3" d="M79.29,118.91c2.57-2.17,5.07-1.75,7.41-.35,2.71,1.62,5.63,2.34,8.7,2.76,1.31.18,2.65.38,3.86.85,1.21.47,2.37,1.16,3.38,1.97,1.19.96,1.42,2.27,1.18,3.86-.31,2.11-.51,4.31-.25,6.41.43,3.41-1.22,5.89-3.11,8.3-.84,1.06-2.13,1.27-3.25.3-2.2-1.9-4.38-3.82-6.49-5.82-1.24-1.18-1.76-2.72-1.75-4.46.02-3.44-.97-6.33-4.28-8.06-.59-.31-.86-1.22-1.27-1.86-.05-.08-.03-.21-.05-.31-.59-3.13-.99-3.5-4.1-3.58Z"/>
  <path class="cls-3" d="M158.07,168.31c-.49,5.4-.98,10.74-1.44,16.08-.2,2.32-1.18,4.21-2.76,5.92-1.83,1.97-3.69,3.96-5.16,6.2-1.02,1.55-1.37,3.52-2.08,5.28-.43,1.07-.92,2.13-1.52,3.11-.19.31-.87.53-1.23.43-.3-.08-.66-.7-.64-1.07.07-2.21-.24-4.59.51-6.56.79-2.08,2.63-3.75,4-5.61.65-.89,1.42-1.74,1.88-2.72,1.5-3.21,3.05-6.42,4.27-9.75.83-2.26,1.12-4.72,1.68-7.08.4-1.68.79-3.39,2.5-4.23Z"/>
  <path class="cls-3" d="M157.69,154.17c-1-.38-1.94-.51-2.55-1.02-1.32-1.11-2.67-2.28-3.67-3.67-2.56-3.56-4.57-3.78-7.67-.61-.62.63-1.37,1.12-2.06,1.68-.11-.12-.23-.23-.34-.35.29-.59.62-1.16.88-1.77.68-1.62,1.01-3.24-.14-4.82-.7-.96-.87-2.09-.02-2.9.91-.88,1.83-.09,2.7.45,2.96,1.84,5.9,3.71,8.92,5.44,2.85,1.63,3.92,4.08,3.95,7.57Z"/>
  <path class="cls-3" d="M168.55,194.51c0,1.57.2,3.17-.08,4.68-.16.84-1,1.99-1.75,2.19-3.04.8-6.15,1.35-9.26,1.83-.54.08-1.28-.56-1.8-1.01-.71-.61-1.31-1.35-1.99-2.07,0-.06-.03-.2.03-.25,1.97-1.82,3.87-3.74,5.99-5.37.81-.62,2.16-.81,3.25-.76,1.97.09,3.93.51,5.62.76Z"/>
  <path class="cls-3" d="M96.65,286.63c-.65.46-1.13,1.08-1.63,1.1-2.74.1-5.48.05-8.29.05,1.79-4.09,5.01-4.51,9.93-1.15Z"/>
  <path class="cls-3" d="M62.91,308.45c.7-.76,1.15-1.37,1.72-1.83,1.55-1.26,3.1-2.54,4.77-3.63.84-.54,1.94-.68,3.08-1.05-.34,3.84-4.1,6.34-9.56,6.51Z"/>
  <path class="cls-3" d="M116.22,273.26c-.4.69-.7,1.07-.85,1.5-.38,1.04-.55,2.21-2.11,2.1-1.83-.13-3.66-.35-4.82-1.96-.78-1.08.46-2.78,1.92-2.62,1.88.21,3.74.62,5.86.98Z"/>
  <path class="cls-3" d="M77.02,149.44c-.24.49-.45.9-.67,1.34-2.81-.92-5.52-1.82-7.27-4.99,2.83,1.3,5.3,2.44,7.94,3.65Z"/>
  <path class="cls-3" d="M136.54,126.63c3.45.82,4.22,4.3,6.33,6.44-.08.13-.16.25-.24.38-.72-.33-1.51-.56-2.13-1.02-1.22-.91-2.45-1.85-3.47-2.98-.58-.63-.73-1.65-1.08-2.49.19-.11.39-.22.58-.33Z"/>
  <path class="cls-3" d="M192.8,197.84c-.12-2.46.87-5.3-2.84-6.33.5-1,.89-1.96,1.44-2.82.2-.31.8-.62,1.12-.54.37.08.83.56.91.94.47,2.38.88,4.78,1.24,7.18.14.93-.34,1.32-1.88,1.58Z"/>
  <path class="cls-3" d="M163.28,105.22c.93,1.93,1.76,3.64,2.56,5.37.09.2.09.57-.04.73-.68.87-1.31,1.84-2.18,2.49-.44.33-1.44.28-1.99,0-.46-.24-.97-1.13-.87-1.6.47-2.06,1.13-4.07,1.78-6.08.12-.36.49-.63.72-.92Z"/>
  <path class="cls-3" d="M115.6,144.64c-3.04-1.17-3.17-1.48-1.98-3.81.43-.85.81-1.74,1.37-2.49.33-.44.98-.64,1.48-.95.17.1.33.19.5.29-.45,2.27-.9,4.54-1.38,6.96Z"/>
  <path class="cls-3" d="M5.99,260.23c.24-2.93,1.74-4.05,4.15-3.23-.08,1.51-.41,1.77-4.15,3.23Z"/>
  <path class="cls-3" d="M114.22,122.23c-1.02-1.08-2.04-2.16-3.07-3.24,1.34-1.19,3.38-1.57,3.78-.54.42,1.05-.05,2.45-.13,3.7-.19.03-.39.06-.58.08Z"/>
  <path class="cls-3" d="M113.84,89.85c-.43-1.85-.89-3.69-1.22-5.55-.04-.23.69-.87,1.04-.85.54.03,1.51.45,1.52.72.04,1.67-.12,3.35-.26,5.02-.02.21-.31.39-.48.59-.2.02-.4.04-.6.07Z"/>
  <path class="cls-3" d="M67.93,152.7c.94.91,1.95,1.75,2.76,2.76.25.32-.07,1.1-.13,1.67-.2.03-.39.07-.59.1-.83-1.39-1.66-2.78-2.5-4.18.15-.12.3-.24.45-.36Z"/>
  <path class="cls-3" d="M114.6,100.66c-.92-.98-1.85-1.96-2.77-2.95.17-.17.35-.34.52-.52.94.97,1.89,1.95,2.83,2.92-.19.18-.39.36-.58.54Z"/>
  <path class="cls-3" d="M129.02,183.23c-.37,1.17-.63,2.4-1.15,3.5-.18.38-1.01.46-1.54.67-.04-.52-.28-1.16-.06-1.53.61-1.02,1.41-1.93,2.14-2.88.21.08.41.16.62.23Z"/>
  <path class="cls-3" d="M167.92,158c.93.46,1.86.92,2.79,1.38l-.2.38c-1.14-.08-2.36-.03-2.88-1.22.1-.18.2-.37.3-.55Z"/>
  <path class="cls-3" d="M202.88,196.36c-.05.9-.02,1.82-.21,2.69-.06.3-.66.49-1.01.74-.29-.52-.93-1.18-.78-1.51.33-.76,1.04-1.36,1.59-2.03.14.04.27.08.41.12Z"/>
  <path class="cls-3" d="M149.09,212.74c.12,1.9-.46,2.27-2.68,1.66.83-.51,1.66-1.03,2.68-1.66Z"/>
  <path class="cls-3" d="M3.08,243.61c-.38-.74-.93-1.47-1.02-2.25-.03-.25,1.16-.65,1.79-.98.12.12.25.25.37.37l-.58,2.67-.56.18Z"/>
</svg>